<?xml version="1.0" encoding="UTF-8" standalone="no"?>
<svg width="1390px" height="890px" viewBox="0 0 1390 890" version="1.1" xmlns="http://www.w3.org/2000/svg" xmlns:xlink="http://www.w3.org/1999/xlink" xmlns:sketch="http://www.bohemiancoding.com/sketch/ns">
    <title>Slice 1</title>
    <description>Created with Sketch (http://www.bohemiancoding.com/sketch)</description>
    <defs></defs>
    <g id="Page-1" stroke="none" stroke-width="1" fill="none" fill-rule="evenodd" sketch:type="MSPage">
        <g id="screen3" sketch:type="MSLayerGroup">
            <g id="Page-1">
                <g id="screen3">
                    <g id="Page-1">
                        <g id="Group" transform="translate(51.693579, 82.086796)" stroke="#979797" sketch:type="MSShapeGroup">
                            <path d="M1164.33634,525.355494 L1164.33634,290.186891 L1117.94381,290.186891 L1117.94381,487.00053 L1001.66549,487.00053 L1001.66549,287.224548 L937.530853,287.224548 L937.530853,485.053484 L692.873888,485.053484 L692.873888,284.841182 L471.806479,284.841182 L471.806479,521.758543 L1164.33634,525.355494 L1164.33634,525.355494 Z" id="Path-1"></path>
                            <path d="M275.240547,36.9390582 L141.95221,36.9390582 L141.95221,163.352724 L786.070621,163.352724 L786.070621,118.928896" id="Path-38"></path>
                            <path d="M274.058024,36.9390582 L274.058024,0" id="Path-39"></path>
                            <path d="M240.416171,36.9390582 L240.416171,0" id="Path-39"></path>
                            <path d="M215.800181,36.9390582 L215.800181,0" id="Path-39"></path>
                            <path d="M192.004724,36.9390582 L192.004724,0" id="Path-39"></path>
                            <path d="M167.388733,36.9390582 L167.388733,0" id="Path-39"></path>
                            <path d="M142.772743,36.9390582 L142.772743,0" id="Path-39"></path>
                            <path d="M120.618352,36.9390582 L120.618352,0" id="Path-39"></path>
                            <path d="M97.6434279,36.9390582 L97.6434279,0" id="Path-39"></path>
                            <path d="M73.0274376,36.9390582 L73.0274376,0" id="Path-39"></path>
                            <path d="M48.4114474,36.9390582 L48.4114474,0" id="Path-39"></path>
                            <path d="M24.6159902,36.9390582 L24.6159902,0" id="Path-39"></path>
                            <path d="M0,36.9390582 L0,0" id="Path-39"></path>
                        </g>
                        <g id="Group" transform="translate(502.166200, 374.315789)" sketch:type="MSShapeGroup">
                            <path d="M346.195907,240.514312 L346.195907,5.3457084 L323.004266,5.3457084 L323.004266,202.159348 L264.876694,202.159348 L264.876694,2.38336559 L232.81577,2.38336559 L232.81577,200.212302 L110.511672,200.212302 L110.511672,0 L0,0 L0,236.917361 L346.195907,240.514312 L346.195907,240.514312 Z" id="Path-1" stroke="#979797"></path>
                            <g id="Path-3-+-Path-2-+-Oval-1" transform="translate(0.000000, 32.013850)">
                                <path d="M53.4506745,5.74607572 L38.2377902,5.74607572" id="Path-3" stroke="#9B9B9B" fill="#9B9B9B"></path>
                                <path d="M39.0601082,5.33564174 C41.5065045,6.62850877 43.6034156,7.73668051 46.0498118,9.02954755 L46.0498113,1.64173592 L39.0601082,5.33564174 L39.0601082,5.33564174 Z" id="Path-3-decoration-1" stroke="#9B9B9B" fill="#9B9B9B"></path>
                                <path d="M0,0.170108044 L6.83337156,0.170108044 L6.83337156,7.38781163 L102.943995,7.38781163 L102.943995,0 L122.114233,0" id="Path-2" stroke="#979797"></path>
                                <ellipse id="Oval-1" fill="#303BA3" cx="1.43905662" cy="3.69390582" rx="1.43905662" ry="3.69390582"></ellipse>
                            </g>
                            <g id="Path-3-+-Path-2-+-Oval-1" transform="translate(345.500000, 61.139889) scale(-1, 1) translate(-345.500000, -61.139889) translate(0.000000, 56.639889)">
                                <path d="M53.4506745,5.74607572 L38.2377902,5.74607572" id="Path-3" stroke="#9B9B9B" fill="#9B9B9B"></path>
                                <path d="M39.0601082,5.33564174 C41.5065045,6.62850877 43.6034156,7.73668051 46.0498118,9.02954755 L46.0498113,1.64173592 L39.0601082,5.33564174 L39.0601082,5.33564174 Z" id="Path-3-decoration-1" stroke="#9B9B9B" fill="#9B9B9B"></path>
                                <path d="M0,0.170108044 L6.83337156,0.170108044 L6.83337156,7.38781163 L102.943995,7.38781163 L102.943995,0 L122.114233,0" id="Path-2" stroke="#979797"></path>
                                <ellipse id="Oval-1" fill="#D0011B" cx="1.43905662" cy="3.69390582" rx="1.43905662" ry="3.69390582"></ellipse>
                            </g>
                            <g id="Path-3-+-Path-2-+-Oval-1" transform="translate(0.000000, 76.340720)">
                                <path d="M53.4506745,5.74607572 L38.2377902,5.74607572" id="Path-3" stroke="#9B9B9B" fill="#9B9B9B"></path>
                                <path d="M39.0601082,5.33564174 C41.5065045,6.62850877 43.6034156,7.73668051 46.0498118,9.02954755 L46.0498113,1.64173592 L39.0601082,5.33564174 L39.0601082,5.33564174 Z" id="Path-3-decoration-1" stroke="#9B9B9B" fill="#9B9B9B"></path>
                                <path d="M0,0.170108044 L6.83337156,0.170108044 L6.83337156,7.38781163 L102.943995,7.38781163 L102.943995,0 L122.114233,0" id="Path-2" stroke="#979797"></path>
                                <ellipse id="Oval-1" fill="#303BA3" cx="1.43905662" cy="3.69390582" rx="1.43905662" ry="3.69390582"></ellipse>
                            </g>
                            <g id="Path-3-+-Path-2-+-Oval-1" transform="translate(345.500000, 103.825023) scale(-1, 1) translate(-345.500000, -103.825023) translate(0.000000, 99.325023)">
                                <path d="M53.4506745,5.74607572 L38.2377902,5.74607572" id="Path-3" stroke="#9B9B9B" fill="#9B9B9B"></path>
                                <path d="M39.0601082,5.33564174 C41.5065045,6.62850877 43.6034156,7.73668051 46.0498118,9.02954755 L46.0498113,1.64173592 L39.0601082,5.33564174 L39.0601082,5.33564174 Z" id="Path-3-decoration-1" stroke="#9B9B9B" fill="#9B9B9B"></path>
                                <path d="M0,0.170108044 L6.83337156,0.170108044 L6.83337156,7.38781163 L102.943995,7.38781163 L102.943995,0 L122.114233,0" id="Path-2" stroke="#979797"></path>
                                <ellipse id="Oval-1" fill="#D0011B" cx="1.43905662" cy="3.69390582" rx="1.43905662" ry="3.69390582"></ellipse>
                            </g>
                            <g id="Path-3-+-Path-2-+-Oval-1" transform="translate(0.000000, 121.488458)">
                                <path id="Path-3" stroke="#9B9B9B" fill="#9B9B9B" d="M53.4506745,0.0568918388 L38.2377902,0.0568918388"></path>
                                <path id="Path-3-decoration-1" stroke="#9B9B9B" fill="#9B9B9B" d="M39.0601082,0.052828136 C41.5065045,0.0656287997 43.6034156,0.0766007971 46.0498118,0.0894014609 L46.0498113,0.0162548111 L39.0601082,0.052828136 L39.0601082,0.052828136 Z"></path>
                                <path id="Path-2" stroke="#979797" d="M0,0.00168423806 L6.83337156,0.00168423806 L6.83337156,0.0731466498 L102.943995,0.0731466498 L102.943995,0 L122.114233,0"></path>
                                <ellipse id="Oval-1" fill="#303BA3" cx="1.43905662" cy="0.036573325" rx="1.43905662" ry="0.036573325"></ellipse>
                            </g>
                            <g id="Path-3-+-Path-2-+-Oval-1" transform="translate(345.500000, 150.614497) scale(-1, 1) translate(-345.500000, -150.614497) translate(0.000000, 146.114497)">
                                <path d="M53.4506745,5.74607572 L38.2377902,5.74607572" id="Path-3" stroke="#9B9B9B" fill="#9B9B9B"></path>
                                <path d="M39.0601082,5.33564174 C41.5065045,6.62850877 43.6034156,7.73668051 46.0498118,9.02954755 L46.0498113,1.64173592 L39.0601082,5.33564174 L39.0601082,5.33564174 Z" id="Path-3-decoration-1" stroke="#9B9B9B" fill="#9B9B9B"></path>
                                <path d="M0,0.170108044 L6.83337156,0.170108044 L6.83337156,7.38781163 L102.943995,7.38781163 L102.943995,0 L122.114233,0" id="Path-2" stroke="#979797"></path>
                                <ellipse id="Oval-1" fill="#D0011B" cx="1.43905662" cy="3.69390582" rx="1.43905662" ry="3.69390582"></ellipse>
                            </g>
                            <g id="Path-3-+-Path-2-+-Oval-1" transform="translate(0.000000, 164.173592)">
                                <path d="M53.4506745,5.74607572 L38.2377902,5.74607572" id="Path-3" stroke="#9B9B9B" fill="#9B9B9B"></path>
                                <path d="M39.0601082,5.33564174 C41.5065045,6.62850877 43.6034156,7.73668051 46.0498118,9.02954755 L46.0498113,1.64173592 L39.0601082,5.33564174 L39.0601082,5.33564174 Z" id="Path-3-decoration-1" stroke="#9B9B9B" fill="#9B9B9B"></path>
                                <path d="M0,0.170108044 L6.83337156,0.170108044 L6.83337156,7.38781163 L102.943995,7.38781163 L102.943995,0 L122.114233,0" id="Path-2" stroke="#979797"></path>
                                <ellipse id="Oval-1" fill="#303BA3" cx="1.43905662" cy="3.69390582" rx="1.43905662" ry="3.69390582"></ellipse>
                            </g>
                            <g id="Path-3-+-Path-2-+-Oval-1" transform="translate(345.500000, 193.299631) scale(-1, 1) translate(-345.500000, -193.299631) translate(0.000000, 188.799631)">
                                <path d="M53.4506745,5.74607572 L38.2377902,5.74607572" id="Path-3" stroke="#9B9B9B" fill="#9B9B9B"></path>
                                <path d="M39.0601082,5.33564174 C41.5065045,6.62850877 43.6034156,7.73668051 46.0498118,9.02954755 L46.0498113,1.64173592 L39.0601082,5.33564174 L39.0601082,5.33564174 Z" id="Path-3-decoration-1" stroke="#9B9B9B" fill="#9B9B9B"></path>
                                <path d="M0,0.170108044 L6.83337156,0.170108044 L6.83337156,7.38781163 L102.943995,7.38781163 L102.943995,0 L122.114233,0" id="Path-2" stroke="#979797"></path>
                                <ellipse id="Oval-1" fill="#D0011B" cx="1.43905662" cy="3.69390582" rx="1.43905662" ry="3.69390582"></ellipse>
                            </g>
                        </g>
                        <g id="connect" transform="translate(1051.923315, 379.240997)" sketch:type="MSShapeGroup">
                            <path d="M0,14.7756233 L117.33622,14.7756233" id="Path-19" stroke="#979797"></path>
                            <path d="M65.6426406,16.4173592 L65.6426406,1.64173592" id="Path-20" stroke="#979797"></path>
                            <path d="M47.5909144,16.4173592 L47.5909144,7.38781163" id="Path-20" stroke="#979797"></path>
                            <ellipse id="Oval-1" fill="#D0011B" cx="2.87186553" cy="2.87303786" rx="2.87186553" ry="2.87303786"></ellipse>
                            <ellipse id="Oval-1" fill="#303BA3" cx="2.87186553" cy="2.87303786" rx="2.87186553" ry="2.87303786"></ellipse>
                            <ellipse id="Oval-10" stroke="#979797" fill="#9B9B9B" cx="0.820533007" cy="0.820867959" rx="0.820533007" ry="0.820867959"></ellipse>
                            <ellipse id="Oval-10" stroke="#979797" fill="#9B9B9B" cx="0.820533007" cy="0.820867959" rx="0.820533007" ry="0.820867959"></ellipse>
                        </g>
                        <g id="connect" transform="translate(1054.384914, 417.000923)" sketch:type="MSShapeGroup">
                            <path d="M0,14.7756233 L117.33622,14.7756233" id="Path-19" stroke="#979797"></path>
                            <path d="M65.6426406,16.4173592 L65.6426406,1.64173592" id="Path-20" stroke="#979797"></path>
                            <path d="M47.5909144,16.4173592 L47.5909144,7.38781163" id="Path-20" stroke="#979797"></path>
                            <ellipse id="Oval-1" fill="#D0011B" cx="2.87186553" cy="2.87303786" rx="2.87186553" ry="2.87303786"></ellipse>
                            <ellipse id="Oval-1" fill="#303BA3" cx="2.87186553" cy="2.87303786" rx="2.87186553" ry="2.87303786"></ellipse>
                            <ellipse id="Oval-10" stroke="#979797" fill="#9B9B9B" cx="0.820533007" cy="0.820867959" rx="0.820533007" ry="0.820867959"></ellipse>
                            <ellipse id="Oval-10" stroke="#979797" fill="#9B9B9B" cx="0.820533007" cy="0.820867959" rx="0.820533007" ry="0.820867959"></ellipse>
                        </g>
                        <g id="connect" transform="translate(1054.384914, 447.373038)" sketch:type="MSShapeGroup">
                            <path d="M0,14.7756233 L117.33622,14.7756233" id="Path-19" stroke="#979797"></path>
                            <path d="M65.6426406,16.4173592 L65.6426406,1.64173592" id="Path-20" stroke="#979797"></path>
                            <path d="M47.5909144,16.4173592 L47.5909144,7.38781163" id="Path-20" stroke="#979797"></path>
                            <ellipse id="Oval-1" fill="#D0011B" cx="2.87186553" cy="2.87303786" rx="2.87186553" ry="2.87303786"></ellipse>
                            <ellipse id="Oval-1" fill="#303BA3" cx="2.87186553" cy="2.87303786" rx="2.87186553" ry="2.87303786"></ellipse>
                            <ellipse id="Oval-10" stroke="#979797" fill="#9B9B9B" cx="0.820533007" cy="0.820867959" rx="0.820533007" ry="0.820867959"></ellipse>
                            <ellipse id="Oval-10" stroke="#979797" fill="#9B9B9B" cx="0.820533007" cy="0.820867959" rx="0.820533007" ry="0.820867959"></ellipse>
                        </g>
                        <g id="connect" transform="translate(1031.409990, 479.386888)" sketch:type="MSShapeGroup">
                            <path d="M0,14.7756233 L117.33622,14.7756233" id="Path-19" stroke="#979797"></path>
                            <path d="M65.6426406,16.4173592 L65.6426406,1.64173592" id="Path-20" stroke="#979797"></path>
                            <path d="M47.5909144,16.4173592 L47.5909144,7.38781163" id="Path-20" stroke="#979797"></path>
                            <ellipse id="Oval-1" fill="#D0011B" cx="2.87186553" cy="2.87303786" rx="2.87186553" ry="2.87303786"></ellipse>
                            <ellipse id="Oval-1" fill="#303BA3" cx="2.87186553" cy="2.87303786" rx="2.87186553" ry="2.87303786"></ellipse>
                            <ellipse id="Oval-10" stroke="#979797" fill="#9B9B9B" cx="0.820533007" cy="0.820867959" rx="0.820533007" ry="0.820867959"></ellipse>
                            <ellipse id="Oval-10" stroke="#979797" fill="#9B9B9B" cx="0.820533007" cy="0.820867959" rx="0.820533007" ry="0.820867959"></ellipse>
                        </g>
                        <g id="connect" transform="translate(1031.409990, 511.400739)" sketch:type="MSShapeGroup">
                            <path id="Path-19" stroke="#979797" d="M0,0.276331789 L117.33622,0.276331789"></path>
                            <path id="Path-20" stroke="#979797" d="M65.6426406,0.307035321 L65.6426406,0.0307035321"></path>
                            <path id="Path-20" stroke="#979797" d="M47.5909144,0.307035321 L47.5909144,0.138165894"></path>
                            <ellipse id="Oval-1" fill="#D0011B" cx="2.87186553" cy="0.0537311811" rx="2.87186553" ry="0.0537311811"></ellipse>
                            <ellipse id="Oval-1" fill="#303BA3" cx="2.87186553" cy="0.0537311811" rx="2.87186553" ry="0.0537311811"></ellipse>
                            <ellipse id="Oval-10" stroke="#979797" fill="#9B9B9B" cx="0.820533007" cy="0.015351766" rx="0.820533007" ry="0.015351766"></ellipse>
                            <ellipse id="Oval-10" stroke="#979797" fill="#9B9B9B" cx="0.820533007" cy="0.015351766" rx="0.820533007" ry="0.015351766"></ellipse>
                        </g>
                        <g id="connect" transform="translate(1031.409990, 537.668513)" sketch:type="MSShapeGroup">
                            <path d="M0,14.7756233 L117.33622,14.7756233" id="Path-19" stroke="#979797"></path>
                            <path d="M65.6426406,16.4173592 L65.6426406,1.64173592" id="Path-20" stroke="#979797"></path>
                            <path d="M47.5909144,16.4173592 L47.5909144,7.38781163" id="Path-20" stroke="#979797"></path>
                            <ellipse id="Oval-1" fill="#D0011B" cx="2.87186553" cy="2.87303786" rx="2.87186553" ry="2.87303786"></ellipse>
                            <ellipse id="Oval-1" fill="#303BA3" cx="2.87186553" cy="2.87303786" rx="2.87186553" ry="2.87303786"></ellipse>
                            <ellipse id="Oval-10" stroke="#979797" fill="#9B9B9B" cx="0.820533007" cy="0.820867959" rx="0.820533007" ry="0.820867959"></ellipse>
                            <ellipse id="Oval-10" stroke="#979797" fill="#9B9B9B" cx="0.820533007" cy="0.820867959" rx="0.820533007" ry="0.820867959"></ellipse>
                        </g>
                        <g id="Group" transform="translate(397.137976, 69.773777)" sketch:type="MSShapeGroup">
                            <path d="M0,10.6712835 L0,123.130194 L550.577648,123.130194 L550.577648,13.8463689" id="Path-51" stroke="#979797"></path>
                            <path d="M39.3855843,123.130194 L39.3855843,10.6712835" id="Path-52" stroke="#979797" fill="#9B9B9B"></path>
                            <path d="M37.3342518,121.488458 L33.6418533,107.533703 L41.0266504,107.533703 L37.3342518,121.488458 L37.3342518,121.488458 Z" id="Path-52-decoration-1" stroke="#979797" fill="#9B9B9B"></path>
                            <path d="M76.3095697,123.130194 L76.3095697,10.6712835" id="Path-52" stroke="#979797" fill="#9B9B9B"></path>
                            <path d="M76.7198362,121.488458 L73.0274376,107.533703 L80.4122347,107.533703 L76.7198362,121.488458 L76.7198362,121.488458 Z" id="Path-52-decoration-1" stroke="#979797" fill="#9B9B9B"></path>
                            <path d="M115.695154,123.130194 L115.695154,10.6712835" id="Path-52" stroke="#979797" fill="#9B9B9B"></path>
                            <path d="M114.464355,121.488458 L110.771956,107.533703 L118.156753,107.533703 L114.464355,121.488458 L114.464355,121.488458 Z" id="Path-52-decoration-1" stroke="#979797" fill="#9B9B9B"></path>
                            <path d="M155.080738,123.130194 L155.080738,10.6712835" id="Path-52" stroke="#979797" fill="#9B9B9B"></path>
                            <path d="M154.670472,121.488458 L150.978073,107.533703 L158.36287,107.533703 L154.670472,121.488458 L154.670472,121.488458 Z" id="Path-52-decoration-1" stroke="#979797" fill="#9B9B9B"></path>
                            <path d="M174.773531,24.7076934 L174.773531,68.9529086 L191.184191,68.9529086 L191.184191,24.6260388" id="Path-56" stroke="#979797"></path>
                            <path d="M174.773531,24.6260388 L191.184191,24.6260388" id="Path-57" stroke="#979797"></path>
                            <path d="M183.799394,23.8051708 L183.799394,12.956957 L191.184191,12.956957 L191.184191,7.38781163" id="Path-58" stroke="#979797"></path>
                            <path d="M183.799394,13.1338873 L174.773531,13.1338873 L174.773531,7.38781163" id="Path-59" stroke="#979797"></path>
                            <path d="M183.799394,71.4155125 L183.799394,96.0415512" id="Path-60" stroke="#979797"></path>
                            <path d="M226.46711,0 L226.46711,121.488458" id="Path-61" stroke="#9B9B9B" fill="#9B9B9B"></path>
                            <path d="M226.877377,121.488458 L230.569775,107.533703 L223.184978,107.533703 L226.877377,121.488458 L226.877377,121.488458 Z" id="Path-61-decoration-1" stroke="#9B9B9B" fill="#9B9B9B"></path>
                            <path d="M238.775105,9.02954755 L238.775105,123.130194" id="Path-62" stroke="#9B9B9B" fill="#9B9B9B"></path>
                            <path d="M237.544306,121.488458 L241.236704,107.533703 L233.851907,107.533703 L237.544306,121.488458 L237.544306,121.488458 Z" id="Path-62-decoration-1" stroke="#9B9B9B" fill="#9B9B9B"></path>
                            <path d="M192.825257,46.7894737 L237.134039,46.7894737" id="Path-63" stroke="#979797"></path>
                            <path d="M174.773531,59.1024931 L226.46711,59.1024931" id="Path-64" stroke="#979797"></path>
                            <path d="M342.162264,7.65587874 L342.162264,65.0440265 L297.853482,65.0440265 L297.853482,7.38781163 L297.853482,121.488458" id="Path-65" stroke="#979797"></path>
                            <path d="M310.161477,7.38781163 L310.161477,121.488458" id="Path-66" stroke="#979797" fill="#9B9B9B"></path>
                            <path d="M310.571743,120.66759 L314.264142,106.712835 L306.879345,106.712835 L310.571743,120.66759 L310.571743,120.66759 Z" id="Path-66-decoration-1" stroke="#979797" fill="#9B9B9B"></path>
                            <path d="M342.162264,18.0590951 L327.78245,18.0590951 L327.78245,51.7146814 L310.161477,51.7146814" id="Path-67" stroke="#979797"></path>
                            <path d="M398.779042,119.249963 L398.779042,80.9050275 L472.293325,80.9050275 L472.293325,68.1320406 L478.180844,68.1320406 L478.180844,80.7084616 L491.499271,80.7084616 L491.499271,119.846722" id="Path-68" stroke="#979797"></path>
                            <path d="M490.268472,121.488458 L493.96087,107.533703 L486.576073,107.533703 L490.268472,121.488458 L490.268472,121.488458 Z" id="Path-68-decoration-1" stroke="#979797" fill="#9B9B9B"></path>
                        </g>
                        <g id="Group" transform="translate(686.164685, 61.500000) scale(-1, 1) translate(-686.164685, -61.500000) translate(410.664685, 0.000000)" sketch:type="MSShapeGroup">
                            <path d="M0,10.6712835 L0,123.130194 L550.577648,123.130194 L550.577648,13.8463689" id="Path-51" stroke="#979797"></path>
                            <path d="M39.3855843,123.130194 L39.3855843,10.6712835" id="Path-52" stroke="#979797" fill="#9B9B9B"></path>
                            <path d="M37.3342518,121.488458 L33.6418533,107.533703 L41.0266504,107.533703 L37.3342518,121.488458 L37.3342518,121.488458 Z" id="Path-52-decoration-1" stroke="#979797" fill="#9B9B9B"></path>
                            <path d="M76.3095697,123.130194 L76.3095697,10.6712835" id="Path-52" stroke="#979797" fill="#9B9B9B"></path>
                            <path d="M76.7198362,121.488458 L73.0274376,107.533703 L80.4122347,107.533703 L76.7198362,121.488458 L76.7198362,121.488458 Z" id="Path-52-decoration-1" stroke="#979797" fill="#9B9B9B"></path>
                            <path d="M115.695154,123.130194 L115.695154,10.6712835" id="Path-52" stroke="#979797" fill="#9B9B9B"></path>
                            <path d="M114.464355,121.488458 L110.771956,107.533703 L118.156753,107.533703 L114.464355,121.488458 L114.464355,121.488458 Z" id="Path-52-decoration-1" stroke="#979797" fill="#9B9B9B"></path>
                            <path d="M155.080738,123.130194 L155.080738,10.6712835" id="Path-52" stroke="#979797" fill="#9B9B9B"></path>
                            <path d="M154.670472,121.488458 L150.978073,107.533703 L158.36287,107.533703 L154.670472,121.488458 L154.670472,121.488458 Z" id="Path-52-decoration-1" stroke="#979797" fill="#9B9B9B"></path>
                            <path d="M174.773531,24.7076934 L174.773531,68.9529086 L191.184191,68.9529086 L191.184191,24.6260388" id="Path-56" stroke="#979797"></path>
                            <path d="M174.773531,24.6260388 L191.184191,24.6260388" id="Path-57" stroke="#979797"></path>
                            <path d="M183.799394,23.8051708 L183.799394,12.956957 L191.184191,12.956957 L191.184191,7.38781163" id="Path-58" stroke="#979797"></path>
                            <path d="M183.799394,13.1338873 L174.773531,13.1338873 L174.773531,7.38781163" id="Path-59" stroke="#979797"></path>
                            <path d="M183.799394,71.4155125 L183.799394,96.0415512" id="Path-60" stroke="#979797"></path>
                            <path d="M226.46711,0 L226.46711,121.488458" id="Path-61" stroke="#9B9B9B" fill="#9B9B9B"></path>
                            <path d="M226.877377,121.488458 L230.569775,107.533703 L223.184978,107.533703 L226.877377,121.488458 L226.877377,121.488458 Z" id="Path-61-decoration-1" stroke="#9B9B9B" fill="#9B9B9B"></path>
                            <path d="M238.775105,9.02954755 L238.775105,123.130194" id="Path-62" stroke="#9B9B9B" fill="#9B9B9B"></path>
                            <path d="M237.544306,121.488458 L241.236704,107.533703 L233.851907,107.533703 L237.544306,121.488458 L237.544306,121.488458 Z" id="Path-62-decoration-1" stroke="#9B9B9B" fill="#9B9B9B"></path>
                            <path d="M192.825257,46.7894737 L237.134039,46.7894737" id="Path-63" stroke="#979797"></path>
                            <path d="M174.773531,59.1024931 L226.46711,59.1024931" id="Path-64" stroke="#979797"></path>
                            <path d="M342.162264,7.65587874 L342.162264,65.0440265 L297.853482,65.0440265 L297.853482,7.38781163 L297.853482,121.488458" id="Path-65" stroke="#979797"></path>
                            <path d="M310.161477,7.38781163 L310.161477,121.488458" id="Path-66" stroke="#979797" fill="#9B9B9B"></path>
                            <path d="M310.571743,120.66759 L314.264142,106.712835 L306.879345,106.712835 L310.571743,120.66759 L310.571743,120.66759 Z" id="Path-66-decoration-1" stroke="#979797" fill="#9B9B9B"></path>
                            <path d="M342.162264,18.0590951 L327.78245,18.0590951 L327.78245,51.7146814 L310.161477,51.7146814" id="Path-67" stroke="#979797"></path>
                            <path d="M398.779042,119.249963 L398.779042,80.9050275 L472.293325,80.9050275 L472.293325,68.1320406 L478.180844,68.1320406 L478.180844,80.7084616 L491.499271,80.7084616 L491.499271,119.846722" id="Path-68" stroke="#979797"></path>
                            <path d="M490.268472,121.488458 L493.96087,107.533703 L486.576073,107.533703 L490.268472,121.488458 L490.268472,121.488458 Z" id="Path-68-decoration-1" stroke="#979797" fill="#9B9B9B"></path>
                        </g>
                        <g id="Group" transform="translate(397.137976, 502.371191)" sketch:type="MSShapeGroup">
                            <path d="M0,1.44396905 L0,16.6611814 L550.577648,16.6611814 L550.577648,1.87360107" id="Path-51" stroke="#979797"></path>
                            <path d="M39.3855843,16.6611814 L39.3855843,1.44396905" id="Path-52" stroke="#979797" fill="#9B9B9B"></path>
                            <path d="M37.3342518,16.4390323 L33.6418533,14.5507651 L41.0266504,14.5507651 L37.3342518,16.4390323 L37.3342518,16.4390323 Z" id="Path-52-decoration-1" stroke="#979797" fill="#9B9B9B"></path>
                            <path d="M76.3095697,16.6611814 L76.3095697,1.44396905" id="Path-52" stroke="#979797" fill="#9B9B9B"></path>
                            <path d="M76.7198362,16.4390323 L73.0274376,14.5507651 L80.4122347,14.5507651 L76.7198362,16.4390323 L76.7198362,16.4390323 Z" id="Path-52-decoration-1" stroke="#979797" fill="#9B9B9B"></path>
                            <path d="M115.695154,16.6611814 L115.695154,1.44396905" id="Path-52" stroke="#979797" fill="#9B9B9B"></path>
                            <path d="M114.464355,16.4390323 L110.771956,14.5507651 L118.156753,14.5507651 L114.464355,16.4390323 L114.464355,16.4390323 Z" id="Path-52-decoration-1" stroke="#979797" fill="#9B9B9B"></path>
                            <path d="M155.080738,16.6611814 L155.080738,1.44396905" id="Path-52" stroke="#979797" fill="#9B9B9B"></path>
                            <path d="M154.670472,16.4390323 L150.978073,14.5507651 L158.36287,14.5507651 L154.670472,16.4390323 L154.670472,16.4390323 Z" id="Path-52-decoration-1" stroke="#979797" fill="#9B9B9B"></path>
                            <path d="M174.773531,3.34328525 L174.773531,9.33026156 L191.184191,9.33026156 L191.184191,3.33223627" id="Path-56" stroke="#979797"></path>
                            <path id="Path-57" stroke="#979797" d="M174.773531,3.33223627 L191.184191,3.33223627"></path>
                            <path d="M183.799394,3.22116173 L183.799394,1.75325161 L191.184191,1.75325161 L191.184191,0.999670881" id="Path-58" stroke="#979797"></path>
                            <path d="M183.799394,1.77719267 L174.773531,1.77719267 L174.773531,0.999670881" id="Path-59" stroke="#979797"></path>
                            <path d="M183.799394,9.66348519 L183.799394,12.9957214" id="Path-60" stroke="#979797"></path>
                            <path d="M226.46711,0 L226.46711,16.4390323" id="Path-61" stroke="#9B9B9B" fill="#9B9B9B"></path>
                            <path d="M226.877377,16.4390323 L230.569775,14.5507651 L223.184978,14.5507651 L226.877377,16.4390323 L226.877377,16.4390323 Z" id="Path-61-decoration-1" stroke="#9B9B9B" fill="#9B9B9B"></path>
                            <path d="M238.775105,1.22181997 L238.775105,16.6611814" id="Path-62" stroke="#9B9B9B" fill="#9B9B9B"></path>
                            <path d="M237.544306,16.4390323 L241.236704,14.5507651 L233.851907,14.5507651 L237.544306,16.4390323 L237.544306,16.4390323 Z" id="Path-62-decoration-1" stroke="#9B9B9B" fill="#9B9B9B"></path>
                            <path id="Path-63" stroke="#979797" d="M192.825257,6.33124892 L237.134039,6.33124892"></path>
                            <path id="Path-64" stroke="#979797" d="M174.773531,7.99736705 L226.46711,7.99736705"></path>
                            <path d="M342.162264,1.03594399 L342.162264,8.80133692 L297.853482,8.80133692 L297.853482,0.999670881 L297.853482,16.4390323" id="Path-65" stroke="#979797"></path>
                            <path d="M310.161477,0.999670881 L310.161477,16.4390323" id="Path-66" stroke="#979797" fill="#9B9B9B"></path>
                            <path d="M310.571743,16.3279577 L314.264142,14.4396905 L306.879345,14.4396905 L310.571743,16.3279577 L310.571743,16.3279577 Z" id="Path-66-decoration-1" stroke="#979797" fill="#9B9B9B"></path>
                            <path d="M342.162264,2.44363993 L327.78245,2.44363993 L327.78245,6.99769616 L310.161477,6.99769616" id="Path-67" stroke="#979797"></path>
                            <path d="M398.779042,16.1361336 L398.779042,10.947545 L472.293325,10.947545 L472.293325,9.21918701 L478.180844,9.21918701 L478.180844,10.9209469 L491.499271,10.9209469 L491.499271,16.2168832" id="Path-68" stroke="#979797"></path>
                            <path d="M490.268472,16.4390323 L493.96087,14.5507651 L486.576073,14.5507651 L490.268472,16.4390323 L490.268472,16.4390323 Z" id="Path-68-decoration-1" stroke="#979797" fill="#9B9B9B"></path>
                        </g>
                        <g id="Group" transform="translate(686.164685, 492.455679) scale(-1, 1) translate(-686.164685, -492.455679) translate(410.664685, 430.955679)" sketch:type="MSShapeGroup">
                            <path d="M0,1.44396905 L0,16.6611814 L550.577648,16.6611814 L550.577648,1.87360107" id="Path-51" stroke="#979797"></path>
                            <path d="M39.3855843,16.6611814 L39.3855843,1.44396905" id="Path-52" stroke="#979797" fill="#9B9B9B"></path>
                            <path d="M37.3342518,16.4390323 L33.6418533,14.5507651 L41.0266504,14.5507651 L37.3342518,16.4390323 L37.3342518,16.4390323 Z" id="Path-52-decoration-1" stroke="#979797" fill="#9B9B9B"></path>
                            <path d="M76.3095697,16.6611814 L76.3095697,1.44396905" id="Path-52" stroke="#979797" fill="#9B9B9B"></path>
                            <path d="M76.7198362,16.4390323 L73.0274376,14.5507651 L80.4122347,14.5507651 L76.7198362,16.4390323 L76.7198362,16.4390323 Z" id="Path-52-decoration-1" stroke="#979797" fill="#9B9B9B"></path>
                            <path d="M115.695154,16.6611814 L115.695154,1.44396905" id="Path-52" stroke="#979797" fill="#9B9B9B"></path>
                            <path d="M114.464355,16.4390323 L110.771956,14.5507651 L118.156753,14.5507651 L114.464355,16.4390323 L114.464355,16.4390323 Z" id="Path-52-decoration-1" stroke="#979797" fill="#9B9B9B"></path>
                            <path d="M155.080738,16.6611814 L155.080738,1.44396905" id="Path-52" stroke="#979797" fill="#9B9B9B"></path>
                            <path d="M154.670472,16.4390323 L150.978073,14.5507651 L158.36287,14.5507651 L154.670472,16.4390323 L154.670472,16.4390323 Z" id="Path-52-decoration-1" stroke="#979797" fill="#9B9B9B"></path>
                            <path d="M174.773531,3.34328525 L174.773531,9.33026156 L191.184191,9.33026156 L191.184191,3.33223627" id="Path-56" stroke="#979797"></path>
                            <path id="Path-57" stroke="#979797" d="M174.773531,3.33223627 L191.184191,3.33223627"></path>
                            <path d="M183.799394,3.22116173 L183.799394,1.75325161 L191.184191,1.75325161 L191.184191,0.999670881" id="Path-58" stroke="#979797"></path>
                            <path d="M183.799394,1.77719267 L174.773531,1.77719267 L174.773531,0.999670881" id="Path-59" stroke="#979797"></path>
                            <path d="M183.799394,9.66348519 L183.799394,12.9957214" id="Path-60" stroke="#979797"></path>
                            <path d="M226.46711,0 L226.46711,16.4390323" id="Path-61" stroke="#9B9B9B" fill="#9B9B9B"></path>
                            <path d="M226.877377,16.4390323 L230.569775,14.5507651 L223.184978,14.5507651 L226.877377,16.4390323 L226.877377,16.4390323 Z" id="Path-61-decoration-1" stroke="#9B9B9B" fill="#9B9B9B"></path>
                            <path d="M238.775105,1.22181997 L238.775105,16.6611814" id="Path-62" stroke="#9B9B9B" fill="#9B9B9B"></path>
                            <path d="M237.544306,16.4390323 L241.236704,14.5507651 L233.851907,14.5507651 L237.544306,16.4390323 L237.544306,16.4390323 Z" id="Path-62-decoration-1" stroke="#9B9B9B" fill="#9B9B9B"></path>
                            <path id="Path-63" stroke="#979797" d="M192.825257,6.33124892 L237.134039,6.33124892"></path>
                            <path id="Path-64" stroke="#979797" d="M174.773531,7.99736705 L226.46711,7.99736705"></path>
                            <path d="M342.162264,1.03594399 L342.162264,8.80133692 L297.853482,8.80133692 L297.853482,0.999670881 L297.853482,16.4390323" id="Path-65" stroke="#979797"></path>
                            <path d="M310.161477,0.999670881 L310.161477,16.4390323" id="Path-66" stroke="#979797" fill="#9B9B9B"></path>
                            <path d="M310.571743,16.3279577 L314.264142,14.4396905 L306.879345,14.4396905 L310.571743,16.3279577 L310.571743,16.3279577 Z" id="Path-66-decoration-1" stroke="#979797" fill="#9B9B9B"></path>
                            <path d="M342.162264,2.44363993 L327.78245,2.44363993 L327.78245,6.99769616 L310.161477,6.99769616" id="Path-67" stroke="#979797"></path>
                            <path d="M398.779042,16.1361336 L398.779042,10.947545 L472.293325,10.947545 L472.293325,9.21918701 L478.180844,9.21918701 L478.180844,10.9209469 L491.499271,10.9209469 L491.499271,16.2168832" id="Path-68" stroke="#979797"></path>
                            <path d="M490.268472,16.4390323 L493.96087,14.5507651 L486.576073,14.5507651 L490.268472,16.4390323 L490.268472,16.4390323 Z" id="Path-68-decoration-1" stroke="#979797" fill="#9B9B9B"></path>
                        </g>
                        <g id="Path-88-+-Group" transform="translate(836.943667, 80.445060)" sketch:type="MSShapeGroup">
                            <path d="M120.618352,12.5297502 L283.904421,12.5297502 L283.904421,0" id="Path-88" stroke="#979797"></path>
                            <g id="Group" transform="translate(133.746880, 0.000000)">
                                <g id="Path-90-+-Oval-1-+-Rectangle-1">
                                    <ellipse id="Oval-1" fill="#D0011B" cx="0.318633376" cy="0.395082214" rx="0.318633376" ry="0.395082214"></ellipse>
                                    <rect id="Rectangle-1" fill="#000000" x="0" y="0" width="2.00283837" height="0.45152253"></rect>
                                    <path d="M16.8594732,2.25761265 L14.8222877,2.25761265 L14.8222877,1.42295358 L0,1.42295358 L0,0.45152253 L16.9330879,0.45152253" id="Path-89" stroke="#979797"></path>
                                </g>
                                <g id="Path-90-+-Oval-1-+-Rectangle-1">
                                    <ellipse id="Oval-1" fill="#D0011B" cx="0.318633376" cy="0.395082214" rx="0.318633376" ry="0.395082214"></ellipse>
                                    <rect id="Rectangle-1" fill="#000000" x="0" y="0" width="2.00283837" height="0.45152253"></rect>
                                    <path d="M16.8594732,2.25761265 L14.8222877,2.25761265 L14.8222877,1.42295358 L0,1.42295358 L0,0.45152253 L16.9330879,0.45152253" id="Path-89" stroke="#979797"></path>
                                </g>
                                <g id="Path-90-+-Oval-1-+-Rectangle-1">
                                    <ellipse id="Oval-1" fill="#D0011B" cx="0.318633376" cy="0.395082214" rx="0.318633376" ry="0.395082214"></ellipse>
                                    <rect id="Rectangle-1" fill="#000000" x="0" y="0" width="2.00283837" height="0.45152253"></rect>
                                    <path d="M16.8594732,2.25761265 L14.8222877,2.25761265 L14.8222877,1.42295358 L0,1.42295358 L0,0.45152253 L16.9330879,0.45152253" id="Path-89" stroke="#979797"></path>
                                </g>
                                <g id="Path-90-+-Oval-1-+-Rectangle-1">
                                    <ellipse id="Oval-1" fill="#D0011B" cx="0.318633376" cy="0.395082214" rx="0.318633376" ry="0.395082214"></ellipse>
                                    <rect id="Rectangle-1" fill="#000000" x="0" y="0" width="2.00283837" height="0.45152253"></rect>
                                    <path d="M16.8594732,2.25761265 L14.8222877,2.25761265 L14.8222877,1.42295358 L0,1.42295358 L0,0.45152253 L16.9330879,0.45152253" id="Path-89" stroke="#979797"></path>
                                </g>
                            </g>
                            <path d="M0,17.1578562 L0,5.86979289 L0,17.1578562 L0,17.1578562 Z M124.721017,12.7555115 L114.054088,12.7555115 L124.721017,12.7555115 L124.721017,12.7555115 Z" id="Path-87" stroke="#979797"></path>
                        </g>
                        <g id="Path-88-+-Group" transform="translate(1216.724284, 125.945060) scale(-1, 1) translate(-1216.724284, -125.945060) translate(1133.724284, 80.445060)" sketch:type="MSShapeGroup">
                            <path d="M0,9.12165815 L165.747667,9.12165815 L165.747667,0" id="Path-88" stroke="#979797"></path>
                            <g id="Group" transform="translate(10.666929, 0.000000)">
                                <g id="Path-90-+-Oval-1-+-Rectangle-1">
                                    <ellipse id="Oval-1" fill="#D0011B" cx="2.87186553" cy="0.287619852" rx="2.87186553" ry="0.287619852"></ellipse>
                                    <rect id="Rectangle-1" fill="#000000" x="0" y="0" width="18.0517262" height="0.328708402"></rect>
                                    <path d="M154.406542,1.64354201 L135.749093,1.64354201 L135.749093,1.0359102 L0,1.0359102 L0,0.328708402 L155.080738,0.328708402" id="Path-89" stroke="#979797"></path>
                                </g>
                                <g id="Path-90-+-Oval-1-+-Rectangle-1">
                                    <ellipse id="Oval-1" fill="#D0011B" cx="2.87186553" cy="0.287619852" rx="2.87186553" ry="0.287619852"></ellipse>
                                    <rect id="Rectangle-1" fill="#000000" x="0" y="0" width="18.0517262" height="0.328708402"></rect>
                                    <path d="M154.406542,1.64354201 L135.749093,1.64354201 L135.749093,1.0359102 L0,1.0359102 L0,0.328708402 L155.080738,0.328708402" id="Path-89" stroke="#979797"></path>
                                </g>
                                <g id="Path-90-+-Oval-1-+-Rectangle-1">
                                    <ellipse id="Oval-1" fill="#D0011B" cx="2.87186553" cy="0.287619852" rx="2.87186553" ry="0.287619852"></ellipse>
                                    <rect id="Rectangle-1" fill="#000000" x="0" y="0" width="18.0517262" height="0.328708402"></rect>
                                    <path d="M154.406542,1.64354201 L135.749093,1.64354201 L135.749093,1.0359102 L0,1.0359102 L0,0.328708402 L155.080738,0.328708402" id="Path-89" stroke="#979797"></path>
                                </g>
                                <g id="Path-90-+-Oval-1-+-Rectangle-1">
                                    <ellipse id="Oval-1" fill="#D0011B" cx="2.87186553" cy="0.287619852" rx="2.87186553" ry="0.287619852"></ellipse>
                                    <rect id="Rectangle-1" fill="#000000" x="0" y="0" width="18.0517262" height="0.328708402"></rect>
                                    <path d="M154.406542,1.64354201 L135.749093,1.64354201 L135.749093,1.0359102 L0,1.0359102 L0,0.328708402 L155.080738,0.328708402" id="Path-89" stroke="#979797"></path>
                                </g>
                            </g>
                        </g>
                        <path d="M922.2791,192.877383 L922.2791,224.917821 L1079.98715,224.917821 L1079.98715,206.430646 L1184.02913,206.430646 L1184.02913,173.203139" id="Path-99" stroke="#979797" sketch:type="MSShapeGroup"></path>
                        <g id="Path-88-+-Group" transform="translate(689.341003, 666.430748) scale(-1, -1) translate(-689.341003, -666.430748) translate(545.841003, 603.930748)" sketch:type="MSShapeGroup">
                            <path d="M120.618352,91.1163435 L283.904421,91.1163435 L283.904421,0" id="Path-88" stroke="#979797"></path>
                            <g id="Group" transform="translate(133.746880, 7.387812)">
                                <g id="Path-90-+-Oval-1-+-Rectangle-1">
                                    <ellipse id="Oval-1" fill="#D0011B" cx="0.318633376" cy="2.87303786" rx="0.318633376" ry="2.87303786"></ellipse>
                                    <rect id="Rectangle-1" fill="#000000" x="0" y="0" width="2.00283837" height="3.28347184"></rect>
                                    <path d="M16.8594732,16.4173592 L14.8222877,16.4173592 L14.8222877,10.3477184 L0,10.3477184 L0,3.28347184 L16.9330879,3.28347184" id="Path-89" stroke="#979797"></path>
                                </g>
                                <g id="Path-90-+-Oval-1-+-Rectangle-1" transform="translate(0.000000, 21.342567)">
                                    <ellipse id="Oval-1" fill="#D0011B" cx="0.318633376" cy="0.0505705234" rx="0.318633376" ry="0.0505705234"></ellipse>
                                    <rect id="Rectangle-1" fill="#000000" x="0" y="0" width="2.00283837" height="0.0577948839"></rect>
                                    <path id="Path-89" stroke="#979797" d="M16.8594732,0.288974419 L14.8222877,0.288974419 L14.8222877,0.182138058 L0,0.182138058 L0,0.0577948839 L16.9330879,0.0577948839"></path>
                                </g>
                                <g id="Path-90-+-Oval-1-+-Rectangle-1" transform="translate(0.000000, 42.685134)">
                                    <ellipse id="Oval-1" fill="#D0011B" cx="0.318633376" cy="2.87303786" rx="0.318633376" ry="2.87303786"></ellipse>
                                    <rect id="Rectangle-1" fill="#000000" x="0" y="0" width="2.00283837" height="3.28347184"></rect>
                                    <path d="M16.8594732,16.4173592 L14.8222877,16.4173592 L14.8222877,10.3477184 L0,10.3477184 L0,3.28347184 L16.9330879,3.28347184" id="Path-89" stroke="#979797"></path>
                                </g>
                                <g id="Path-90-+-Oval-1-+-Rectangle-1" transform="translate(0.000000, 64.027701)">
                                    <ellipse id="Oval-1" fill="#D0011B" cx="0.318633376" cy="2.87303786" rx="0.318633376" ry="2.87303786"></ellipse>
                                    <rect id="Rectangle-1" fill="#000000" x="0" y="0" width="2.00283837" height="3.28347184"></rect>
                                    <path d="M16.8594732,16.4173592 L14.8222877,16.4173592 L14.8222877,10.3477184 L0,10.3477184 L0,3.28347184 L16.9330879,3.28347184" id="Path-89" stroke="#979797"></path>
                                </g>
                            </g>
                            <path d="M0,124.77193 L0,42.6851339 L0,124.77193 L0,124.77193 Z M124.721017,92.7580794 L114.054088,92.7580794 L124.721017,92.7580794 L124.721017,92.7580794 Z" id="Path-87" stroke="#979797"></path>
                        </g>
                        <g id="Path-88-+-Group" transform="translate(930.610597, 649.775162) scale(1, -1) translate(-930.610597, -649.775162) translate(847.610597, 604.275162)" sketch:type="MSShapeGroup">
                            <path d="M0,91.1163435 L165.747667,91.1163435 L165.747667,0" id="Path-88" stroke="#979797"></path>
                            <g id="Group" transform="translate(10.666929, 7.387812)">
                                <g id="Path-90-+-Oval-1-+-Rectangle-1">
                                    <ellipse id="Oval-1" fill="#D0011B" cx="2.87186553" cy="2.87303786" rx="2.87186553" ry="2.87303786"></ellipse>
                                    <rect id="Rectangle-1" fill="#000000" x="0" y="0" width="18.0517262" height="3.28347184"></rect>
                                    <path d="M154.406542,16.4173592 L135.749093,16.4173592 L135.749093,10.3477184 L0,10.3477184 L0,3.28347184 L155.080738,3.28347184" id="Path-89" stroke="#979797"></path>
                                </g>
                                <g id="Path-90-+-Oval-1-+-Rectangle-1" transform="translate(0.000000, 21.342567)">
                                    <ellipse id="Oval-1" fill="#D0011B" cx="2.87186553" cy="0.0505705234" rx="2.87186553" ry="0.0505705234"></ellipse>
                                    <rect id="Rectangle-1" fill="#000000" x="0" y="0" width="18.0517262" height="0.0577948839"></rect>
                                    <path id="Path-89" stroke="#979797" d="M154.406542,0.288974419 L135.749093,0.288974419 L135.749093,0.182138058 L0,0.182138058 L0,0.0577948839 L155.080738,0.0577948839"></path>
                                </g>
                                <g id="Path-90-+-Oval-1-+-Rectangle-1" transform="translate(0.000000, 42.685134)">
                                    <ellipse id="Oval-1" fill="#D0011B" cx="2.87186553" cy="2.87303786" rx="2.87186553" ry="2.87303786"></ellipse>
                                    <rect id="Rectangle-1" fill="#000000" x="0" y="0" width="18.0517262" height="3.28347184"></rect>
                                    <path d="M154.406542,16.4173592 L135.749093,16.4173592 L135.749093,10.3477184 L0,10.3477184 L0,3.28347184 L155.080738,3.28347184" id="Path-89" stroke="#979797"></path>
                                </g>
                                <g id="Path-90-+-Oval-1-+-Rectangle-1" transform="translate(0.000000, 64.027701)">
                                    <ellipse id="Oval-1" fill="#D0011B" cx="2.87186553" cy="2.87303786" rx="2.87186553" ry="2.87303786"></ellipse>
                                    <rect id="Rectangle-1" fill="#000000" x="0" y="0" width="18.0517262" height="3.28347184"></rect>
                                    <path d="M154.406542,16.4173592 L135.749093,16.4173592 L135.749093,10.3477184 L0,10.3477184 L0,3.28347184 L155.080738,3.28347184" id="Path-89" stroke="#979797"></path>
                                </g>
                            </g>
                        </g>
                        <g id="Group" transform="translate(48.411447, 80.445060)" sketch:type="MSShapeGroup">
                            <path d="M521.858993,616.44525 L521.858993,648.485688 L679.567047,648.485688 L679.567047,629.998513 L783.609022,629.998513 L783.609022,596.771006" id="Path-99" stroke="#979797"></path>
                            <path d="M699.094122,110.817175 L699.094122,140.414102 L485.75554,140.414102 L485.75554,256.748489 L492.280306,256.748489 L492.280306,285.66205" id="Path-100" stroke="#979797"></path>
                            <path d="M485.75554,256.110803 L471.806479,256.110803 L471.806479,293.049861" id="Path-101" stroke="#979797"></path>
                            <path d="M710.581578,112.45891 L710.581584,151.895246 L511.192064,151.895246 L511.192064,259.902654 L517.8405,259.902654 L517.8405,285.66205" id="Path-102" stroke="#979797"></path>
                            <path d="M516.525528,284.841182 L520.217927,270.886427 L512.83313,270.886427 L516.525528,284.841182 L516.525528,284.841182 Z" id="Path-102-decoration-1" stroke="#979797"></path>
                            <path d="M511.192064,258.573407 L505.448332,258.573407 L505.448332,284.841182" id="Path-103" stroke="#979797"></path>
                            <path d="M649.862142,174.844875 L649.862142,250.312091 L610.476557,250.312091 L610.476557,284.841182" id="Path-104" stroke="#979797"></path>
                            <path d="M649.451875,176.486611 L653.144274,190.441367 C650.559595,190.441367 648.344156,190.441367 645.759477,190.441365 L649.451875,176.486611 L649.451875,176.486611 Z" id="Path-104-decoration-1" stroke="#979797" fill="#D8D8D8"></path>
                            <path d="M562.522838,174.844875 L562.522838,203.221578 L590.783765,203.221578 L590.783765,223.202852 L560.162805,223.202852 L560.162805,212.522227 L548.116049,212.522227 L548.116049,233.104459 L583.812774,233.104459 L583.812774,252.939242 L560.366252,252.939242 L560.366252,285.66205" id="Path-105" stroke="#979797"></path>
                            <path d="M560.83431,174.844875 L564.526709,188.799631 C561.94203,188.799631 559.726591,188.799629 557.141912,188.799629 L560.83431,174.844875 L560.83431,174.844875 Z" id="Path-105-decoration-1" stroke="#979797" fill="#D8D8D8"></path>
                            <path d="M590.991467,202.754386 L621.143486,202.754386 L621.143486,222.455217 L590.783765,222.455217" id="Path-106" stroke="#979797"></path>
                            <path d="M621.143486,210.963066 L648.221076,210.963066" id="Path-107" stroke="#979797"></path>
                            <path d="M455.395819,409.308873 L590.833828,409.308873 L590.833828,229.843029 L1295.62162,229.843029 L1295.62162,697.763896 L1204.59201,697.763896 L1204.59201,712.513389" id="Path-108" stroke="#979797"></path>
                            <path d="M455.395819,410.023546 C460.27799,408.730679 464.462709,407.622507 469.34488,406.32964 L469.34488,413.717452 L455.395819,410.023546 L455.395819,410.023546 Z" id="Path-108-decoration-1" stroke="#979797"></path>
                            <path d="M455.395819,466.663435 C460.27799,465.370568 464.462709,464.262396 469.34488,462.969529 L469.34488,470.357341 L455.395819,466.663435 L455.395819,466.663435 Z" id="Path-108-decoration-1" stroke="#979797"></path>
                            <path d="M455.395819,442.037396 C460.27799,440.744529 464.462709,439.636357 469.34488,438.34349 L469.34488,445.731302 L455.395819,442.037396 L455.395819,442.037396 Z" id="Path-108-decoration-1" stroke="#979797"></path>
                            <path d="M452.113687,423.557097 L601.057679,423.557097 L601.057679,243.797784 L1306.28855,243.797784 L1306.28855,712.483812 L1215.20171,712.483812 L1215.20171,727.257424 L1170.89657,727.257424 L1170.89657,783.108033 L1222.97271,783.108033" id="Path-108" stroke="#979797"></path>
                            <path d="M453.754753,423.978301 C458.636924,422.685434 462.821643,421.577262 467.703814,420.284395 L467.703814,427.672207 L453.754753,423.978301 L453.754753,423.978301 Z" id="Path-108-decoration-1" stroke="#979797"></path>
                            <path d="M1222.59418,781.876731 L1208.64512,778.182825 L1208.64512,785.570637 C1213.52729,784.27777 1217.71201,783.169598 1222.59418,781.876731 L1222.59418,781.876731 L1222.59418,781.876731 Z" id="Path-108-decoration-2" stroke="#979797"></path>
                            <path d="M1340.75093,763.990481 L1236.24456,763.990481 L1236.24456,664.082179 L1161.05421,664.082179 L1161.05421,808.55494 L1217.31518,808.55494 L1217.31518,746.270651 L1269.03271,746.270651 L1269.03271,726.463324" id="Path-112" stroke="#979797"></path>
                            <path d="M1271.41589,726.468144 L1267.7235,740.422899 L1275.10829,740.422899 L1271.41589,726.468144 L1271.41589,726.468144 Z" id="Path-112-decoration-1" stroke="#979797"></path>
                            <path d="M1207.82459,709.229917 L1160.23367,709.229917" id="Path-113" stroke="#979797"></path>
                            <path d="M1160.23367,714.155125 L1160.23367,706.767313" id="Path-113-decoration-1" stroke="#979797"></path>
                            <ellipse id="Oval-41" fill="#D0011B" cx="2.87186553" cy="2.87303786" rx="2.87186553" ry="2.87303786"></ellipse>
                            <ellipse id="Oval-41" fill="#D0011B" cx="2.87186553" cy="2.87303786" rx="2.87186553" ry="2.87303786"></ellipse>
                            <ellipse id="Oval-41" fill="#D0011B" cx="2.87186553" cy="2.87303786" rx="2.87186553" ry="2.87303786"></ellipse>
                            <rect id="Rectangle-9" fill="#303BA3" x="0" y="0" width="5.74373105" height="5.74607572"></rect>
                            <rect id="Rectangle-9" fill="#303BA3" x="0" y="0" width="5.74373105" height="5.74607572"></rect>
                        </g>
                        <g id="Group" transform="translate(277.141066, 442.512927) scale(1, -1) translate(-277.141066, -442.512927) translate(1.641066, 381.012927)" sketch:type="MSShapeGroup">
                            <path d="M0,10.6712835 L0,123.130194 L550.577648,123.130194 L550.577648,13.8463689" id="Path-51" stroke="#979797"></path>
                            <path d="M39.3855843,123.130194 L39.3855843,10.6712835" id="Path-52" stroke="#979797" fill="#9B9B9B"></path>
                            <path d="M37.3342518,121.488458 L33.6418533,107.533703 L41.0266504,107.533703 L37.3342518,121.488458 L37.3342518,121.488458 Z" id="Path-52-decoration-1" stroke="#979797" fill="#9B9B9B"></path>
                            <path d="M76.3095697,123.130194 L76.3095697,10.6712835" id="Path-52" stroke="#979797" fill="#9B9B9B"></path>
                            <path d="M76.7198362,121.488458 L73.0274376,107.533703 L80.4122347,107.533703 L76.7198362,121.488458 L76.7198362,121.488458 Z" id="Path-52-decoration-1" stroke="#979797" fill="#9B9B9B"></path>
                            <path d="M115.695154,123.130194 L115.695154,10.6712835" id="Path-52" stroke="#979797" fill="#9B9B9B"></path>
                            <path d="M114.464355,121.488458 L110.771956,107.533703 L118.156753,107.533703 L114.464355,121.488458 L114.464355,121.488458 Z" id="Path-52-decoration-1" stroke="#979797" fill="#9B9B9B"></path>
                            <path d="M155.080738,123.130194 L155.080738,10.6712835" id="Path-52" stroke="#979797" fill="#9B9B9B"></path>
                            <path d="M154.670472,121.488458 L150.978073,107.533703 L158.36287,107.533703 L154.670472,121.488458 L154.670472,121.488458 Z" id="Path-52-decoration-1" stroke="#979797" fill="#9B9B9B"></path>
                            <path d="M174.773531,24.7076934 L174.773531,68.9529086 L191.184191,68.9529086 L191.184191,24.6260388" id="Path-56" stroke="#979797"></path>
                            <path d="M174.773531,24.6260388 L191.184191,24.6260388" id="Path-57" stroke="#979797"></path>
                            <path d="M183.799394,23.8051708 L183.799394,12.956957 L191.184191,12.956957 L191.184191,7.38781163" id="Path-58" stroke="#979797"></path>
                            <path d="M183.799394,13.1338873 L174.773531,13.1338873 L174.773531,7.38781163" id="Path-59" stroke="#979797"></path>
                            <path d="M183.799394,71.4155125 L183.799394,96.0415512" id="Path-60" stroke="#979797"></path>
                            <path d="M226.46711,0 L226.46711,121.488458" id="Path-61" stroke="#9B9B9B" fill="#9B9B9B"></path>
                            <path d="M226.877377,121.488458 L230.569775,107.533703 L223.184978,107.533703 L226.877377,121.488458 L226.877377,121.488458 Z" id="Path-61-decoration-1" stroke="#9B9B9B" fill="#9B9B9B"></path>
                            <path d="M238.775105,9.02954755 L238.775105,123.130194" id="Path-62" stroke="#9B9B9B" fill="#9B9B9B"></path>
                            <path d="M237.544306,121.488458 L241.236704,107.533703 L233.851907,107.533703 L237.544306,121.488458 L237.544306,121.488458 Z" id="Path-62-decoration-1" stroke="#9B9B9B" fill="#9B9B9B"></path>
                            <path d="M192.825257,46.7894737 L237.134039,46.7894737" id="Path-63" stroke="#979797"></path>
                            <path d="M174.773531,59.1024931 L226.46711,59.1024931" id="Path-64" stroke="#979797"></path>
                            <path d="M342.162264,7.65587874 L342.162264,65.0440265 L297.853482,65.0440265 L297.853482,7.38781163 L297.853482,121.488458" id="Path-65" stroke="#979797"></path>
                            <path d="M310.161477,7.38781163 L310.161477,121.488458" id="Path-66" stroke="#979797" fill="#9B9B9B"></path>
                            <path d="M310.571743,120.66759 L314.264142,106.712835 L306.879345,106.712835 L310.571743,120.66759 L310.571743,120.66759 Z" id="Path-66-decoration-1" stroke="#979797" fill="#9B9B9B"></path>
                            <path d="M342.162264,18.0590951 L327.78245,18.0590951 L327.78245,51.7146814 L310.161477,51.7146814" id="Path-67" stroke="#979797"></path>
                            <path d="M398.779042,119.249963 L398.779042,80.9050275 L472.293325,80.9050275 L472.293325,68.1320406 L478.180844,68.1320406 L478.180844,80.7084616 L491.499271,80.7084616 L491.499271,119.846722" id="Path-68" stroke="#979797"></path>
                            <path d="M490.268472,121.488458 L493.96087,107.533703 L486.576073,107.533703 L490.268472,121.488458 L490.268472,121.488458 Z" id="Path-68-decoration-1" stroke="#979797" fill="#9B9B9B"></path>
                        </g>
                        <g id="Group" transform="translate(289.026709, 371.918283) scale(-1, -1) translate(-289.026709, -371.918283) translate(13.526709, 310.418283)" sketch:type="MSShapeGroup">
                            <path d="M0,10.6712835 L0,123.130194 L550.577648,123.130194 L550.577648,13.8463689" id="Path-51" stroke="#979797"></path>
                            <path d="M39.3855843,123.130194 L39.3855843,10.6712835" id="Path-52" stroke="#979797" fill="#9B9B9B"></path>
                            <path d="M37.3342518,121.488458 L33.6418533,107.533703 L41.0266504,107.533703 L37.3342518,121.488458 L37.3342518,121.488458 Z" id="Path-52-decoration-1" stroke="#979797" fill="#9B9B9B"></path>
                            <path d="M76.3095697,123.130194 L76.3095697,10.6712835" id="Path-52" stroke="#979797" fill="#9B9B9B"></path>
                            <path d="M76.7198362,121.488458 L73.0274376,107.533703 L80.4122347,107.533703 L76.7198362,121.488458 L76.7198362,121.488458 Z" id="Path-52-decoration-1" stroke="#979797" fill="#9B9B9B"></path>
                            <path d="M115.695154,123.130194 L115.695154,10.6712835" id="Path-52" stroke="#979797" fill="#9B9B9B"></path>
                            <path d="M114.464355,121.488458 L110.771956,107.533703 L118.156753,107.533703 L114.464355,121.488458 L114.464355,121.488458 Z" id="Path-52-decoration-1" stroke="#979797" fill="#9B9B9B"></path>
                            <path d="M155.080738,123.130194 L155.080738,10.6712835" id="Path-52" stroke="#979797" fill="#9B9B9B"></path>
                            <path d="M154.670472,121.488458 L150.978073,107.533703 L158.36287,107.533703 L154.670472,121.488458 L154.670472,121.488458 Z" id="Path-52-decoration-1" stroke="#979797" fill="#9B9B9B"></path>
                            <path d="M174.773531,24.7076934 L174.773531,68.9529086 L191.184191,68.9529086 L191.184191,24.6260388" id="Path-56" stroke="#979797"></path>
                            <path d="M174.773531,24.6260388 L191.184191,24.6260388" id="Path-57" stroke="#979797"></path>
                            <path d="M183.799394,23.8051708 L183.799394,12.956957 L191.184191,12.956957 L191.184191,7.38781163" id="Path-58" stroke="#979797"></path>
                            <path d="M183.799394,13.1338873 L174.773531,13.1338873 L174.773531,7.38781163" id="Path-59" stroke="#979797"></path>
                            <path d="M183.799394,71.4155125 L183.799394,96.0415512" id="Path-60" stroke="#979797"></path>
                            <path d="M226.46711,0 L226.46711,121.488458" id="Path-61" stroke="#9B9B9B" fill="#9B9B9B"></path>
                            <path d="M226.877377,121.488458 L230.569775,107.533703 L223.184978,107.533703 L226.877377,121.488458 L226.877377,121.488458 Z" id="Path-61-decoration-1" stroke="#9B9B9B" fill="#9B9B9B"></path>
                            <path d="M238.775105,9.02954755 L238.775105,123.130194" id="Path-62" stroke="#9B9B9B" fill="#9B9B9B"></path>
                            <path d="M237.544306,121.488458 L241.236704,107.533703 L233.851907,107.533703 L237.544306,121.488458 L237.544306,121.488458 Z" id="Path-62-decoration-1" stroke="#9B9B9B" fill="#9B9B9B"></path>
                            <path d="M192.825257,46.7894737 L237.134039,46.7894737" id="Path-63" stroke="#979797"></path>
                            <path d="M174.773531,59.1024931 L226.46711,59.1024931" id="Path-64" stroke="#979797"></path>
                            <path d="M342.162264,7.65587874 L342.162264,65.0440265 L297.853482,65.0440265 L297.853482,7.38781163 L297.853482,121.488458" id="Path-65" stroke="#979797"></path>
                            <path d="M310.161477,7.38781163 L310.161477,121.488458" id="Path-66" stroke="#979797" fill="#9B9B9B"></path>
                            <path d="M310.571743,120.66759 L314.264142,106.712835 L306.879345,106.712835 L310.571743,120.66759 L310.571743,120.66759 Z" id="Path-66-decoration-1" stroke="#979797" fill="#9B9B9B"></path>
                            <path d="M342.162264,18.0590951 L327.78245,18.0590951 L327.78245,51.7146814 L310.161477,51.7146814" id="Path-67" stroke="#979797"></path>
                            <path d="M398.779042,119.249963 L398.779042,80.9050275 L472.293325,80.9050275 L472.293325,68.1320406 L478.180844,68.1320406 L478.180844,80.7084616 L491.499271,80.7084616 L491.499271,119.846722" id="Path-68" stroke="#979797"></path>
                            <path d="M490.268472,121.488458 L493.96087,107.533703 L486.576073,107.533703 L490.268472,121.488458 L490.268472,121.488458 Z" id="Path-68-decoration-1" stroke="#979797" fill="#9B9B9B"></path>
                        </g>
                        <path d="M567.808841,421.926131 L527.620007,421.926131 L527.620007,448.193906 L376.816892,448.193906 L376.816892,424.664955 L327.39267,424.664955" id="Path-199" stroke="#979797" sketch:type="MSShapeGroup"></path>
                        <path d="M0,493.341644 L343.80333,493.341644" id="Path-200" stroke="#979797" sketch:type="MSShapeGroup"></path>
                        <g id="screen1" transform="translate(440.897706, 212.774225)">
                            <g id="Group">
                                <g id="Page-1">
                                    <g id="Slice-1">
                                        <g id="Page-1">
                                            <g id="screen1">
                                                <g id="Page-1">
                                                    <g id="T3">
                                                        <g id="logistics_step_bag_entery" transform="translate(267.810911, 41.487403)">
                                                            <path d="M6.88447705,12.7829457 C3.08228537,12.7829457 0,15.8721929 0,19.6736486 L0,23.9823592 C0,27.7879893 3.09009782,30.873062 6.88447705,30.873062 L116.256874,30.873062 C120.059066,30.873062 123.141352,27.7838148 123.141352,23.9823592 L123.141352,19.6736486 C123.141352,15.8680185 120.051254,12.7829457 116.256874,12.7829457 L6.88447705,12.7829457 L6.88447705,12.7829457 Z" id="Rectangle-3" fill="#D8D8D8" sketch:type="MSShapeGroup"></path>
                                                            <g id="Bag-entery" transform="translate(41.764724, 0.242981)" font-size="4.53939203" font-family="Lucida Grande" fill="#000000" sketch:type="MSTextLayer" font-weight="bold">
                                                                <g id="Group">
                                                                    <text id="Bag-entery">
                                                                        <tspan x="-0.170867495" y="4">Bag entery</tspan>
                                                                    </text>
                                                                </g>
                                                            </g>
                                                        </g>
                                                        <g id="logistics_step_re_entry" transform="translate(464.578735, 42.348837)">
                                                            <path d="M0.614061405,11.9215116 C0.274924656,11.9215116 0,15.0107588 0,18.8122145 L0,23.1209251 C0,26.9265552 0.275621488,30.0116279 0.614061405,30.0116279 L10.3695399,30.0116279 C10.7086767,30.0116279 10.9836014,26.9223807 10.9836014,23.1209251 L10.9836014,18.8122145 C10.9836014,15.0065844 10.7079799,11.9215116 10.3695399,11.9215116 L0.614061405,11.9215116 L0.614061405,11.9215116 Z" id="Rectangle-3" fill="#D8D8D8" sketch:type="MSShapeGroup"></path>
                                                            <g id="Re-entery" transform="translate(0.000000, 0.242981)" font-size="4.53939203" font-family="Lucida Grande" fill="#000000" sketch:type="MSTextLayer" font-weight="bold">
                                                                <g id="Group">
                                                                    <text id="Re-entery">
                                                                        <tspan x="0.00512775957" y="4.27988449">R</tspan>
                                                                        <tspan x="0.00512775957" y="9.27988449">e</tspan>
                                                                        <tspan x="0.00512775957" y="14.2798845">-</tspan>
                                                                        <tspan x="0.00512775957" y="19.2798845">e</tspan>
                                                                        <tspan x="0.00512775957" y="24.2798845">n</tspan>
                                                                        <tspan x="0.00512775957" y="29.2798845">t</tspan>
                                                                        <tspan x="0.00512775957" y="34.2798845">e</tspan>
                                                                        <tspan x="0.00512775957" y="39.2798845">r</tspan>
                                                                        <tspan x="0.00512775957" y="44.2798845">y</tspan>
                                                                    </text>
                                                                </g>
                                                            </g>
                                                        </g>
                                                        <path d="M0,0 L0,464.312984 L659.624303,464.312984 L659.624303,0 L0,0 L0,0 Z" id="Terminal-#1" stroke="#979797" stroke-dasharray="4" sketch:type="MSShapeGroup"></path>
                                                        <path d="M536.705312,158.766345 L536.705312,167.145276 L536.705312,175.52393 L536.705312,265.331801" id="Path-67" stroke="#979797" fill="#D8D8D8" sketch:type="MSShapeGroup"></path>
                                                        <path d="M536.705312,159.455492 L539.288697,168.75898 C537.480328,168.75898 535.930297,168.758979 534.121927,168.758979 L536.705312,159.455492 L536.705312,159.455492 Z" id="Path-67-decoration-1" stroke="#979797" fill="#D8D8D8" sketch:type="MSShapeGroup"></path>
                                                        <path d="M328.951023,158.766345 L328.951023,167.145276 L328.951023,175.52393 L328.951023,191.178787" id="Path-67" stroke="#979797" fill="#D8D8D8" sketch:type="MSShapeGroup"></path>
                                                        <path d="M328.951023,159.455492 L331.534408,168.75898 C329.726038,168.75898 328.176007,168.758979 326.367638,168.758979 L328.951023,159.455492 L328.951023,159.455492 Z" id="Path-67-decoration-1" stroke="#979797" fill="#D8D8D8" sketch:type="MSShapeGroup"></path>
                                                        <path d="M570.087139,88.2787484 L570.087139,102.493752 L623.518975,102.493752 L623.518975,181.01363 L537.566441,181.01363" id="Path-68" stroke="#979797" sketch:type="MSShapeGroup"></path>
                                                        <g id="Path-65-+-0-+-0" transform="translate(328.089895, 78.390504)">
                                                            <path d="M2.54638339,-0.141329033 L2.54638339,34.1334607" id="Path-65" stroke="#D8D8D8" fill="#D8D8D8" sketch:type="MSShapeGroup"></path>
                                                            <path d="M2.54638339,33.4545996 L5.12976839,24.1511118 L-0.037001608,24.1511115 L2.54638339,33.4545996 L2.54638339,33.4545996 Z" id="Path-65-decoration-1" stroke="#D8D8D8" fill="#D8D8D8" sketch:type="MSShapeGroup"></path>
                                                            <path d="M2.54638339,0.547818221 L5.12976839,9.85130628 L-0.037001608,9.85130602 L2.54638339,0.547818221 L2.54638339,0.547818221 Z" id="Path-65-decoration-2" stroke="#D8D8D8" fill="#D8D8D8" sketch:type="MSShapeGroup"></path>
                                                            <g id="process_down" transform="translate(11.194668, 6.168605)" font-size="12" font-family="Lucida Grande" fill="#000000" sketch:type="MSTextLayer" font-weight="normal">
                                                                <g id="0">
                                                                    <text>
                                                                        <tspan x="0" y="12.0055006">0</tspan>
                                                                    </text>
                                                                </g>
                                                            </g>
                                                            <g id="process_up" transform="translate(11.194668, 27.704457)" font-size="12" font-family="Lucida Grande" fill="#000000" sketch:type="MSTextLayer" font-weight="normal">
                                                                <g id="0">
                                                                    <text>
                                                                        <tspan x="0" y="12.0055006">0</tspan>
                                                                    </text>
                                                                </g>
                                                            </g>
                                                        </g>
                                                        <g id="Path-65-+-0-+-0" transform="translate(527.010539, 79.251938)">
                                                            <path d="M2.54638339,-0.141329033 L2.54638339,34.1334607" id="Path-65" stroke="#D8D8D8" fill="#D8D8D8" sketch:type="MSShapeGroup"></path>
                                                            <path d="M2.54638339,33.4545996 L5.12976839,24.1511118 L-0.037001608,24.1511115 L2.54638339,33.4545996 L2.54638339,33.4545996 Z" id="Path-65-decoration-1" stroke="#D8D8D8" fill="#D8D8D8" sketch:type="MSShapeGroup"></path>
                                                            <path d="M2.54638339,0.547818221 L5.12976839,9.85130628 L-0.037001608,9.85130602 L2.54638339,0.547818221 L2.54638339,0.547818221 Z" id="Path-65-decoration-2" stroke="#D8D8D8" fill="#D8D8D8" sketch:type="MSShapeGroup"></path>
                                                            <g id="process_down" transform="translate(11.194668, 6.168605)" font-size="12" font-family="Lucida Grande" fill="#000000" sketch:type="MSTextLayer" font-weight="normal">
                                                                <g id="0">
                                                                    <text>
                                                                        <tspan x="0" y="12.0055006">0</tspan>
                                                                    </text>
                                                                </g>
                                                            </g>
                                                            <g id="process_up" transform="translate(11.194668, 27.704457)" font-size="12" font-family="Lucida Grande" fill="#000000" sketch:type="MSTextLayer" font-weight="normal">
                                                                <g id="0">
                                                                    <text>
                                                                        <tspan x="0" y="12.0055006">0</tspan>
                                                                    </text>
                                                                </g>
                                                            </g>
                                                        </g>
                                                        <g id="counter1" transform="translate(310.006200, 367.525194)" font-size="20.8851222" font-family="Lucida Grande" fill="#000000" sketch:type="MSTextLayer" font-weight="normal">
                                                            <g id="0">
                                                                <text>
                                                                    <tspan x="0" y="20">0</tspan>
                                                                </text>
                                                            </g>
                                                        </g>
                                                    </g>
                                                    <path d="M132.836125,158.503876 L132.836125,166.882809 L132.836125,175.261461 L132.836125,190.916318" id="Path-67" stroke="#979797" fill="#D8D8D8" sketch:type="MSShapeGroup"></path>
                                                    <path d="M132.836125,159.193023 L135.41951,168.496512 L130.25274,168.496512 L132.836125,159.193023 L132.836125,159.193023 Z" id="Path-67-decoration-1" stroke="#979797" fill="#D8D8D8" sketch:type="MSShapeGroup"></path>
                                                    <text id="0" fill="#000000" sketch:type="MSTextLayer" font-family="Lucida Grande" font-size="4.53939203" font-weight="normal">
                                                        <tspan x="138.641662" y="182.455426">0</tspan>
                                                    </text>
                                                    <text id="0" fill="#000000" sketch:type="MSTextLayer" font-family="Lucida Grande" font-size="4.53939203" font-weight="normal">
                                                        <tspan x="336.701178" y="182.455426">0</tspan>
                                                    </text>
                                                    <text id="0" fill="#000000" sketch:type="MSTextLayer" font-family="Lucida Grande" font-size="4.53939203" font-weight="normal">
                                                        <tspan x="130.030378" y="415.90407">0</tspan>
                                                    </text>
                                                </g>
                                            </g>
                                        </g>
                                    </g>
                                </g>
                            </g>
                        </g>
                        <path d="M505.922995,276.183851 L468.588372,276.183851 L468.588372,229.57215 L655.720394,229.57215 L655.720394,240.225002 L853.126371,240.225002 L1034.06986,240.225002 L1034.06986,297.196753 L1076.20759,297.196753 L1076.20759,417.964506 L1036.58014,417.964506 L1036.58014,589.412747 L772.397985,589.412747" id="follow4" stroke="#D4D4D4" stroke-dasharray="4" sketch:type="MSShapeGroup"></path>
                        <path d="M492.390489,354.143638 L457.905872,354.143638 L457.905872,634.108853 L582.771077,634.108853" id="follow3" stroke="#979797" sketch:type="MSShapeGroup"></path>
                    </g>
                </g>
            </g>
        </g>
        <path d="M144.601996,275.943501 L312.958199,275.943501 L312.958199,96.513107 L889.45345,96.513107 L1018.60727,96.513107 L1018.60727,564.341545 L927.46642,564.341545 L927.46642,579.088125" id="follow2" stroke="#979797" sketch:type="MSShapeGroup"></path>
        <path d="M144.601996,251.322326 L301.557126,251.322326 L301.557126,71.891932 L1007.93866,71.891932 L1007.93866,539.720371 L916.70321,539.720371 L916.70321,554.46695" id="follow" stroke="#979797" sketch:type="MSShapeGroup"></path>
        <path d="M51.482971,119.177947 L175.263824,119.177947 L175.263824,254.594407 L824.54679,254.594407 L824.54679,193.461499" id="follow5" stroke="#979797" sketch:type="MSShapeGroup"></path>
    </g>
</svg>