<?xml version="1.0" encoding="UTF-8" standalone="no"?>
<svg width="1143px" height="601px" viewBox="0 0 1143 601" version="1.1" xmlns="http://www.w3.org/2000/svg" xmlns:xlink="http://www.w3.org/1999/xlink" xmlns:sketch="http://www.bohemiancoding.com/sketch/ns">
    <title>Slice 1</title>
    <description>Created with Sketch (http://www.bohemiancoding.com/sketch)</description>
    <defs></defs>
    <g id="Page 1" stroke="none" stroke-width="1" fill="none" fill-rule="evenodd">
        <g id="Slice 1" transform="translate(8.000000, 2.000000)">
            <g id="Page 1">
                <g id="screen1">
                    <g id="Page 1">
                        <g id="T3_departures">
                            <g id="T3 Departures buildi" transform="translate(0.000000, 0.852583)" fill="#000000">
                                <g id="T3 Departures building">
                                    <path d="M5.30273438,16.2811317 L5.30273438,3.36120981 L0.17578125,3.36120981 L0.17578125,1.82800669 L12.4804688,1.82800669 L12.4804688,3.36120981 L7.35351563,3.36120981 L7.35351563,16.2811317 Z M14.6777344,16.1737098 L14.6777344,14.3768348 C16.0579496,14.9237125 17.1451783,15.1971473 17.9394531,15.1971473 C18.8574265,15.1971473 19.6044893,14.9285953 20.1806641,14.3914832 C20.7568388,13.8543712 21.0449219,13.1593912 21.0449219,12.3065223 C21.0449219,10.2752622 19.6224101,9.25964731 16.7773438,9.25964731 L16.015625,9.25964731 L16.015625,7.96081919 L16.6894531,7.95105356 C19.3587373,7.95105356 20.6933594,7.01030776 20.6933594,5.12878794 C20.6933594,3.65091596 19.8144619,2.91199106 18.0566406,2.91199106 C17.0930941,2.91199106 16.0319068,3.18217065 14.8730469,3.72253794 L14.8730469,2.04285044 C16.0123755,1.65873393 17.1191353,1.46667856 18.1933594,1.46667856 C21.1491033,1.46667856 22.6269531,2.58320386 22.6269531,4.81628794 C22.6269531,6.51551518 21.6211038,7.72644057 19.609375,8.44910044 C21.9401158,8.98946772 23.1054688,10.2654966 23.1054688,12.2772254 C23.1054688,13.6379093 22.6562545,14.705607 21.7578125,15.4803504 C20.8593705,16.2550939 19.6256589,16.6424598 18.0566406,16.6424598 C17.1647091,16.6424598 16.0384183,16.4862114 14.6777344,16.1737098 Z M33.4863281,16.2811317 L33.4863281,1.82800669 L38.2910156,1.82800669 C39.7233145,1.82800669 40.8805294,1.9875103 41.7626953,2.30652231 C42.6448612,2.62553432 43.4081999,3.1658935 44.0527344,3.92761606 C45.0748749,5.13855962 45.5859375,6.73359575 45.5859375,8.71277231 C45.5859375,11.1151281 44.9511782,12.9770886 43.6816406,14.2987098 C42.412103,15.620331 40.6250115,16.2811317 38.3203125,16.2811317 Z M35.5371094,3.36120981 L35.5371094,14.7479286 L38.1640625,14.7479286 C40.0390719,14.7479286 41.3671836,14.2433763 42.1484375,13.2342567 C42.9882854,12.1600326 43.4082031,10.7179897 43.4082031,8.90808481 C43.4082031,7.20885757 42.9947958,5.8742355 42.1679688,4.90417856 C41.6666642,4.31172768 41.0677118,3.9064583 40.3710938,3.68835825 C39.6744757,3.4702582 38.6263091,3.36120981 37.2265625,3.36120981 Z M56.2988281,15.9393348 C55.0097592,16.3299618 53.9062546,16.5252723 52.9882812,16.5252723 C51.4257734,16.5252723 50.1513721,16.0060718 49.1650391,14.9676551 C48.178706,13.9292385 47.6855469,12.5832233 47.6855469,10.9295692 C47.6855469,9.32148823 48.1201128,8.00314204 48.9892578,6.97449106 C49.8584028,5.94584009 50.9700453,5.43152231 52.3242188,5.43152231 C53.6067772,5.43152231 54.5979783,5.88724692 55.2978516,6.79870981 C55.9977249,7.7101727 56.3476562,9.00573266 56.3476562,10.6854286 L56.3378906,11.2811317 L49.6484375,11.2811317 C49.9283868,13.8006755 51.1620984,15.0604286 53.3496094,15.0604286 C54.1503946,15.0604286 55.1334577,14.845587 56.2988281,14.4158973 Z M49.7363281,9.83581919 L54.4140625,9.83581919 C54.4140625,7.86315307 53.6783928,6.87683481 52.2070312,6.87683481 C50.7291593,6.87683481 49.9055998,7.86315307 49.7363281,9.83581919 Z M59.6679688,20.1385536 L59.6679688,5.67566294 L61.5917969,5.67566294 L61.5917969,7.66785044 C62.3795612,6.18346802 63.56119,5.44128794 65.1367188,5.44128794 C66.4127668,5.44128794 67.4169885,5.90677807 68.1494141,6.83777231 C68.8818396,7.76876655 69.2480469,9.04154028 69.2480469,10.6561317 C69.2480469,12.413953 68.833012,13.831582 68.0029297,14.9090614 C67.1728474,15.9865407 66.0807359,16.5252723 64.7265625,16.5252723 C63.4700458,16.5252723 62.4251344,16.0435063 61.5917969,15.0799598 L61.5917969,20.1385536 Z M61.5917969,13.7518348 C62.5813852,14.6372559 63.5253861,15.0799598 64.4238281,15.0799598 C66.2727957,15.0799598 67.1972656,13.6704687 67.1972656,10.8514442 C67.1972656,8.36445259 66.3769613,7.12097544 64.7363281,7.12097544 C63.662104,7.12097544 62.6139374,7.7036519 61.5917969,8.86902231 Z M77.7246094,14.9334754 C76.5722599,15.9946787 75.4622449,16.5252723 74.3945312,16.5252723 C73.5156206,16.5252723 72.7864612,16.25021 72.2070312,15.700077 C71.6276013,15.149944 71.3378906,14.454964 71.3378906,13.6151161 C71.3378906,12.4562561 71.8245394,11.5659655 72.7978516,10.9442176 C73.7711637,10.3224697 75.1660065,10.0116004 76.9824219,10.0116004 L77.4414062,10.0116004 L77.4414062,8.73230356 C77.4414062,7.50182866 76.8099021,6.88660044 75.546875,6.88660044 C74.5312449,6.88660044 73.4342507,7.19909731 72.2558594,7.82410044 L72.2558594,6.23230356 C73.5514388,5.70495718 74.7656193,5.44128794 75.8984375,5.44128794 C77.0833393,5.44128794 77.957354,5.70821235 78.5205078,6.24206919 C79.0836617,6.77592602 79.3652344,7.60599585 79.3652344,8.73230356 L79.3652344,13.5369911 C79.3652344,14.637257 79.7037727,15.1873817 80.3808594,15.1873817 C80.4654952,15.1873817 80.5891919,15.174361 80.7519531,15.1483192 L80.8886719,16.2127723 C80.4524718,16.4211067 79.9707058,16.5252723 79.4433594,16.5252723 C78.5449174,16.5252723 77.9720064,15.9946787 77.7246094,14.9334754 Z M77.4414062,13.8885536 L77.4414062,11.1444129 L76.796875,11.1248817 C75.7421822,11.1248817 74.8893262,11.325075 74.2382812,11.7254676 C73.5872363,12.1258603 73.2617188,12.6515711 73.2617188,13.3026161 C73.2617188,13.764858 73.4244775,14.1554791 73.75,14.4744911 C74.0755225,14.7935031 74.4726539,14.9530067 74.9414062,14.9530067 C75.7421915,14.9530067 76.5755165,14.5981925 77.4414062,13.8885536 Z M83.3007812,16.2811317 L83.3007812,5.67566294 L85.2246094,5.67566294 L85.2246094,7.66785044 C85.9863319,6.18346802 87.0930917,5.44128794 88.5449219,5.44128794 C88.7402354,5.44128794 88.9453114,5.45756382 89.1601562,5.49011606 L89.1601562,7.28699106 C88.8281233,7.17631343 88.5351575,7.12097544 88.28125,7.12097544 C87.063796,7.12097544 86.044926,7.84362446 85.2246094,9.28894419 L85.2246094,16.2811317 Z M94.6679688,16.5252723 C93.6914014,16.5252723 92.9296902,16.2453272 92.3828125,15.6854286 C91.8359348,15.1255299 91.5625,14.3475429 91.5625,13.3514442 L91.5625,7.12097544 L90.234375,7.12097544 L90.234375,5.67566294 L91.5625,5.67566294 L91.5625,3.75183481 L93.4863281,3.56628794 L93.4863281,5.67566294 L96.2597656,5.67566294 L96.2597656,7.12097544 L93.4863281,7.12097544 L93.4863281,12.9998817 C93.4863281,14.3866074 94.0852805,15.0799598 95.2832031,15.0799598 C95.5371106,15.0799598 95.8463523,15.0376425 96.2109375,14.9530067 L96.2109375,16.2811317 C95.6184866,16.4438929 95.1041688,16.5252723 94.6679688,16.5252723 Z M105.595703,16.2811317 L105.595703,14.2889442 C104.573563,15.7798371 103.333341,16.5252723 101.875,16.5252723 C100.950516,16.5252723 100.214846,16.2339341 99.6679688,15.6512489 C99.121091,15.0685637 98.8476562,14.2824387 98.8476562,13.2928504 L98.8476562,5.67566294 L100.771484,5.67566294 L100.771484,12.6678504 C100.771484,13.4621252 100.887043,14.0268982 101.118164,14.3621864 C101.349285,14.6974745 101.735023,14.8651161 102.275391,14.8651161 C103.447271,14.8651161 104.554031,14.0936394 105.595703,12.5506629 L105.595703,5.67566294 L107.519531,5.67566294 L107.519531,16.2811317 Z M111.376953,16.2811317 L111.376953,5.67566294 L113.300781,5.67566294 L113.300781,7.66785044 C114.062504,6.18346802 115.169264,5.44128794 116.621094,5.44128794 C116.816407,5.44128794 117.021483,5.45756382 117.236328,5.49011606 L117.236328,7.28699106 C116.904295,7.17631343 116.611329,7.12097544 116.357422,7.12097544 C115.139968,7.12097544 114.121098,7.84362446 113.300781,9.28894419 L113.300781,16.2811317 Z M127.333984,15.9393348 C126.044915,16.3299618 124.941411,16.5252723 124.023438,16.5252723 C122.46093,16.5252723 121.186528,16.0060718 120.200195,14.9676551 C119.213862,13.9292385 118.720703,12.5832233 118.720703,10.9295692 C118.720703,9.32148823 119.155269,8.00314204 120.024414,6.97449106 C120.893559,5.94584009 122.005202,5.43152231 123.359375,5.43152231 C124.641933,5.43152231 125.633135,5.88724692 126.333008,6.79870981 C127.032881,7.7101727 127.382812,9.00573266 127.382812,10.6854286 L127.373047,11.2811317 L120.683594,11.2811317 C120.963543,13.8006755 122.197255,15.0604286 124.384766,15.0604286 C125.185551,15.0604286 126.168614,14.845587 127.333984,14.4158973 Z M120.771484,9.83581919 L125.449219,9.83581919 C125.449219,7.86315307 124.713549,6.87683481 123.242188,6.87683481 C121.764316,6.87683481 120.940756,7.86315307 120.771484,9.83581919 Z M133.515625,16.5252723 C132.636714,16.5252723 131.569017,16.3201962 130.3125,15.9100379 L130.3125,14.1424598 C131.569017,14.7674629 132.662756,15.0799598 133.59375,15.0799598 C134.147138,15.0799598 134.606118,14.9302217 134.970703,14.6307411 C135.335288,14.3312604 135.517578,13.9569152 135.517578,13.5076942 C135.517578,12.8501388 135.006516,12.3065245 133.984375,11.8768348 L132.861328,11.3983192 C131.201164,10.7082116 130.371094,9.71538296 130.371094,8.41980356 C130.371094,7.49531977 130.698239,6.76778799 131.352539,6.23718637 C132.006839,5.70658476 132.90364,5.44128794 134.042969,5.44128794 C134.63542,5.44128794 135.367834,5.52266733 136.240234,5.68542856 L136.640625,5.76355356 L136.640625,7.36511606 C135.566401,7.04610405 134.713545,6.88660044 134.082031,6.88660044 C132.845046,6.88660044 132.226562,7.3358147 132.226562,8.23425669 C132.226562,8.81368667 132.695308,9.30196304 133.632812,9.69910044 L134.560547,10.0897254 C135.608729,10.532436 136.350909,10.9995537 136.787109,11.4910926 C137.223309,11.9826315 137.441406,12.5962322 137.441406,13.3319129 C137.441406,14.2629072 137.073571,15.0278735 136.337891,15.6268348 C135.60221,16.2257961 134.661464,16.5252723 133.515625,16.5252723 Z M147.226562,16.3983192 L147.226562,0.861209812 L149.150391,0.861209812 L149.150391,7.66785044 C149.938155,6.18346802 151.119784,5.44128794 152.695312,5.44128794 C153.971361,5.44128794 154.975582,5.90677807 155.708008,6.83777231 C156.440433,7.76876655 156.806641,9.04154028 156.806641,10.6561317 C156.806641,12.413953 156.391606,13.831582 155.561523,14.9090614 C154.731441,15.9865407 153.63933,16.5252723 152.285156,16.5252723 C151.02864,16.5252723 149.983728,16.0435063 149.150391,15.0799598 L148.916016,16.3983192 Z M149.150391,13.7518348 C150.139979,14.6372559 151.08398,15.0799598 151.982422,15.0799598 C153.831389,15.0799598 154.755859,13.6704687 154.755859,10.8514442 C154.755859,8.36445259 153.935555,7.12097544 152.294922,7.12097544 C151.220698,7.12097544 150.172531,7.7036519 149.150391,8.86902231 Z M166.445312,16.2811317 L166.445312,14.2889442 C165.423172,15.7798371 164.18295,16.5252723 162.724609,16.5252723 C161.800126,16.5252723 161.064456,16.2339341 160.517578,15.6512489 C159.9707,15.0685637 159.697266,14.2824387 159.697266,13.2928504 L159.697266,5.67566294 L161.621094,5.67566294 L161.621094,12.6678504 C161.621094,13.4621252 161.736652,14.0268982 161.967773,14.3621864 C162.198894,14.6974745 162.584633,14.8651161 163.125,14.8651161 C164.296881,14.8651161 165.403641,14.0936394 166.445312,12.5506629 L166.445312,5.67566294 L168.369141,5.67566294 L168.369141,16.2811317 Z M172.226562,16.2811317 L172.226562,5.67566294 L174.150391,5.67566294 L174.150391,16.2811317 Z M172.226562,3.75183481 L172.226562,1.82800669 L174.150391,1.82800669 L174.150391,3.75183481 Z M178.007812,16.2811317 L178.007812,0.861209812 L179.931641,0.861209812 L179.931641,16.2811317 Z M190.595703,16.2811317 L190.595703,14.2889442 C189.814449,15.7798371 188.636076,16.5252723 187.060547,16.5252723 C185.784499,16.5252723 184.780277,16.0597822 184.047852,15.1287879 C183.315426,14.1977937 182.949219,12.92502 182.949219,11.3104286 C182.949219,9.54609682 183.364254,8.12684018 184.194336,7.05261606 C185.024418,5.97839194 186.11653,5.44128794 187.470703,5.44128794 C188.72722,5.44128794 189.768876,5.92305395 190.595703,6.88660044 L190.595703,0.861209812 L192.529297,0.861209812 L192.529297,16.2811317 Z M190.595703,8.20495981 C189.599604,7.32604917 188.655603,6.88660044 187.763672,6.88660044 C185.921215,6.88660044 185,8.29609155 185,11.1151161 C185,13.5955972 185.820304,14.8358192 187.460938,14.8358192 C188.528651,14.8358192 189.573563,14.2531427 190.595703,13.0877723 Z M196.376953,16.2811317 L196.376953,5.67566294 L198.300781,5.67566294 L198.300781,16.2811317 Z M196.376953,3.75183481 L196.376953,1.82800669 L198.300781,1.82800669 L198.300781,3.75183481 Z M202.158203,16.2811317 L202.158203,5.67566294 L204.082031,5.67566294 L204.082031,7.66785044 C205.097661,6.18346802 206.341138,5.44128794 207.8125,5.44128794 C208.730473,5.44128794 209.462888,5.73262617 210.009766,6.31531137 C210.556643,6.89799658 210.830078,7.68086636 210.830078,8.66394419 L210.830078,16.2811317 L208.90625,16.2811317 L208.90625,9.28894419 C208.90625,8.50117983 208.790691,7.93966201 208.55957,7.60437387 C208.328449,7.26908574 207.945966,7.10144419 207.412109,7.10144419 C206.233718,7.10144419 205.123703,7.87292085 204.082031,9.41589731 L204.082031,16.2811317 Z M214.609375,19.8065223 L214.833984,18.1366004 C215.947271,18.6639468 217.044265,18.9276161 218.125,18.9276161 C220.29298,18.9276161 221.376953,17.778539 221.376953,15.4803504 L221.376953,13.8104286 C220.667314,15.294811 219.501961,16.0369911 217.880859,16.0369911 C216.611322,16.0369911 215.602217,15.5747561 214.853516,14.6502723 C214.104814,13.7257885 213.730469,12.4790562 213.730469,10.9100379 C213.730469,9.29544653 214.156897,7.98035552 215.009766,6.96472544 C215.862634,5.94909536 216.966139,5.44128794 218.320312,5.44128794 C219.505214,5.44128794 220.524084,5.92305395 221.376953,6.88660044 L221.376953,5.67566294 L223.310547,5.67566294 L223.310547,13.3905067 C223.310547,15.0506712 223.224285,16.2795001 223.051758,17.0770301 C222.879231,17.8745602 222.555341,18.5272229 222.080078,19.0350379 C221.24023,19.9269695 219.934905,20.3729286 218.164062,20.3729286 C216.927077,20.3729286 215.742193,20.1841284 214.609375,19.8065223 Z M221.376953,12.6092567 L221.376953,8.20495981 C220.530595,7.32604917 219.60938,6.88660044 218.613281,6.88660044 C217.72786,6.88660044 217.034508,7.2414146 216.533203,7.95105356 C216.031899,8.66069253 215.78125,9.63399009 215.78125,10.8709754 C215.78125,13.1952058 216.598299,14.3573036 218.232422,14.3573036 C219.345709,14.3573036 220.393875,13.7746271 221.376953,12.6092567 Z M221.376953,12.6092567" id="T3 Departures buildi"></path>
                                </g>
                            </g>
                            <path d="M3,29 L3,539 L287,539 L287,29 L3,29 L3,29 Z M3,29" id="building1" stroke="#979797" stroke-dasharray="4"></path>
                            <g id="logistics_step_storage1" transform="translate(73.500000, 133.000000)">
                                <path d="M7.99471669,12 C3.57935659,12 0,15.5861677 0,19.9991061 L0,25.0008939 C0,29.4186782 3.58842893,33 7.99471669,33 L135.005283,33 C139.420643,33 143,29.4138323 143,25.0008939 L143,19.9991061 C143,15.5813218 139.411571,12 135.005283,12 L7.99471669,12 L7.99471669,12 Z M7.99471669,12" id="Rectangle 3" stroke="#979797" fill="#D8D8D8"></path>
                                <g id="Storage location #1" transform="translate(11.500000, 0.282066)" x="0" font-weight="bold" font-family="Lucida Grande" y="11.0139598" fill="#000000" font-size="8.65140282">
                                    <g id="Group" transform="translate(0.000000, 0.000000)">
                                        <text id="Storage location #1">
                                            <tspan>Storage location #1</tspan>
                                        </text>
                                    </g>
                                </g>
                            </g>
                            <g id="logistics_step_storage2" transform="translate(73.500000, 185.000000)">
                                <path d="M7.99471669,12 C3.57935659,12 0,15.5861677 0,19.9991061 L0,25.0008939 C0,29.4186782 3.58842893,33 7.99471669,33 L135.005283,33 C139.420643,33 143,29.4138323 143,25.0008939 L143,19.9991061 C143,15.5813218 139.411571,12 135.005283,12 L7.99471669,12 L7.99471669,12 Z M7.99471669,12" id="Rectangle 3" stroke="#979797" fill="#D8D8D8"></path>
                                <g id="Storage location #2" transform="translate(11.500000, 0.282066)" x="0" font-weight="bold" font-family="Lucida Grande" y="11.0139598" fill="#000000" font-size="8.65140282">
                                    <g id="Group">
                                        <text id="Storage location #2">
                                            <tspan>Storage location #2</tspan>
                                        </text>
                                    </g>
                                </g>
                            </g>
                        </g>
                        <g id="T3" transform="translate(339.000000, 2.000000)">
                            <g id="T3 building" fill="#000000">
                                <g id="Group">
                                    <path d="M5.30273438,16.2811317 L5.30273438,3.36120981 L0.17578125,3.36120981 L0.17578125,1.82800669 L12.4804688,1.82800669 L12.4804688,3.36120981 L7.35351563,3.36120981 L7.35351563,16.2811317 Z M14.6777344,16.1737098 L14.6777344,14.3768348 C16.0579496,14.9237125 17.1451783,15.1971473 17.9394531,15.1971473 C18.8574265,15.1971473 19.6044893,14.9285953 20.1806641,14.3914832 C20.7568388,13.8543712 21.0449219,13.1593912 21.0449219,12.3065223 C21.0449219,10.2752622 19.6224101,9.25964731 16.7773438,9.25964731 L16.015625,9.25964731 L16.015625,7.96081919 L16.6894531,7.95105356 C19.3587373,7.95105356 20.6933594,7.01030776 20.6933594,5.12878794 C20.6933594,3.65091596 19.8144619,2.91199106 18.0566406,2.91199106 C17.0930941,2.91199106 16.0319068,3.18217065 14.8730469,3.72253794 L14.8730469,2.04285044 C16.0123755,1.65873393 17.1191353,1.46667856 18.1933594,1.46667856 C21.1491033,1.46667856 22.6269531,2.58320386 22.6269531,4.81628794 C22.6269531,6.51551518 21.6211038,7.72644057 19.609375,8.44910044 C21.9401158,8.98946772 23.1054688,10.2654966 23.1054688,12.2772254 C23.1054688,13.6379093 22.6562545,14.705607 21.7578125,15.4803504 C20.8593705,16.2550939 19.6256589,16.6424598 18.0566406,16.6424598 C17.1647091,16.6424598 16.0384183,16.4862114 14.6777344,16.1737098 Z M33.5449219,16.3983192 L33.5449219,0.861209812 L35.46875,0.861209812 L35.46875,7.66785044 C36.2565144,6.18346802 37.4381432,5.44128794 39.0136719,5.44128794 C40.2897199,5.44128794 41.2939417,5.90677807 42.0263672,6.83777231 C42.7587927,7.76876655 43.125,9.04154028 43.125,10.6561317 C43.125,12.413953 42.7099651,13.831582 41.8798828,14.9090614 C41.0498005,15.9865407 39.9576891,16.5252723 38.6035156,16.5252723 C37.3469989,16.5252723 36.3020875,16.0435063 35.46875,15.0799598 L35.234375,16.3983192 Z M35.46875,8.86902231 L35.46875,13.7518348 C36.4583383,14.6372559 37.4023393,15.0799598 38.3007812,15.0799598 C40.1497488,15.0799598 41.0742188,13.6704687 41.0742188,10.8514442 C41.0742188,8.36445259 40.2539145,7.12097544 38.6132812,7.12097544 C37.5390571,7.12097544 36.4908905,7.7036519 35.46875,8.86902231 Z M52.7636719,16.2811317 L52.7636719,14.2889442 C51.7415313,15.7798371 50.5013094,16.5252723 49.0429688,16.5252723 C48.118485,16.5252723 47.3828152,16.2339341 46.8359375,15.6512489 C46.2890598,15.0685637 46.015625,14.2824387 46.015625,13.2928504 L46.015625,5.67566294 L47.9394531,5.67566294 L47.9394531,12.6678504 C47.9394531,13.4621252 48.0550119,14.0268982 48.2861328,14.3621864 C48.5172538,14.6974745 48.9029921,14.8651161 49.4433594,14.8651161 C50.6152402,14.8651161 51.722,14.0936394 52.7636719,12.5506629 L52.7636719,5.67566294 L54.6875,5.67566294 L54.6875,16.2811317 Z M58.5449219,16.2811317 L58.5449219,5.67566294 L60.46875,5.67566294 L60.46875,16.2811317 Z M58.5449219,3.75183481 L58.5449219,1.82800669 L60.46875,1.82800669 L60.46875,3.75183481 Z M64.3261719,16.2811317 L64.3261719,0.861209812 L66.25,0.861209812 L66.25,16.2811317 Z M76.9140625,16.2811317 L76.9140625,14.2889442 C76.1328086,15.7798371 74.954435,16.5252723 73.3789062,16.5252723 C72.1028582,16.5252723 71.0986365,16.0597822 70.3662109,15.1287879 C69.6337854,14.1977937 69.2675781,12.92502 69.2675781,11.3104286 C69.2675781,9.54609682 69.682613,8.12684018 70.5126953,7.05261606 C71.3427776,5.97839194 72.4348891,5.44128794 73.7890625,5.44128794 C75.0455792,5.44128794 76.0872354,5.92305395 76.9140625,6.88660044 L76.9140625,0.861209812 L78.8476562,0.861209812 L78.8476562,16.2811317 Z M76.9140625,8.20495981 C75.9179638,7.32604917 74.9739628,6.88660044 74.0820312,6.88660044 C72.2395741,6.88660044 71.3183594,8.29609155 71.3183594,11.1151161 C71.3183594,13.5955972 72.1386637,14.8358192 73.7792969,14.8358192 C74.8470105,14.8358192 75.891922,14.2531427 76.9140625,13.0877723 Z M82.6953125,16.2811317 L82.6953125,5.67566294 L84.6191406,5.67566294 L84.6191406,16.2811317 Z M82.6953125,3.75183481 L82.6953125,1.82800669 L84.6191406,1.82800669 L84.6191406,3.75183481 Z M88.4765625,16.2811317 L88.4765625,5.67566294 L90.4003906,5.67566294 L90.4003906,7.66785044 C91.4160207,6.18346802 92.6594979,5.44128794 94.1308594,5.44128794 C95.0488327,5.44128794 95.7812473,5.73262617 96.328125,6.31531137 C96.8750027,6.89799658 97.1484375,7.68086636 97.1484375,8.66394419 L97.1484375,16.2811317 L95.2246094,16.2811317 L95.2246094,9.28894419 C95.2246094,8.50117983 95.1090506,7.93966201 94.8779297,7.60437387 C94.6468087,7.26908574 94.2643256,7.10144419 93.7304688,7.10144419 C92.5520774,7.10144419 91.4420625,7.87292085 90.4003906,9.41589731 L90.4003906,16.2811317 Z M100.927734,19.8065223 L101.152344,18.1366004 C102.265631,18.6639468 103.362625,18.9276161 104.443359,18.9276161 C106.611339,18.9276161 107.695312,17.778539 107.695312,15.4803504 L107.695312,13.8104286 C106.985674,15.294811 105.820321,16.0369911 104.199219,16.0369911 C102.929681,16.0369911 101.920577,15.5747561 101.171875,14.6502723 C100.423173,13.7257885 100.048828,12.4790562 100.048828,10.9100379 C100.048828,9.29544653 100.475256,7.98035552 101.328125,6.96472544 C102.180994,5.94909536 103.284498,5.44128794 104.638672,5.44128794 C105.823574,5.44128794 106.842444,5.92305395 107.695312,6.88660044 L107.695312,5.67566294 L109.628906,5.67566294 L109.628906,13.3905067 C109.628906,15.0506712 109.542644,16.2795001 109.370117,17.0770301 C109.19759,17.8745602 108.8737,18.5272229 108.398438,19.0350379 C107.55859,19.9269695 106.253264,20.3729286 104.482422,20.3729286 C103.245437,20.3729286 102.060553,20.1841284 100.927734,19.8065223 Z M107.695312,12.6092567 L107.695312,8.20495981 C106.848954,7.32604917 105.927739,6.88660044 104.931641,6.88660044 C104.04622,6.88660044 103.352867,7.2414146 102.851562,7.95105356 C102.350258,8.66069253 102.099609,9.63399009 102.099609,10.8709754 C102.099609,13.1952058 102.916658,14.3573036 104.550781,14.3573036 C105.664068,14.3573036 106.712235,13.7746271 107.695312,12.6092567 Z M107.695312,12.6092567" id="T3 building"></path>
                                </g>
                            </g>
                            <g id="logistics_step_problem_bag" transform="translate(84.500000, 77.000000)">
                                <path d="M7.99471669,12 C3.57935659,12 0,15.5861677 0,19.9991061 L0,25.0008939 C0,29.4186782 3.58842893,33 7.99471669,33 L135.005283,33 C139.420643,33 143,29.4138323 143,25.0008939 L143,19.9991061 C143,15.5813218 139.411571,12 135.005283,12 L7.99471669,12 L7.99471669,12 Z M7.99471669,12" id="Rectangle 3" stroke="#979797" fill="#D8D8D8"></path>
                                <g id="Problem bag" transform="translate(32.500000, 0.282066)" x="0" font-weight="normal" font-family="Lucida Grande" y="11.0139598" fill="#000000" font-size="8.65140282">
                                    <g id="Group">
                                        <text id="Problem bag">
                                            <tspan>Problem bag</tspan>
                                        </text>
                                    </g>
                                </g>
                            </g>
                            <g id="logistics_step_a" transform="translate(84.500000, 261.000000)">
                                <path d="M7.99471669,12 C3.57935659,12 0,15.5861677 0,19.9991061 L0,25.0008939 C0,29.4186782 3.58842893,33 7.99471669,33 L135.005283,33 C139.420643,33 143,29.4138323 143,25.0008939 L143,19.9991061 C143,15.5813218 139.411571,12 135.005283,12 L7.99471669,12 L7.99471669,12 Z M7.99471669,12" id="Rectangle 3" stroke="#979797" fill="#D8D8D8"></path>
                                <g id="Problem bag" transform="translate(32.500000, 0.282066)" x="0" font-weight="normal" font-family="Lucida Grande" y="11.0139598" fill="#000000" font-size="8.65140282">
                                    <g id="Group">
                                        <text id="Process A">
                                            <tspan>Process A</tspan>
                                        </text>
                                    </g>
                                </g>
                            </g>
                            <g id="logistics_step_b" transform="translate(312.000000, 261.000000)">
                                <path d="M7.99471669,12 C3.57935659,12 0,15.5861677 0,19.9991061 L0,25.0008939 C0,29.4186782 3.58842893,33 7.99471669,33 L135.005283,33 C139.420643,33 143,29.4138323 143,25.0008939 L143,19.9991061 C143,15.5813218 139.411571,12 135.005283,12 L7.99471669,12 L7.99471669,12 Z M7.99471669,12" id="Rectangle 3" stroke="#979797" fill="#D8D8D8"></path>
                                <g id="Problem bag" transform="translate(32.500000, 0.282066)" x="0" font-weight="normal" font-family="Lucida Grande" y="11.0139598" fill="#000000" font-size="8.65140282">
                                    <g id="Group">
                                        <text id="Process B">
                                            <tspan>Process B</tspan>
                                        </text>
                                    </g>
                                </g>
                            </g>
                            <g id="logistics_step_c" transform="translate(539.500000, 261.000000)">
                                <path d="M7.99471669,12 C3.57935659,12 0,15.5861677 0,19.9991061 L0,25.0008939 C0,29.4186782 3.58842893,33 7.99471669,33 L135.005283,33 C139.420643,33 143,29.4138323 143,25.0008939 L143,19.9991061 C143,15.5813218 139.411571,12 135.005283,12 L7.99471669,12 L7.99471669,12 Z M7.99471669,12" id="Rectangle 3" stroke="#979797" fill="#D8D8D8"></path>
                                <g id="Problem bag" transform="translate(32.500000, 0.282066)" x="0" font-weight="normal" font-family="Lucida Grande" y="11.0139598" fill="#000000" font-size="8.65140282">
                                    <g id="Group">
                                        <text id="Process C">
                                            <tspan>Process C</tspan>
                                        </text>
                                    </g>
                                </g>
                            </g>
                            <g id="logistics_step_bag_entery" transform="translate(312.000000, 77.000000)">
                                <path d="M7.99471669,12 C3.57935659,12 0,15.5861677 0,19.9991061 L0,25.0008939 C0,29.4186782 3.58842893,33 7.99471669,33 L135.005283,33 C139.420643,33 143,29.4138323 143,25.0008939 L143,19.9991061 C143,15.5813218 139.411571,12 135.005283,12 L7.99471669,12 L7.99471669,12 Z M7.99471669,12" id="Rectangle 3" stroke="#979797" fill="#D8D8D8"></path>
                                <g id="Bag entery" transform="translate(38.500000, 0.282066)" x="0" font-weight="normal" font-family="Lucida Grande" y="11.0139598" fill="#000000" font-size="8.65140282">
                                    <g id="Group" transform="translate(0.000000, 0.000000)">
                                        <text id="Bag entery">
                                            <tspan>Bag entery</tspan>
                                        </text>
                                    </g>
                                </g>
                            </g>
                            <g id="logistics_step_re_entry" transform="translate(540.500000, 77.000000)">
                                <path d="M7.99471669,12 C3.57935659,12 0,15.5861677 0,19.9991061 L0,25.0008939 C0,29.4186782 3.58842893,33 7.99471669,33 L135.005283,33 C139.420643,33 143,29.4138323 143,25.0008939 L143,19.9991061 C143,15.5813218 139.411571,12 135.005283,12 L7.99471669,12 L7.99471669,12 Z M7.99471669,12" id="Rectangle 3" stroke="#979797" fill="#D8D8D8"></path>
                                <g id="Re-entery" transform="translate(40.000000, 0.282066)" x="0" font-weight="normal" font-family="Lucida Grande" y="11.0139598" fill="#000000" font-size="8.65140282">
                                    <g id="Group" transform="translate(0.000000, 0.000000)">
                                        <text id="Re-entery">
                                            <tspan>Re-entery</tspan>
                                        </text>
                                    </g>
                                </g>
                            </g>
                            <g id="logistics_step_loop" transform="translate(84.500000, 169.000000)">
                                <path d="M0,19.9991061 L0,25.0008939 C0,29.4186782 3.58632295,33 7.99945669,33 L593.000543,33 C597.418521,33 601,29.4138323 601,25.0008939 L601,19.9991061 C601,15.5813218 597.413677,12 593.000543,12 L7.99945669,12 C3.58147875,12 0,15.5861677 0,19.9991061 L0,19.9991061 Z M0,19.9991061" id="Rectangle 3" stroke="#979797" fill="#D8D8D8"></path>
                                <g id="Re-entery" transform="translate(248.000000, 0.282066)" x="0" font-weight="normal" font-family="Lucida Grande" y="11.0139598" fill="#000000" font-size="8.65140282">
                                    <g id="Automation loop" transform="translate(0.000000, 0.000000)">
                                        <text>
                                            <tspan>Automation loop</tspan>
                                        </text>
                                    </g>
                                </g>
                            </g>
                            <path d="M1,26 L1,565 L767,565 L767,26 L1,26 L1,26 Z M1,26" id="Terminal #1" stroke="#979797" stroke-dasharray="4"></path>
                            <path d="M2.5,323.5 L767.500671,323.5" id="Line" stroke="#979797" stroke-linecap="square" stroke-dasharray="4"></path>
                            <path d="M624.258221,210.304688 L624.258221,229.757813 L624.258221,247.93083" id="Path 67" stroke="#979797" fill="#D8D8D8"></path>
                            <path id="Path 67 decoration-1" d="M624.258221,211.104688 C625.308221,214.884688 626.208221,218.124688 627.258221,221.904688 C625.158221,221.904688 623.358221,221.904688 621.258221,221.904687 C622.308221,218.124687 623.208221,214.884687 624.258221,211.104688 C624.258221,211.104688 624.258221,211.104688 624.258221,211.104688 Z M624.258221,211.104688" stroke="#979797" fill="#D8D8D8"></path>
                            <path d="M663.023438,128.478817 L663.023438,144.980373 L725.072071,144.980373 L725.072071,236.130558 L625.258221,236.130558" id="Path 68" stroke="#979797"></path>
                        </g>
                    </g>
                </g>
            </g>
        </g>
    </g>
</svg>