<?xml version="1.0" encoding="UTF-8" standalone="no"?>
<svg width="1133px" height="598px" viewBox="0 0 1133 598" version="1.1" xmlns="http://www.w3.org/2000/svg" xmlns:xlink="http://www.w3.org/1999/xlink" xmlns:sketch="http://www.bohemiancoding.com/sketch/ns">
    <title>Slice 1</title>
    <description>Created with Sketch (http://www.bohemiancoding.com/sketch)</description>
    <defs></defs>
    <g id="Page-1" stroke="none" stroke-width="1" fill="none" fill-rule="evenodd" sketch:type="MSPage">
        <g id="Slice-1" sketch:type="MSLayerGroup" transform="translate(13.000000, 6.000000)">
            <g id="Page-1">
                <g id="screen1">
                    <g id="Page-1">
                        <g id="T3_departures" transform="translate(0.000000, 2.000000)">
                            <g id="T3-Departures-buildi" transform="translate(40.000000, 4.000000)" fill="#929292" sketch:type="MSShapeGroup">
                                <g id="T3-Departures-building">
                                    <path d="M5.30273438,15.2811317 L5.30273438,2.36120981 L0.17578125,2.36120981 L0.17578125,0.828006687 L12.4804688,0.828006687 L12.4804688,2.36120981 L7.35351563,2.36120981 L7.35351563,15.2811317 L5.30273438,15.2811317 Z M14.6777344,15.1737098 L14.6777344,13.3768348 C16.0579496,13.9237125 17.1451783,14.1971473 17.9394531,14.1971473 C18.8574265,14.1971473 19.6044893,13.9285953 20.1806641,13.3914832 C20.7568388,12.8543712 21.0449219,12.1593912 21.0449219,11.3065223 C21.0449219,9.27526216 19.6224101,8.25964731 16.7773438,8.25964731 L16.015625,8.25964731 L16.015625,6.96081919 L16.6894531,6.95105356 C19.3587373,6.95105356 20.6933594,6.01030776 20.6933594,4.12878794 C20.6933594,2.65091596 19.8144619,1.91199106 18.0566406,1.91199106 C17.0930941,1.91199106 16.0319068,2.18217065 14.8730469,2.72253794 L14.8730469,1.04285044 C16.0123755,0.658733934 17.1191353,0.466678562 18.1933594,0.466678562 C21.1491033,0.466678562 22.6269531,1.58320386 22.6269531,3.81628794 C22.6269531,5.51551518 21.6211038,6.72644057 19.609375,7.44910044 C21.9401158,7.98946772 23.1054688,9.26549663 23.1054688,11.2772254 C23.1054688,12.6379093 22.6562545,13.705607 21.7578125,14.4803504 C20.8593705,15.2550939 19.6256589,15.6424598 18.0566406,15.6424598 C17.1647091,15.6424598 16.0384183,15.4862114 14.6777344,15.1737098 C14.6777344,15.1737098 16.0384183,15.4862114 14.6777344,15.1737098 Z M33.4863281,15.2811317 L33.4863281,0.828006687 L38.2910156,0.828006687 C39.7233145,0.828006687 40.8805294,0.987510301 41.7626953,1.30652231 C42.6448612,1.62553432 43.4081999,2.1658935 44.0527344,2.92761606 C45.0748749,4.13855962 45.5859375,5.73359575 45.5859375,7.71277231 C45.5859375,10.1151281 44.9511782,11.9770886 43.6816406,13.2987098 C42.412103,14.620331 40.6250115,15.2811317 38.3203125,15.2811317 L33.4863281,15.2811317 Z M35.5371094,13.7479286 L38.1640625,13.7479286 C40.0390719,13.7479286 41.3671836,13.2433763 42.1484375,12.2342567 C42.9882854,11.1600326 43.4082031,9.7179897 43.4082031,7.90808481 C43.4082031,6.20885757 42.9947958,4.8742355 42.1679688,3.90417856 C41.6666642,3.31172768 41.0677118,2.9064583 40.3710938,2.68835825 C39.6744757,2.4702582 38.6263091,2.36120981 37.2265625,2.36120981 L35.5371094,2.36120981 L35.5371094,13.7479286 Z M56.2988281,14.9393348 C55.0097592,15.3299618 53.9062546,15.5252723 52.9882812,15.5252723 C51.4257734,15.5252723 50.1513721,15.0060718 49.1650391,13.9676551 C48.178706,12.9292385 47.6855469,11.5832233 47.6855469,9.92956919 C47.6855469,8.32148823 48.1201128,7.00314204 48.9892578,5.97449106 C49.8584028,4.94584009 50.9700453,4.43152231 52.3242188,4.43152231 C53.6067772,4.43152231 54.5979783,4.88724692 55.2978516,5.79870981 C55.9977249,6.7101727 56.3476562,8.00573266 56.3476562,9.68542856 L56.3378906,10.2811317 L49.6484375,10.2811317 C49.9283868,12.8006755 51.1620984,14.0604286 53.3496094,14.0604286 C54.1503946,14.0604286 55.1334577,13.845587 56.2988281,13.4158973 C56.2988281,13.4158973 55.1334577,13.845587 56.2988281,13.4158973 L56.2988281,14.9393348 Z M54.4140625,8.83581919 C55.0627485,8.05893421 53.6783928,5.87683481 52.2070312,5.87683481 C50.7291593,5.87683481 49.9055998,6.86315307 49.7363281,8.83581919 C49.7363281,8.83581919 53.7653765,9.61270418 54.4140625,8.83581919 Z M59.6679688,19.1385536 L59.6679688,4.67566294 L61.5917969,4.67566294 L61.5917969,6.66785044 C62.3795612,5.18346802 63.56119,4.44128794 65.1367188,4.44128794 C66.4127668,4.44128794 67.4169885,4.90677807 68.1494141,5.83777231 C68.8818396,6.76876655 69.2480469,8.04154028 69.2480469,9.65613169 C69.2480469,11.413953 68.833012,12.831582 68.0029297,13.9090614 C67.1728474,14.9865407 66.0807359,15.5252723 64.7265625,15.5252723 C63.4700458,15.5252723 62.4251344,15.0435063 61.5917969,14.0799598 L61.5917969,19.1385536 L59.6679688,19.1385536 Z M61.5917969,12.7518348 C62.5813852,13.6372559 63.5253861,14.0799598 64.4238281,14.0799598 C66.2727957,14.0799598 67.1972656,12.6704687 67.1972656,9.85144419 C67.1972656,7.36445259 66.3769613,6.12097544 64.7363281,6.12097544 C63.662104,6.12097544 62.6139374,6.7036519 61.5917969,7.86902231 C61.5917969,7.86902231 62.6139374,6.7036519 61.5917969,7.86902231 L61.5917969,12.7518348 Z M77.7246094,13.9334754 C76.5722599,14.9946787 75.4622449,15.5252723 74.3945312,15.5252723 C73.5156206,15.5252723 72.7864612,15.25021 72.2070312,14.700077 C71.6276013,14.149944 71.3378906,13.454964 71.3378906,12.6151161 C71.3378906,11.4562561 71.8245394,10.5659655 72.7978516,9.94421762 C73.7711637,9.32246972 75.1660065,9.01160044 76.9824219,9.01160044 L77.4414062,9.01160044 L77.4414062,7.73230356 C77.4414062,6.50182866 76.8099021,5.88660044 75.546875,5.88660044 C74.5312449,5.88660044 73.4342507,6.19909731 72.2558594,6.82410044 L72.2558594,5.23230356 C73.5514388,4.70495718 74.7656193,4.44128794 75.8984375,4.44128794 C77.0833393,4.44128794 77.957354,4.70821235 78.5205078,5.24206919 C79.0836617,5.77592602 79.3652344,6.60599585 79.3652344,7.73230356 L79.3652344,12.5369911 C79.3652344,13.637257 79.7037727,14.1873817 80.3808594,14.1873817 C80.4654952,14.1873817 80.5891919,14.174361 80.7519531,14.1483192 L80.8886719,15.2127723 C80.4524718,15.4211067 79.9707058,15.5252723 79.4433594,15.5252723 C78.5449174,15.5252723 77.9720064,14.9946787 77.7246094,13.9334754 C77.7246094,13.9334754 77.9720064,14.9946787 77.7246094,13.9334754 Z M77.4414062,12.8885536 L77.4414062,10.1444129 L76.796875,10.1248817 C75.7421822,10.1248817 74.8893262,10.325075 74.2382812,10.7254676 C73.5872363,11.1258603 73.2617188,11.6515711 73.2617188,12.3026161 C73.2617188,12.764858 73.4244775,13.1554791 73.75,13.4744911 C74.0755225,13.7935031 74.4726539,13.9530067 74.9414062,13.9530067 C75.7421915,13.9530067 76.5755165,13.5981925 77.4414062,12.8885536 C77.4414062,12.8885536 76.5755165,13.5981925 77.4414062,12.8885536 Z M83.3007812,15.2811317 L83.3007812,4.67566294 L85.2246094,4.67566294 L85.2246094,6.66785044 C85.9863319,5.18346802 87.0930917,4.44128794 88.5449219,4.44128794 C88.7402354,4.44128794 88.9453114,4.45756382 89.1601562,4.49011606 L89.1601562,6.28699106 C88.8281233,6.17631343 88.5351575,6.12097544 88.28125,6.12097544 C87.063796,6.12097544 86.044926,6.84362446 85.2246094,8.28894419 L85.2246094,15.2811317 L83.3007812,15.2811317 Z M94.6679688,15.5252723 C93.6914014,15.5252723 92.9296902,15.2453272 92.3828125,14.6854286 C91.8359348,14.1255299 91.5625,13.3475429 91.5625,12.3514442 L91.5625,6.12097544 L90.234375,6.12097544 L90.234375,4.67566294 L91.5625,4.67566294 L91.5625,2.75183481 L93.4863281,2.56628794 L93.4863281,4.67566294 L96.2597656,4.67566294 L96.2597656,6.12097544 L93.4863281,6.12097544 L93.4863281,11.9998817 C93.4863281,13.3866074 94.0852805,14.0799598 95.2832031,14.0799598 C95.5371106,14.0799598 95.8463523,14.0376425 96.2109375,13.9530067 L96.2109375,15.2811317 C95.6184866,15.4438929 95.1041688,15.5252723 94.6679688,15.5252723 Z M105.595703,15.2811317 L105.595703,13.2889442 C104.573563,14.7798371 103.333341,15.5252723 101.875,15.5252723 C100.950516,15.5252723 100.214846,15.2339341 99.6679688,14.6512489 C99.121091,14.0685637 98.8476562,13.2824387 98.8476562,12.2928504 L98.8476562,4.67566294 L100.771484,4.67566294 L100.771484,11.6678504 C100.771484,12.4621252 100.887043,13.0268982 101.118164,13.3621864 C101.349285,13.6974745 101.735023,13.8651161 102.275391,13.8651161 C103.447271,13.8651161 104.554031,13.0936394 105.595703,11.5506629 L105.595703,4.67566294 L107.519531,4.67566294 L107.519531,15.2811317 L105.595703,15.2811317 Z M111.376953,15.2811317 L111.376953,4.67566294 L113.300781,4.67566294 L113.300781,6.66785044 C114.062504,5.18346802 115.169264,4.44128794 116.621094,4.44128794 C116.816407,4.44128794 117.021483,4.45756382 117.236328,4.49011606 L117.236328,6.28699106 C116.904295,6.17631343 116.611329,6.12097544 116.357422,6.12097544 C115.139968,6.12097544 114.121098,6.84362446 113.300781,8.28894419 L113.300781,15.2811317 L111.376953,15.2811317 Z M127.333984,14.9393348 C126.044915,15.3299618 124.941411,15.5252723 124.023437,15.5252723 C122.46093,15.5252723 121.186528,15.0060718 120.200195,13.9676551 C119.213862,12.9292385 118.720703,11.5832233 118.720703,9.92956919 C118.720703,8.32148823 119.155269,7.00314204 120.024414,5.97449106 C120.893559,4.94584009 122.005202,4.43152231 123.359375,4.43152231 C124.641933,4.43152231 125.633135,4.88724692 126.333008,5.79870981 C127.032881,6.7101727 127.382812,8.00573266 127.382812,9.68542856 L127.373047,10.2811317 L120.683594,10.2811317 C120.963543,12.8006755 122.197255,14.0604286 124.384766,14.0604286 C125.185551,14.0604286 126.168614,13.845587 127.333984,13.4158973 C127.333984,13.4158973 126.168614,13.845587 127.333984,13.4158973 L127.333984,14.9393348 Z M120.771484,8.83581919 L125.449219,8.83581919 C125.449219,6.86315307 124.713549,5.87683481 123.242188,5.87683481 C121.764316,5.87683481 120.940756,6.86315307 120.771484,8.83581919 C120.771484,8.83581919 120.940756,6.86315307 120.771484,8.83581919 Z M133.515625,15.5252723 C132.636714,15.5252723 131.569017,15.3201962 130.3125,14.9100379 L130.3125,13.1424598 C131.569017,13.7674629 132.662756,14.0799598 133.59375,14.0799598 C134.147138,14.0799598 134.606118,13.9302217 134.970703,13.6307411 C135.335288,13.3312604 135.517578,12.9569152 135.517578,12.5076942 C135.517578,11.8501388 135.006516,11.3065245 133.984375,10.8768348 L132.861328,10.3983192 C131.201164,9.70821157 130.371094,8.71538296 130.371094,7.41980356 C130.371094,6.49531977 130.698239,5.76778799 131.352539,5.23718637 C132.006839,4.70658476 132.90364,4.44128794 134.042969,4.44128794 C134.63542,4.44128794 135.367834,4.52266733 136.240234,4.68542856 L136.640625,4.76355356 L136.640625,6.36511606 C135.566401,6.04610405 134.713545,5.88660044 134.082031,5.88660044 C132.845046,5.88660044 132.226562,6.3358147 132.226562,7.23425669 C132.226562,7.81368667 132.695308,8.30196304 133.632812,8.69910044 L134.560547,9.08972544 C135.608729,9.53243598 136.350909,9.99955371 136.787109,10.4910926 C137.223309,10.9826315 137.441406,11.5962322 137.441406,12.3319129 C137.441406,13.2629072 137.073571,14.0278735 136.337891,14.6268348 C135.60221,15.2257961 134.661464,15.5252723 133.515625,15.5252723 Z M147.226562,15.3983192 L147.226562,-0.138790188 L149.150391,-0.138790188 L149.150391,6.66785044 C149.938155,5.18346802 151.119784,4.44128794 152.695312,4.44128794 C153.971361,4.44128794 154.975582,4.90677807 155.708008,5.83777231 C156.440433,6.76876655 156.806641,8.04154028 156.806641,9.65613169 C156.806641,11.413953 156.391606,12.831582 155.561523,13.9090614 C154.731441,14.9865407 153.63933,15.5252723 152.285156,15.5252723 C151.02864,15.5252723 149.983728,15.0435063 149.150391,14.0799598 L148.916016,15.3983192 L147.226562,15.3983192 Z M149.150391,12.7518348 C150.139979,13.6372559 151.08398,14.0799598 151.982422,14.0799598 C153.831389,14.0799598 154.755859,12.6704687 154.755859,9.85144419 C154.755859,7.36445259 153.935555,6.12097544 152.294922,6.12097544 C151.220698,6.12097544 150.172531,6.7036519 149.150391,7.86902231 C149.150391,7.86902231 150.172531,6.7036519 149.150391,7.86902231 L149.150391,12.7518348 Z M166.445312,15.2811317 L166.445312,13.2889442 C165.423172,14.7798371 164.18295,15.5252723 162.724609,15.5252723 C161.800126,15.5252723 161.064456,15.2339341 160.517578,14.6512489 C159.9707,14.0685637 159.697266,13.2824387 159.697266,12.2928504 L159.697266,4.67566294 L161.621094,4.67566294 L161.621094,11.6678504 C161.621094,12.4621252 161.736652,13.0268982 161.967773,13.3621864 C162.198894,13.6974745 162.584633,13.8651161 163.125,13.8651161 C164.296881,13.8651161 165.403641,13.0936394 166.445312,11.5506629 L166.445312,4.67566294 L168.369141,4.67566294 L168.369141,15.2811317 L166.445312,15.2811317 Z M172.226562,15.2811317 L172.226562,4.67566294 L174.150391,4.67566294 L174.150391,15.2811317 L172.226562,15.2811317 Z M172.226562,2.75183481 L172.226562,0.828006687 L174.150391,0.828006687 L174.150391,2.75183481 L172.226562,2.75183481 Z M178.007812,15.2811317 L178.007812,-0.138790188 L179.931641,-0.138790188 L179.931641,15.2811317 L178.007812,15.2811317 Z M190.595703,15.2811317 L190.595703,13.2889442 C189.814449,14.7798371 188.636076,15.5252723 187.060547,15.5252723 C185.784499,15.5252723 184.780277,15.0597822 184.047852,14.1287879 C183.315426,13.1977937 182.949219,11.92502 182.949219,10.3104286 C182.949219,8.54609682 183.364254,7.12684018 184.194336,6.05261606 C185.024418,4.97839194 186.11653,4.44128794 187.470703,4.44128794 C188.72722,4.44128794 189.768876,4.92305395 190.595703,5.88660044 L190.595703,-0.138790188 L192.529297,-0.138790188 L192.529297,15.2811317 L190.595703,15.2811317 Z M190.595703,7.20495981 C189.599604,6.32604917 188.655603,5.88660044 187.763672,5.88660044 C185.921215,5.88660044 185,7.29609155 185,10.1151161 C185,12.5955972 185.820304,13.8358192 187.460938,13.8358192 C188.528651,13.8358192 189.573563,13.2531427 190.595703,12.0877723 C190.595703,12.0877723 189.573563,13.2531427 190.595703,12.0877723 L190.595703,7.20495981 Z M196.376953,15.2811317 L196.376953,4.67566294 L198.300781,4.67566294 L198.300781,15.2811317 L196.376953,15.2811317 Z M196.376953,2.75183481 L196.376953,0.828006687 L198.300781,0.828006687 L198.300781,2.75183481 L196.376953,2.75183481 Z M202.158203,15.2811317 L202.158203,4.67566294 L204.082031,4.67566294 L204.082031,6.66785044 C205.097661,5.18346802 206.341138,4.44128794 207.8125,4.44128794 C208.730473,4.44128794 209.462888,4.73262617 210.009766,5.31531137 C210.556643,5.89799658 210.830078,6.68086636 210.830078,7.66394419 L210.830078,15.2811317 L208.90625,15.2811317 L208.90625,8.28894419 C208.90625,7.50117983 208.790691,6.93966201 208.55957,6.60437387 C208.328449,6.26908574 207.945966,6.10144419 207.412109,6.10144419 C206.233718,6.10144419 205.123703,6.87292085 204.082031,8.41589731 L204.082031,15.2811317 L202.158203,15.2811317 Z M214.609375,18.8065223 L214.833984,17.1366004 C215.947271,17.6639468 217.044265,17.9276161 218.125,17.9276161 C220.29298,17.9276161 221.376953,16.778539 221.376953,14.4803504 L221.376953,12.8104286 C220.667314,14.294811 219.501961,15.0369911 217.880859,15.0369911 C216.611322,15.0369911 215.602217,14.5747561 214.853516,13.6502723 C214.104814,12.7257885 213.730469,11.4790562 213.730469,9.91003794 C213.730469,8.29544653 214.156897,6.98035552 215.009766,5.96472544 C215.862634,4.94909536 216.966139,4.44128794 218.320312,4.44128794 C219.505214,4.44128794 220.524084,4.92305395 221.376953,5.88660044 L221.376953,4.67566294 L223.310547,4.67566294 L223.310547,12.3905067 C223.310547,14.0506712 223.224285,15.2795001 223.051758,16.0770301 C222.879231,16.8745602 222.555341,17.5272229 222.080078,18.0350379 C221.24023,18.9269695 219.934905,19.3729286 218.164062,19.3729286 C216.927077,19.3729286 215.742193,19.1841284 214.609375,18.8065223 C214.609375,18.8065223 215.742193,19.1841284 214.609375,18.8065223 Z M221.376953,11.6092567 L221.376953,7.20495981 C220.530595,6.32604917 219.60938,5.88660044 218.613281,5.88660044 C217.72786,5.88660044 217.034508,6.2414146 216.533203,6.95105356 C216.031899,7.66069253 215.78125,8.63399009 215.78125,9.87097544 C215.78125,12.1952058 216.598299,13.3573036 218.232422,13.3573036 C219.345709,13.3573036 220.393875,12.7746271 221.376953,11.6092567 C221.376953,11.6092567 220.393875,12.7746271 221.376953,11.6092567 Z" id="T3-Departures-buildi"></path>
                                </g>
                            </g>
                            <path d="M0,578 L284,578 L284,570.405863 L284,565.656173 L284,39 L0,39 L0,578 Z" id="building1" stroke="#979797" stroke-dasharray="4" sketch:type="MSShapeGroup"></path>
                            <g id="logistics_step_storage1" transform="translate(70.500000, 136.000000)">
                                <path d="M7.99471669,17 C3.57935659,17 0,20.5861677 0,24.9991061 L0,30.0008939 C0,34.4186782 3.58842893,38 7.99471669,38 L135.005283,38 C139.420643,38 143,34.4138323 143,30.0008939 L143,24.9991061 C143,20.5813218 139.411571,17 135.005283,17 L7.99471669,17 L7.99471669,17 Z" id="Rectangle-3" fill="#D8D8D8" sketch:type="MSShapeGroup"></path>
                                <g id="Storage-location-#1" transform="translate(2.500000, 0.282066)" font-weight="bold" font-family="Lucida Grande" sketch:type="MSTextLayer" sketch:alignment="middle" fill="#929292" font-size="8.65140282">
                                    <g id="Group">
                                        <text id="Storage-location-1">
                                            <tspan x="28.6324193" y="8.32490528" fill="#000000">Storage location 1</tspan>
                                        </text>
                                    </g>
                                </g>
                            </g>
                            <g id="logistics_step_storage2" transform="translate(70.500000, 208.000000)">
                                <path d="M7.99471669,17 C3.57935659,17 0,20.5861677 0,24.9991061 L0,30.0008939 C0,34.4186782 3.58842893,38 7.99471669,38 L135.005283,38 C139.420643,38 143,34.4138323 143,30.0008939 L143,24.9991061 C143,20.5813218 139.411571,17 135.005283,17 L7.99471669,17 L7.99471669,17 Z" id="Rectangle-3" fill="#D8D8D8" sketch:type="MSShapeGroup"></path>
                                <g id="Storage-location-#2" transform="translate(3.500000, 0.282066)" font-weight="bold" font-family="Lucida Grande" sketch:type="MSTextLayer" sketch:alignment="middle" fill="#929292" font-size="8.65140282">
                                    <g id="Group">
                                        <text id="Storage-location--2">
                                            <tspan x="25.706712" y="8.32490528" fill="#000000">Storage location  2</tspan>
                                        </text>
                                    </g>
                                </g>
                            </g>
                            <g id="logistics_step_storage3" transform="translate(70.500000, 459.000000)">
                                <path d="M7.99471669,17 C3.57935659,17 0,20.5861677 0,24.9991061 L0,30.0008939 C0,34.4186782 3.58842893,38 7.99471669,38 L135.005283,38 C139.420643,38 143,34.4138323 143,30.0008939 L143,24.9991061 C143,20.5813218 139.411571,17 135.005283,17 L7.99471669,17 L7.99471669,17 Z" id="Rectangle-3" fill="#D8D8D8" sketch:type="MSShapeGroup"></path>
                                <g id="Storage-location-#2" transform="translate(3.500000, 0.282066)" font-weight="bold" font-family="Lucida Grande" sketch:type="MSTextLayer" sketch:alignment="middle" fill="#929292" font-size="8.65140282">
                                    <g id="Group">
                                        <text id="Backup">
                                            <tspan x="51.4856113" y="8.32490528" fill="#000000">Backup</tspan>
                                        </text>
                                    </g>
                                </g>
                            </g>
                            <circle id="Oval-1" stroke="#979797" fill="#D8D8D8" sketch:type="MSShapeGroup" cx="142.5" cy="397.5" r="43.5"></circle>
                            <path d="M11.8333333,11.5294118 L8.08333333,0 L10.5833333,0 L19.75,11.5294118 L28.4938168,11.5294118 C29.8787172,11.5294118 31,12.6355318 31,14 C31,15.3616918 29.8779435,16.4705882 28.4938168,16.4705882 L19.75,16.4705882 L10.5833333,28 L8.08333333,28 L11.8333333,16.4705882 L4.33333333,16.4705882 L1,21 L1,16.4705882 L1,11.5294118 L1,7 L4.33333333,11.5294118 L11.8333333,11.5294118 Z" id="airplane-mode" fill="#929292" sketch:type="MSShapeGroup"></path>
                        </g>
                        <g id="T3" transform="translate(100.000000, 0.000000)">
                            <g id="T3-building" transform="translate(280.000000, 5.000000)" fill="#929292" sketch:type="MSShapeGroup">
                                <g id="Group">
                                    <path d="M5.30273438,16.2811317 L5.30273438,3.36120981 L0.17578125,3.36120981 L0.17578125,1.82800669 L12.4804688,1.82800669 L12.4804688,3.36120981 L7.35351563,3.36120981 L7.35351563,16.2811317 L5.30273438,16.2811317 Z M14.6777344,16.1737098 L14.6777344,14.3768348 C16.0579496,14.9237125 17.1451783,15.1971473 17.9394531,15.1971473 C18.8574265,15.1971473 19.6044893,14.9285953 20.1806641,14.3914832 C20.7568388,13.8543712 21.0449219,13.1593912 21.0449219,12.3065223 C21.0449219,10.2752622 19.6224101,9.25964731 16.7773438,9.25964731 L16.015625,9.25964731 L16.015625,7.96081919 L16.6894531,7.95105356 C19.3587373,7.95105356 20.6933594,7.01030776 20.6933594,5.12878794 C20.6933594,3.65091596 19.8144619,2.91199106 18.0566406,2.91199106 C17.0930941,2.91199106 16.0319068,3.18217065 14.8730469,3.72253794 L14.8730469,2.04285044 C16.0123755,1.65873393 17.1191353,1.46667856 18.1933594,1.46667856 C21.1491033,1.46667856 22.6269531,2.58320386 22.6269531,4.81628794 C22.6269531,6.51551518 21.6211038,7.72644057 19.609375,8.44910044 C21.9401158,8.98946772 23.1054688,10.2654966 23.1054688,12.2772254 C23.1054688,13.6379093 22.6562545,14.705607 21.7578125,15.4803504 C20.8593705,16.2550939 19.6256589,16.6424598 18.0566406,16.6424598 C17.1647091,16.6424598 16.0384183,16.4862114 14.6777344,16.1737098 C14.6777344,16.1737098 16.0384183,16.4862114 14.6777344,16.1737098 Z M33.5449219,16.3983192 L33.5449219,0.861209812 L35.46875,0.861209812 L35.46875,7.66785044 C36.2565144,6.18346802 37.4381432,5.44128794 39.0136719,5.44128794 C40.2897199,5.44128794 41.2939417,5.90677807 42.0263672,6.83777231 C42.7587927,7.76876655 43.125,9.04154028 43.125,10.6561317 C43.125,12.413953 42.7099651,13.831582 41.8798828,14.9090614 C41.0498005,15.9865407 39.9576891,16.5252723 38.6035156,16.5252723 C37.3469989,16.5252723 36.3020875,16.0435063 35.46875,15.0799598 L35.234375,16.3983192 L33.5449219,16.3983192 Z M35.46875,13.7518348 C36.4583383,14.6372559 37.4023393,15.0799598 38.3007812,15.0799598 C40.1497488,15.0799598 41.0742188,13.6704687 41.0742188,10.8514442 C41.0742188,8.36445259 40.2539145,7.12097544 38.6132812,7.12097544 C37.5390571,7.12097544 36.4908905,7.7036519 35.46875,8.86902231 C35.46875,8.86902231 36.4908905,7.7036519 35.46875,8.86902231 L35.46875,13.7518348 Z M52.7636719,16.2811317 L52.7636719,14.2889442 C51.7415313,15.7798371 50.5013094,16.5252723 49.0429688,16.5252723 C48.118485,16.5252723 47.3828152,16.2339341 46.8359375,15.6512489 C46.2890598,15.0685637 46.015625,14.2824387 46.015625,13.2928504 L46.015625,5.67566294 L47.9394531,5.67566294 L47.9394531,12.6678504 C47.9394531,13.4621252 48.0550119,14.0268982 48.2861328,14.3621864 C48.5172538,14.6974745 48.9029921,14.8651161 49.4433594,14.8651161 C50.6152402,14.8651161 51.722,14.0936394 52.7636719,12.5506629 L52.7636719,5.67566294 L54.6875,5.67566294 L54.6875,16.2811317 L52.7636719,16.2811317 Z M58.5449219,16.2811317 L58.5449219,5.67566294 L60.46875,5.67566294 L60.46875,16.2811317 L58.5449219,16.2811317 Z M58.5449219,3.75183481 L58.5449219,1.82800669 L60.46875,1.82800669 L60.46875,3.75183481 L58.5449219,3.75183481 Z M64.3261719,16.2811317 L64.3261719,0.861209812 L66.25,0.861209812 L66.25,16.2811317 L64.3261719,16.2811317 Z M76.9140625,16.2811317 L76.9140625,14.2889442 C76.1328086,15.7798371 74.954435,16.5252723 73.3789062,16.5252723 C72.1028582,16.5252723 71.0986365,16.0597822 70.3662109,15.1287879 C69.6337854,14.1977937 69.2675781,12.92502 69.2675781,11.3104286 C69.2675781,9.54609682 69.682613,8.12684018 70.5126953,7.05261606 C71.3427776,5.97839194 72.4348891,5.44128794 73.7890625,5.44128794 C75.0455792,5.44128794 76.0872354,5.92305395 76.9140625,6.88660044 L76.9140625,0.861209812 L78.8476562,0.861209812 L78.8476562,16.2811317 L76.9140625,16.2811317 Z M76.9140625,8.20495981 C75.9179638,7.32604917 74.9739628,6.88660044 74.0820312,6.88660044 C72.2395741,6.88660044 71.3183594,8.29609155 71.3183594,11.1151161 C71.3183594,13.5955972 72.1386637,14.8358192 73.7792969,14.8358192 C74.8470105,14.8358192 75.891922,14.2531427 76.9140625,13.0877723 C76.9140625,13.0877723 75.891922,14.2531427 76.9140625,13.0877723 L76.9140625,8.20495981 Z M82.6953125,16.2811317 L82.6953125,5.67566294 L84.6191406,5.67566294 L84.6191406,16.2811317 L82.6953125,16.2811317 Z M82.6953125,3.75183481 L82.6953125,1.82800669 L84.6191406,1.82800669 L84.6191406,3.75183481 L82.6953125,3.75183481 Z M88.4765625,16.2811317 L88.4765625,5.67566294 L90.4003906,5.67566294 L90.4003906,7.66785044 C91.4160207,6.18346802 92.6594979,5.44128794 94.1308594,5.44128794 C95.0488327,5.44128794 95.7812473,5.73262617 96.328125,6.31531137 C96.8750027,6.89799658 97.1484375,7.68086636 97.1484375,8.66394419 L97.1484375,16.2811317 L95.2246094,16.2811317 L95.2246094,9.28894419 C95.2246094,8.50117983 95.1090506,7.93966201 94.8779297,7.60437387 C94.6468087,7.26908574 94.2643256,7.10144419 93.7304688,7.10144419 C92.5520774,7.10144419 91.4420625,7.87292085 90.4003906,9.41589731 L90.4003906,16.2811317 L88.4765625,16.2811317 Z M100.927734,19.8065223 L101.152344,18.1366004 C102.265631,18.6639468 103.362625,18.9276161 104.443359,18.9276161 C106.611339,18.9276161 107.695312,17.778539 107.695312,15.4803504 L107.695312,13.8104286 C106.985674,15.294811 105.820321,16.0369911 104.199219,16.0369911 C102.929681,16.0369911 101.920577,15.5747561 101.171875,14.6502723 C100.423173,13.7257885 100.048828,12.4790562 100.048828,10.9100379 C100.048828,9.29544653 100.475256,7.98035552 101.328125,6.96472544 C102.180994,5.94909536 103.284498,5.44128794 104.638672,5.44128794 C105.823574,5.44128794 106.842444,5.92305395 107.695312,6.88660044 L107.695312,5.67566294 L109.628906,5.67566294 L109.628906,13.3905067 C109.628906,15.0506712 109.542644,16.2795001 109.370117,17.0770301 C109.19759,17.8745602 108.8737,18.5272229 108.398438,19.0350379 C107.55859,19.9269695 106.253264,20.3729286 104.482422,20.3729286 C103.245437,20.3729286 102.060553,20.1841284 100.927734,19.8065223 C100.927734,19.8065223 102.060553,20.1841284 100.927734,19.8065223 Z M107.695312,12.6092567 L107.695312,8.20495981 C106.848954,7.32604917 105.927739,6.88660044 104.931641,6.88660044 C104.04622,6.88660044 103.352867,7.2414146 102.851562,7.95105356 C102.350258,8.66069253 102.099609,9.63399009 102.099609,10.8709754 C102.099609,13.1952058 102.916658,14.3573036 104.550781,14.3573036 C105.664068,14.3573036 106.712235,13.7746271 107.695312,12.6092567 C107.695312,12.6092567 106.712235,13.7746271 107.695312,12.6092567 Z" id="T3-building"></path>
                                </g>
                            </g>
                            <g id="logistics_step_problem_bag" transform="translate(320.500000, 85.000000)">
                                <path d="M0,25.9991061 L0,31.0008939 C0,35.4186782 3.58842893,39 7.99471669,39 L135.005283,39 C139.420643,39 143,35.4138323 143,31.0008939 L143,25.9991061 C143,21.5813218 139.411571,18 135.005283,18 L7.99471669,18 C3.57935659,18 0,21.5861677 0,25.9991061 Z" id="Rectangle-3" fill="#D8D8D8" sketch:type="MSShapeGroup"></path>
                                <g id="Problem-bag" font-weight="bold" font-family="Lucida Grande" sketch:type="MSTextLayer" sketch:alignment="middle" fill="#929292" font-size="8.65140282">
                                    <g id="Group">
                                        <text id="Problem-bag">
                                            <tspan x="43.4272962" y="8.34611079" fill="#000000">Problem bag</tspan>
                                        </text>
                                    </g>
                                </g>
                            </g>
                            <g id="logistics_step_a" transform="translate(320.500000, 268.000000)">
                                <path d="M7.99471669,19 C3.57935659,19 0,22.5861677 0,26.9991061 L0,32.0008939 C0,36.4186782 3.58842893,40 7.99471669,40 L135.005283,40 C139.420643,40 143,36.4138323 143,32.0008939 L143,26.9991061 C143,22.5813218 139.411571,19 135.005283,19 L7.99471669,19 L7.99471669,19 Z" id="Rectangle-3" fill="#D8D8D8" sketch:type="MSShapeGroup"></path>
                                <g id="Problem-bag" transform="translate(2.500000, 0.282066)" font-weight="bold" font-family="Lucida Grande" sketch:type="MSTextLayer" sketch:alignment="middle" fill="#929292" font-size="8.65140282">
                                    <g id="Group">
                                        <text id="Process-A">
                                            <tspan x="46.778558" y="8.32490528" fill="#000000">Process A</tspan>
                                        </text>
                                    </g>
                                </g>
                            </g>
                            <g id="logistics_step_1a" transform="translate(432.500000, 494.000000)">
                                <path d="M7.99471669,19 C3.57935659,19 0,22.5861677 0,26.9991061 L0,32.0008939 C0,36.4186782 3.58842893,40 7.99471669,40 L135.005283,40 C139.420643,40 143,36.4138323 143,32.0008939 L143,26.9991061 C143,22.5813218 139.411571,19 135.005283,19 L7.99471669,19 L7.99471669,19 Z" id="Rectangle-3" fill="#D8D8D8" sketch:type="MSShapeGroup"></path>
                                <g id="Problem-bag" transform="translate(2.500000, 0.282066)" font-weight="bold" font-family="Lucida Grande" sketch:type="MSTextLayer" sketch:alignment="middle" fill="#929292" font-size="8.65140282">
                                    <g id="Group">
                                        <text id="Check-B">
                                            <tspan x="50.8529125" y="8.32490528" fill="#000000">Check B</tspan>
                                        </text>
                                    </g>
                                </g>
                            </g>
                            <g id="logistics_step_1b" transform="translate(432.500000, 437.000000)">
                                <path d="M7.99471669,19 C3.57935659,19 0,22.5861677 0,26.9991061 L0,32.0008939 C0,36.4186782 3.58842893,40 7.99471669,40 L135.005283,40 C139.420643,40 143,36.4138323 143,32.0008939 L143,26.9991061 C143,22.5813218 139.411571,19 135.005283,19 L7.99471669,19 L7.99471669,19 Z" id="Rectangle-3" fill="#D8D8D8" sketch:type="MSShapeGroup"></path>
                                <g id="Problem-bag" transform="translate(2.500000, 0.282066)" font-weight="bold" font-family="Lucida Grande" sketch:type="MSTextLayer" sketch:alignment="middle" fill="#929292" font-size="8.65140282">
                                    <g id="Group">
                                        <text id="Check-a">
                                            <tspan x="50.3924618" y="8.32490528" fill="#000000">Check A</tspan>
                                        </text>
                                    </g>
                                </g>
                            </g>
                            <g id="logistics_step_1c" transform="translate(432.500000, 375.000000)">
                                <path d="M7.99471669,19 C3.57935659,19 0,22.5861677 0,26.9991061 L0,32.0008939 C0,36.4186782 3.58842893,40 7.99471669,40 L135.005283,40 C139.420643,40 143,36.4138323 143,32.0008939 L143,26.9991061 C143,22.5813218 139.411571,19 135.005283,19 L7.99471669,19 L7.99471669,19 Z" id="Rectangle-3" fill="#D8D8D8" sketch:type="MSShapeGroup"></path>
                                <g id="Problem-bag" transform="translate(2.500000, 0.282066)" font-weight="bold" font-family="Lucida Grande" sketch:type="MSTextLayer" sketch:alignment="middle" fill="#929292" font-size="8.65140282">
                                    <g id="Group">
                                        <text id="Check-a">
                                            <tspan x="45.5999733" y="8.32490528" fill="#000000">Fallback A</tspan>
                                        </text>
                                    </g>
                                </g>
                            </g>
                            <g id="logistics_step_b" transform="translate(548.000000, 269.000000)">
                                <path d="M7.99471669,18 C3.57935659,18 0,21.5861677 0,25.9991061 L0,31.0008939 C0,35.4186782 3.58842893,39 7.99471669,39 L135.005283,39 C139.420643,39 143,35.4138323 143,31.0008939 L143,25.9991061 C143,21.5813218 139.411571,18 135.005283,18 L7.99471669,18 L7.99471669,18 Z" id="Rectangle-3" fill="#D8D8D8" sketch:type="MSShapeGroup"></path>
                                <g id="Problem-bag" transform="translate(4.500000, 0.282066)" font-weight="bold" font-family="Lucida Grande" sketch:type="MSTextLayer" sketch:alignment="middle" fill="#929292" font-size="8.65140282">
                                    <g id="Group">
                                        <text id="Process-B">
                                            <tspan x="44.2390086" y="8.32490528" fill="#000000">Process B</tspan>
                                        </text>
                                    </g>
                                </g>
                            </g>
                            <g id="logistics_step_c" transform="translate(775.500000, 269.304688)">
                                <path d="M7.99471669,18 C3.57935659,18 0,21.5861677 0,25.9991061 L0,31.0008939 C0,35.4186782 3.58842893,39 7.99471669,39 L135.005283,39 C139.420643,39 143,35.4138323 143,31.0008939 L143,25.9991061 C143,21.5813218 139.411571,18 135.005283,18 L7.99471669,18 L7.99471669,18 Z" id="Rectangle-3" fill="#D8D8D8" sketch:type="MSShapeGroup"></path>
                                <g id="Problem-bag" transform="translate(5.500000, 0.282066)" font-weight="bold" font-family="Lucida Grande" sketch:type="MSTextLayer" sketch:alignment="middle" fill="#929292" font-size="8.65140282">
                                    <g id="Group">
                                        <text id="Process-C">
                                            <tspan x="42.8820538" y="8.32490528" fill="#000000">Process C</tspan>
                                        </text>
                                    </g>
                                </g>
                            </g>
                            <g id="logistics_step_bag_entery" transform="translate(548.000000, 85.000000)">
                                <path d="M7.99471669,18 C3.57935659,18 0,21.5861677 0,25.9991061 L0,31.0008939 C0,35.4186782 3.58842893,39 7.99471669,39 L135.005283,39 C139.420643,39 143,35.4138323 143,31.0008939 L143,25.9991061 C143,21.5813218 139.411571,18 135.005283,18 L7.99471669,18 L7.99471669,18 Z" id="Rectangle-3" fill="#D8D8D8" sketch:type="MSShapeGroup"></path>
                                <g id="Bag-entery" transform="translate(2.500000, 0.282066)" font-weight="bold" font-family="Lucida Grande" sketch:type="MSTextLayer" sketch:alignment="middle" fill="#929292" font-size="8.65140282">
                                    <g id="Group">
                                        <text id="Bag-entery">
                                            <tspan x="45.8015772" y="8" fill="#000000">Bag entery</tspan>
                                        </text>
                                    </g>
                                </g>
                            </g>
                            <g id="logistics_step_re_entry" transform="translate(776.500000, 86.000000)">
                                <path d="M7.99471669,17 C3.57935659,17 0,20.5861677 0,24.9991061 L0,30.0008939 C0,34.4186782 3.58842893,38 7.99471669,38 L135.005283,38 C139.420643,38 143,34.4138323 143,30.0008939 L143,24.9991061 C143,20.5813218 139.411571,17 135.005283,17 L7.99471669,17 L7.99471669,17 Z" id="Rectangle-3" fill="#D8D8D8" sketch:type="MSShapeGroup"></path>
                                <g id="Re-entery" transform="translate(5.000000, 0.282066)" font-weight="bold" font-family="Lucida Grande" sketch:type="MSTextLayer" sketch:alignment="middle" fill="#929292" font-size="8.65140282">
                                    <g id="Group">
                                        <text id="Re-entery">
                                            <tspan x="44.0667604" y="8.32490528" fill="#000000">Re-entery</tspan>
                                        </text>
                                    </g>
                                </g>
                            </g>
                            <g id="logistics_step_loop" transform="translate(320.500000, 176.000000)">
                                <path d="M0,26.9991061 L0,32.0008939 C0,36.4186782 3.58632295,40 7.99945669,40 L593.000543,40 C597.418521,40 601,36.4138323 601,32.0008939 L601,26.9991061 C601,22.5813218 597.413677,19 593.000543,19 L7.99945669,19 C3.58147875,19 0,22.5861677 0,26.9991061 L0,26.9991061 Z" id="Rectangle-3" fill="#D8D8D8" sketch:type="MSShapeGroup"></path>
                                <g id="Re-entery" transform="translate(3.000000, 0.282066)" font-weight="bold" font-family="Lucida Grande" fill="#929292" sketch:alignment="middle" font-size="8.65140282" sketch:type="MSTextLayer">
                                    <g id="Automation-loop">
                                        <text>
                                            <tspan x="258.733069" y="8.32490528" fill="#000000">Automation loop</tspan>
                                        </text>
                                    </g>
                                </g>
                            </g>
                            <g id="logistics_step_loop2" transform="translate(611.000000, 437.000000)">
                                <path d="M0,26.9991061 L0,32.0008939 C0,36.4186782 2.15418067,40 4.80499811,40 L356.195002,40 C358.848729,40 361,36.4138323 361,32.0008939 L361,26.9991061 C361,22.5813218 358.845819,19 356.195002,19 L4.80499811,19 C2.15127093,19 0,22.5861677 0,26.9991061 L0,26.9991061 Z" id="Rectangle-3" fill="#D8D8D8" sketch:type="MSShapeGroup"></path>
                                <g id="Re-entery" transform="translate(2.000000, 0.000000)" font-weight="bold" font-family="Lucida Grande" fill="#929292" sketch:alignment="middle" font-size="8.65140282" sketch:type="MSTextLayer">
                                    <g id="Automation-loop">
                                        <text>
                                            <tspan x="140.733069" y="8" fill="#000000">Automation loop</tspan>
                                        </text>
                                    </g>
                                </g>
                            </g>
                            <path d="M237,40 L237,579 L1003,579 L1003,40 L237,40 L237,40 Z" id="Terminal-#1" stroke="#979797" stroke-dasharray="4" sketch:type="MSShapeGroup"></path>
                            <path d="M238.5,337.5 L1003.50067,337.5" id="Line" stroke="#979797" stroke-linecap="square" stroke-dasharray="4" sketch:type="MSShapeGroup"></path>
                            <path d="M860.258221,224.304688 L860.258221,234.031412 L860.258221,243.757813 L860.258221,261.93083" id="Path-67" stroke="#979797" fill="#D8D8D8" sketch:type="MSShapeGroup"></path>
                            <path id="Path-67-decoration-1" d="M860.258221,225.104688 C861.308221,228.884688 862.208221,232.124688 863.258221,235.904688 C861.158221,235.904688 859.358221,235.904687 857.258221,235.904687 C858.308221,232.124687 859.208221,228.884687 860.258221,225.104688 C860.258221,225.104688 860.258221,225.104688 860.258221,225.104688 Z" stroke="#979797" fill="#D8D8D8"></path>
                            <path d="M619,224.304688 L619,234.031412 L619,243.757813 L619,261.93083" id="Path-67" stroke="#979797" fill="#D8D8D8" sketch:type="MSShapeGroup"></path>
                            <path id="Path-67-decoration-1" d="M619,225.104688 C620.05,228.884688 620.95,232.124688 622,235.904688 C619.9,235.904688 618.1,235.904687 616,235.904687 C617.05,232.124687 617.95,228.884687 619,225.104688 C619,225.104688 619,225.104688 619,225.104688 Z" stroke="#979797" fill="#D8D8D8"></path>
                            <path d="M899.023438,142.478817 L899.023438,158.980373 L961.072071,158.980373 L961.072071,250.130558 L861.258221,250.130558" id="Path-68" stroke="#979797" sketch:type="MSShapeGroup"></path>
                            <path d="M239,15.5 C239,24.06034 245.93966,31 254.5,31 C263.06034,31 270,24.06034 270,15.5 C270,6.93966 263.05972,0 254.5,0 C245.93966,0 239,6.93966 239,15.5 Z M261.424886,25.6294952 C259.791386,25.2074633 258.392295,24.3259808 258.392295,24.3259808 L257.850454,22.3115144 C257.850454,22.2244089 257.763931,20.9448179 257.763931,20.9448179 C258.97709,20.5368946 258.850681,18.1329073 258.850681,18.1329073 C259.621409,18.5592332 260.120909,16.0460575 260.120909,16.0460575 C261.424886,12.788139 259.669272,13.5641661 259.669272,13.5641661 C260.101886,11.5865048 260.634295,11.6432782 260.634295,9.21425719 C260.634295,6.7852362 256.956611,4.65974412 254.5,4.65974441 C252.043388,4.65974474 248.564415,6.85433307 248.564415,9.21425719 C248.564415,11.5741813 249.225182,13.5641657 249.225182,13.5641657 C246.983582,13.5641657 249.187136,15.3277444 249.225182,16.3552204 C249.281636,17.8715911 250.207,18.1709393 250.207,18.1709393 C250.265295,20.6724601 250.883841,21.0012524 250.883841,21.0012524 C251.114568,22.5722173 250.883841,22.4366518 250.883841,22.4366518 L250.486818,24.2769073 C250.486818,24.2769073 249.445477,25.028345 248.164204,25.589623 C247.371386,25.9374313 246.512295,25.6779553 245.70475,26 C242.819432,23.4150543 241,19.664 241,15.4952077 C241,7.71583387 246.717863,2 254.5,2 C262.283363,2 267.999999,7.71583387 267.999999,15.4952077 C268.001227,19.4922428 266.326613,23.1034377 263.645636,25.6736613 C263.645636,25.6736613 262.154499,25.8178147 261.424886,25.6294952 Z" id="contacts" fill="#929292" sketch:type="MSShapeGroup"></path>
                            <g id="Path-65-+-0-+-0" transform="translate(0.000000, 131.000000)">
                                <path d="M389.957031,-0.1640625 L389.957031,39.6239949" id="Path-65" stroke="#D8D8D8" fill="#D8D8D8" sketch:type="MSShapeGroup"></path>
                                <path id="Path-65-decoration-1" d="M389.957031,38.8359357 C391.007031,35.0559359 391.907031,31.8159361 392.957031,28.0359363 C390.857031,28.0359362 389.057031,28.0359361 386.957031,28.035936 C388.007031,31.8159359 388.907031,35.0559358 389.957031,38.8359357 C389.957031,38.8359357 389.957031,38.8359357 389.957031,38.8359357 Z" stroke="#D8D8D8" fill="#D8D8D8"></path>
                                <path id="Path-65-decoration-2" d="M389.957031,0.635937462 C391.007031,4.41593733 391.907031,7.65593722 392.957031,11.4359371 C390.857031,11.435937 389.057031,11.4359369 386.957031,11.4359368 C388.007031,7.65593705 388.907031,4.41593724 389.957031,0.635937462 C389.957031,0.635937462 389.957031,0.635937462 389.957031,0.635937462 Z" stroke="#D8D8D8" fill="#D8D8D8"></path>
                                <text id="process_down" sketch:type="MSTextLayer" font-family="Lucida Grande" font-size="8.65140282" font-weight="normal" sketch:alignment="middle" fill="#929292">
                                    <tspan x="400" y="12">0</tspan>
                                </text>
                                <text id="process_up" sketch:type="MSTextLayer" font-family="Lucida Grande" font-size="8.65140282" font-weight="normal" sketch:alignment="middle" fill="#929292">
                                    <tspan x="400" y="37">0</tspan>
                                </text>
                                <text id="process_up" sketch:type="MSTextLayer" font-family="Lucida Grande" font-size="8.65140282" font-weight="normal" sketch:alignment="middle" fill="#929292">
                                    <tspan x="148" y="38">0</tspan>
                                </text>
                                <text id="process_up" sketch:type="MSTextLayer" font-family="Lucida Grande" font-size="8.65140282" font-weight="normal" sketch:alignment="middle" fill="#929292">
                                    <tspan x="148" y="113">0</tspan>
                                </text>
                                <text id="process_up" sketch:type="MSTextLayer" font-family="Lucida Grande" font-size="40" font-weight="normal" sketch:alignment="middle" fill="#929292">
                                    <tspan x="17.2070312" y="281">00</tspan>
                                </text>
                            </g>
                            <g id="Path-65-+-0-+-0" transform="translate(620.000000, 131.000000)">
                                <path d="M0.95703125,-0.1640625 L0.95703125,39.6239949" id="Path-65" stroke="#D8D8D8" fill="#D8D8D8" sketch:type="MSShapeGroup"></path>
                                <path id="Path-65-decoration-1" d="M0.95703125,38.8359357 C2.00703125,35.0559359 2.90703125,31.8159361 3.95703125,28.0359363 C1.85703125,28.0359362 0.05703125,28.0359361 -2.04296875,28.035936 C-0.99296875,31.8159359 -0.09296875,35.0559358 0.95703125,38.8359357 C0.95703125,38.8359357 0.95703125,38.8359357 0.95703125,38.8359357 Z" stroke="#D8D8D8" fill="#D8D8D8"></path>
                                <path id="Path-65-decoration-2" d="M0.95703125,0.635937462 C2.00703125,4.41593733 2.90703125,7.65593722 3.95703125,11.4359371 C1.85703125,11.435937 0.05703125,11.4359369 -2.04296875,11.4359368 C-0.99296875,7.65593705 -0.09296875,4.41593724 0.95703125,0.635937462 C0.95703125,0.635937462 0.95703125,0.635937462 0.95703125,0.635937462 Z" stroke="#D8D8D8" fill="#D8D8D8"></path>
                                <text id="process_down" sketch:type="MSTextLayer" font-family="Lucida Grande" font-size="8.65140282" font-weight="normal" sketch:alignment="middle" fill="#929292">
                                    <tspan x="11" y="12">0</tspan>
                                </text>
                                <text id="process_up" sketch:type="MSTextLayer" font-family="Lucida Grande" font-size="8.65140282" font-weight="normal" sketch:alignment="middle" fill="#929292">
                                    <tspan x="11" y="37">0</tspan>
                                </text>
                            </g>
                            <g id="Path-65-+-0-+-0" transform="translate(851.000000, 132.000000)">
                                <path d="M0.95703125,-0.1640625 L0.95703125,39.6239949" id="Path-65" stroke="#D8D8D8" fill="#D8D8D8" sketch:type="MSShapeGroup"></path>
                                <path id="Path-65-decoration-1" d="M0.95703125,38.8359357 C2.00703125,35.0559359 2.90703125,31.8159361 3.95703125,28.0359363 C1.85703125,28.0359362 0.05703125,28.0359361 -2.04296875,28.035936 C-0.99296875,31.8159359 -0.09296875,35.0559358 0.95703125,38.8359357 C0.95703125,38.8359357 0.95703125,38.8359357 0.95703125,38.8359357 Z" stroke="#D8D8D8" fill="#D8D8D8"></path>
                                <path id="Path-65-decoration-2" d="M0.95703125,0.635937462 C2.00703125,4.41593733 2.90703125,7.65593722 3.95703125,11.4359371 C1.85703125,11.435937 0.05703125,11.4359369 -2.04296875,11.4359368 C-0.99296875,7.65593705 -0.09296875,4.41593724 0.95703125,0.635937462 C0.95703125,0.635937462 0.95703125,0.635937462 0.95703125,0.635937462 Z" stroke="#D8D8D8" fill="#D8D8D8"></path>
                                <text id="process_down" sketch:type="MSTextLayer" font-family="Lucida Grande" font-size="8.65140282" font-weight="normal" sketch:alignment="middle" fill="#929292">
                                    <tspan x="11" y="12">0</tspan>
                                </text>
                                <text id="process_up" sketch:type="MSTextLayer" font-family="Lucida Grande" font-size="8.65140282" font-weight="normal" sketch:alignment="middle" fill="#929292">
                                    <tspan x="11" y="37">0</tspan>
                                </text>
                            </g>
                            <path d="M487.263672,297.029297 L526.796081,297.029297" id="Path-84" stroke="#979797" fill="#D8D8D8" sketch:type="MSShapeGroup"></path>
                            <path id="Path-84-decoration-1" d="M488.063672,297.029297 C491.843672,295.979297 495.083672,295.079297 498.863672,294.029297 C498.863672,296.129297 498.863672,297.929297 498.863672,300.029297 C495.083672,298.979297 491.843672,298.079297 488.063672,297.029297 C488.063672,297.029297 488.063672,297.029297 488.063672,297.029297 Z" stroke="#979797" fill="#D8D8D8"></path>
                            <path id="Path-84-decoration-2" d="M526.263671,297.029297 C522.483671,295.979297 519.243671,295.079297 515.463671,294.029297 C515.463671,296.129297 515.463671,297.929297 515.463671,300.029297 C519.243671,298.979297 522.483671,298.079297 526.263671,297.029297 C526.263671,297.029297 526.263671,297.029297 526.263671,297.029297 Z" stroke="#979797" fill="#D8D8D8"></path>
                            <text id="counter1" sketch:type="MSTextLayer" font-family="Lucida Grande" font-size="40" font-weight="normal" sketch:alignment="middle" fill="#929292">
                                <tspan x="624" y="441">0</tspan>
                            </text>
                            <rect id="Rectangle-1" stroke="#979797" stroke-dasharray="4" sketch:type="MSShapeGroup" x="590" y="387" width="402" height="161"></rect>
                        </g>
                        <path d="M241.171875,164.996094 L241.171875,240.644402" id="Path-69" stroke="#979797" sketch:type="MSShapeGroup"></path>
                        <path d="M365.091797,204.087891 L241.17719,204.087891" id="Path-70" stroke="#979797" sketch:type="MSShapeGroup"></path>
                        <path d="M242.003906,165.822266 L219.453125,165.822266" id="Path-71" stroke="#979797" fill="#D8D8D8" sketch:type="MSShapeGroup"></path>
                        <path id="Path-71-decoration-1" d="M220.003906,165.822266 C223.783906,166.872266 227.023907,167.772266 230.803907,168.822266 C230.803906,166.722266 230.803906,164.922266 230.803906,162.822266 C227.023906,163.872266 223.783906,164.772266 220.003906,165.822266 C220.003906,165.822266 220.003906,165.822266 220.003906,165.822266 Z" stroke="#979797" fill="#D8D8D8"></path>
                        <path d="M242.003906,239.822266 L219.453125,239.822266" id="Path-71" stroke="#979797" fill="#D8D8D8" sketch:type="MSShapeGroup"></path>
                        <path id="Path-71-decoration-1" d="M220.003906,239.822266 C223.783906,240.872266 227.023907,241.772266 230.803907,242.822266 C230.803906,240.722266 230.803906,238.922266 230.803906,236.822266 C227.023906,237.872266 223.783906,238.772266 220.003906,239.822266 C220.003906,239.822266 220.003906,239.822266 220.003906,239.822266 Z" stroke="#979797" fill="#D8D8D8"></path>
                        <path d="M509.257812,528.625 L509.257812,467.843336 L509.257812,407.357941" id="Path-75" stroke="#979797" sketch:type="MSShapeGroup"></path>
                        <path d="M509.84375,407.804688 L529.012754,407.804688" id="Path-76" stroke="#979797" fill="#D8D8D8" sketch:type="MSShapeGroup"></path>
                        <path id="Path-76-decoration-1" d="M528.84375,407.804688 C525.06375,406.754687 521.82375,405.854688 518.04375,404.804688 C518.04375,406.904688 518.04375,408.704687 518.04375,410.804688 C521.82375,409.754687 525.06375,408.854688 528.84375,407.804688 C528.84375,407.804688 528.84375,407.804688 528.84375,407.804688 Z" stroke="#979797" fill="#D8D8D8"></path>
                        <path d="M509.84375,466.804688 L529.012754,466.804688" id="Path-76" stroke="#979797" fill="#D8D8D8" sketch:type="MSShapeGroup"></path>
                        <path id="Path-76-decoration-1" d="M528.84375,466.804688 C525.06375,465.754687 521.82375,464.854688 518.04375,463.804688 C518.04375,465.904688 518.04375,467.704687 518.04375,469.804688 C521.82375,468.754687 525.06375,467.854688 528.84375,466.804688 C528.84375,466.804688 528.84375,466.804688 528.84375,466.804688 Z" stroke="#979797" fill="#D8D8D8"></path>
                        <path d="M508.84375,524.804688 L528.012754,524.804688" id="Path-76" stroke="#979797" fill="#D8D8D8" sketch:type="MSShapeGroup"></path>
                        <path id="Path-76-decoration-1" d="M527.84375,524.804688 C524.06375,523.754688 520.82375,522.854687 517.04375,521.804688 C517.04375,523.904688 517.04375,525.704687 517.04375,527.804688 C520.82375,526.754688 524.06375,525.854687 527.84375,524.804688 C527.84375,524.804688 527.84375,524.804688 527.84375,524.804688 Z" stroke="#979797" fill="#D8D8D8"></path>
                        <path d="M491.258221,224 L491.258221,233.726725 L491.258221,243.453125 L491.258221,261.626142" id="Path-67" stroke="#979797" fill="#D8D8D8" sketch:type="MSShapeGroup"></path>
                        <path id="Path-67-decoration-1" d="M491.258221,224.8 C492.308221,228.58 493.208221,231.82 494.258221,235.6 C492.158221,235.6 490.358221,235.6 488.258221,235.6 C489.308221,231.82 490.208221,228.58 491.258221,224.8 C491.258221,224.8 491.258221,224.8 491.258221,224.8 Z" stroke="#979797" fill="#D8D8D8"></path>
                        <path d="M225.953125,430.453125 L311.513672,430.179688 L311.513672,204.182282" id="Path-83" stroke="#979797" sketch:type="MSShapeGroup"></path>
                        <text id="process_up" sketch:type="MSTextLayer" font-family="Lucida Grande" font-size="8.65140282" font-weight="normal" sketch:alignment="middle" fill="#929292">
                            <tspan x="498" y="252">0</tspan>
                        </text>
                        <text id="process_up" sketch:type="MSTextLayer" font-family="Lucida Grande" font-size="8.65140282" font-weight="normal" sketch:alignment="middle" fill="#929292">
                            <tspan x="728" y="252">0</tspan>
                        </text>
                        <text id="process_down" sketch:type="MSTextLayer" font-family="Lucida Grande" font-size="8.65140282" font-weight="normal" sketch:alignment="middle" fill="#929292">
                            <tspan x="488" y="412">0</tspan>
                        </text>
                        <text id="process_down" sketch:type="MSTextLayer" font-family="Lucida Grande" font-size="8.65140282" font-weight="normal" sketch:alignment="middle" fill="#929292">
                            <tspan x="488" y="470">0</tspan>
                        </text>
                        <text id="process_down" sketch:type="MSTextLayer" font-family="Lucida Grande" font-size="8.65140282" font-weight="normal" sketch:alignment="middle" fill="#929292">
                            <tspan x="488" y="523">0</tspan>
                        </text>
                    </g>
                </g>
            </g>
        </g>
        <path d="M417.796875,210.109375 L377.751024,210.109375 L377.751024,535.108365 L522.752878,535.108365" id="follow2" stroke="#979797" sketch:type="MSShapeGroup"></path>
        <path d="" id="Path-63" stroke="#979797" sketch:type="MSShapeGroup"></path>
        <path d="M72.9726562,490.570312 L32.3518773,490.570312 L32.3518773,65.4999535 L607.466519,65.4999535 L607.466519,77.8663685 L836.707586,77.8663685 L1046.83131,77.8663685 L1046.83131,144.002305 L1095.76446,144.002305 L1095.76446,284.196142 L1049.74641,284.196142 L1049.74641,451.044787" id="follow" stroke="#D4D4D4" stroke-dasharray="4" sketch:type="MSShapeGroup"></path>
    </g>
</svg>