<?xml version="1.0" encoding="UTF-8" standalone="no"?>
<svg width="1024px" height="768px" viewBox="0 0 1024 768" version="1.1" xmlns="http://www.w3.org/2000/svg" xmlns:xlink="http://www.w3.org/1999/xlink" xmlns:sketch="http://www.bohemiancoding.com/sketch/ns">
    <title>Slice 1</title>
    <description>Created with Sketch (http://www.bohemiancoding.com/sketch)</description>
    <defs></defs>
    <g id="Page-1" stroke="none" stroke-width="1" fill="none" fill-rule="evenodd" sketch:type="MSPage">
        <g id="screen3" sketch:type="MSLayerGroup" transform="translate(54.000000, 79.000000)">
            <g id="Page-1" sketch:type="MSShapeGroup">
                <g id="Group" transform="translate(34.000000, 54.000000)" stroke="#979797">
                    <path d="M765,345 L765,190.511733 L734.51958,190.511733 L734.51958,319.803644 L658.123399,319.803644 L658.123399,188.565694 L615.986215,188.565694 L615.986215,318.524579 L455.243804,318.524579 L455.243804,187 L310,187 L310,342.637071 L765,345 L765,345 Z" id="Path-1"></path>
                    <path d="M0,24 L81.3395635,24 L81.3395635,113 L508,113 L508,72.8215107" id="Path-37"></path>
                    <path d="M180.53199,24 L93,24 L93,107 L516,107 L516,77.8324438" id="Path-38"></path>
                    <path d="M180,24 L180,0" id="Path-39"></path>
                    <path d="M158,24 L158,0" id="Path-39"></path>
                    <path d="M142,24 L142,0" id="Path-39"></path>
                    <path d="M126,24 L126,0" id="Path-39"></path>
                    <path d="M110,24 L110,0" id="Path-39"></path>
                    <path d="M94,24 L94,0" id="Path-39"></path>
                    <path d="M79,24 L79,0" id="Path-39"></path>
                    <path d="M64,24 L64,0" id="Path-39"></path>
                    <path d="M48,24 L48,0" id="Path-39"></path>
                    <path d="M32,24 L32,0" id="Path-39"></path>
                    <path d="M16,24 L16,0" id="Path-39"></path>
                    <path d="M0,24 L0,0" id="Path-39"></path>
                </g>
                <g id="Group" transform="translate(330.000000, 246.000000)">
                    <path d="M454,158 L454,3.5117325 L423.586569,3.5117325 L423.586569,132.803644 L347.358292,132.803644 L347.358292,1.56569378 L305.313718,1.56569378 L305.313718,131.524579 L144.924587,131.524579 L144.924587,0 L0,0 L0,155.637071 L454,158 L454,158 Z" id="Path-1" stroke="#979797"></path>
                    <g id="Path-3-+-Path-2-+-Oval-1" transform="translate(145.000000, 21.000000)">
                        <path d="M70,4 L50,4" id="Path-3" stroke="#9B9B9B" fill="#9B9B9B"></path>
                        <path d="M51,3.5 C54.15,4.375 56.85,5.125 60,6 L59.9999993,1 L51,3.5 L51,3.5 L51,3.5 Z" id="Path-3-decoration-1" stroke="#9B9B9B" fill="#9B9B9B"></path>
                        <path d="M0,0.115127491 L8.95341538,0.115127491 L8.95341538,5 L134.882223,5 L134.882223,0 L160,0" id="Path-2" stroke="#979797"></path>
                        <ellipse id="Oval-1" fill="#303BA3" cx="2" cy="2.5" rx="2" ry="2.5"></ellipse>
                    </g>
                    <g id="Path-3-+-Path-2-+-Oval-1" transform="translate(225.000000, 40.000000) scale(-1, 1) translate(-225.000000, -40.000000) translate(145.000000, 37.000000)">
                        <path d="M70,4 L50,4" id="Path-3" stroke="#9B9B9B" fill="#9B9B9B"></path>
                        <path d="M51,3.5 C54.15,4.375 56.85,5.125 60,6 L59.9999993,1 L51,3.5 L51,3.5 L51,3.5 Z" id="Path-3-decoration-1" stroke="#9B9B9B" fill="#9B9B9B"></path>
                        <path d="M0,0.115127491 L8.95341538,0.115127491 L8.95341538,5 L134.882223,5 L134.882223,0 L160,0" id="Path-2" stroke="#979797"></path>
                        <ellipse id="Oval-1" fill="#D0011B" cx="2" cy="2.5" rx="2" ry="2.5"></ellipse>
                    </g>
                    <g id="Path-3-+-Path-2-+-Oval-1" transform="translate(145.000000, 50.000000)">
                        <path d="M70,4 L50,4" id="Path-3" stroke="#9B9B9B" fill="#9B9B9B"></path>
                        <path d="M51,3.5 C54.15,4.375 56.85,5.125 60,6 L59.9999993,1 L51,3.5 L51,3.5 L51,3.5 Z" id="Path-3-decoration-1" stroke="#9B9B9B" fill="#9B9B9B"></path>
                        <path d="M0,0.115127491 L8.95341538,0.115127491 L8.95341538,5 L134.882223,5 L134.882223,0 L160,0" id="Path-2" stroke="#979797"></path>
                        <ellipse id="Oval-1" fill="#303BA3" cx="2" cy="2.5" rx="2" ry="2.5"></ellipse>
                    </g>
                    <g id="Path-3-+-Path-2-+-Oval-1" transform="translate(225.000000, 68.000000) scale(-1, 1) translate(-225.000000, -68.000000) translate(145.000000, 65.000000)">
                        <path d="M70,4 L50,4" id="Path-3" stroke="#9B9B9B" fill="#9B9B9B"></path>
                        <path d="M51,3.5 C54.15,4.375 56.85,5.125 60,6 L59.9999993,1 L51,3.5 L51,3.5 L51,3.5 Z" id="Path-3-decoration-1" stroke="#9B9B9B" fill="#9B9B9B"></path>
                        <path d="M0,0.115127491 L8.95341538,0.115127491 L8.95341538,5 L134.882223,5 L134.882223,0 L160,0" id="Path-2" stroke="#979797"></path>
                        <ellipse id="Oval-1" fill="#D0011B" cx="2" cy="2.5" rx="2" ry="2.5"></ellipse>
                    </g>
                    <g id="Path-3-+-Path-2-+-Oval-1" transform="translate(145.000000, 80.000000)">
                        <path d="M70,4 L50,4" id="Path-3" stroke="#9B9B9B" fill="#9B9B9B"></path>
                        <path d="M51,3.5 C54.15,4.375 56.85,5.125 60,6 L59.9999993,1 L51,3.5 L51,3.5 L51,3.5 Z" id="Path-3-decoration-1" stroke="#9B9B9B" fill="#9B9B9B"></path>
                        <path d="M0,0.115127491 L8.95341538,0.115127491 L8.95341538,5 L134.882223,5 L134.882223,0 L160,0" id="Path-2" stroke="#979797"></path>
                        <ellipse id="Oval-1" fill="#303BA3" cx="2" cy="2.5" rx="2" ry="2.5"></ellipse>
                    </g>
                    <g id="Path-3-+-Path-2-+-Oval-1" transform="translate(225.000000, 99.000000) scale(-1, 1) translate(-225.000000, -99.000000) translate(145.000000, 96.000000)">
                        <path d="M70,4 L50,4" id="Path-3" stroke="#9B9B9B" fill="#9B9B9B"></path>
                        <path d="M51,3.5 C54.15,4.375 56.85,5.125 60,6 L59.9999993,1 L51,3.5 L51,3.5 L51,3.5 Z" id="Path-3-decoration-1" stroke="#9B9B9B" fill="#9B9B9B"></path>
                        <path d="M0,0.115127491 L8.95341538,0.115127491 L8.95341538,5 L134.882223,5 L134.882223,0 L160,0" id="Path-2" stroke="#979797"></path>
                        <ellipse id="Oval-1" fill="#D0011B" cx="2" cy="2.5" rx="2" ry="2.5"></ellipse>
                    </g>
                    <g id="Path-3-+-Path-2-+-Oval-1" transform="translate(145.000000, 108.000000)">
                        <path d="M70,4 L50,4" id="Path-3" stroke="#9B9B9B" fill="#9B9B9B"></path>
                        <path d="M51,3.5 C54.15,4.375 56.85,5.125 60,6 L59.9999993,1 L51,3.5 L51,3.5 L51,3.5 Z" id="Path-3-decoration-1" stroke="#9B9B9B" fill="#9B9B9B"></path>
                        <path d="M0,0.115127491 L8.95341538,0.115127491 L8.95341538,5 L134.882223,5 L134.882223,0 L160,0" id="Path-2" stroke="#979797"></path>
                        <ellipse id="Oval-1" fill="#303BA3" cx="2" cy="2.5" rx="2" ry="2.5"></ellipse>
                    </g>
                    <g id="Path-3-+-Path-2-+-Oval-1" transform="translate(225.000000, 127.000000) scale(-1, 1) translate(-225.000000, -127.000000) translate(145.000000, 124.000000)">
                        <path d="M70,4 L50,4" id="Path-3" stroke="#9B9B9B" fill="#9B9B9B"></path>
                        <path d="M51,3.5 C54.15,4.375 56.85,5.125 60,6 L59.9999993,1 L51,3.5 L51,3.5 L51,3.5 Z" id="Path-3-decoration-1" stroke="#9B9B9B" fill="#9B9B9B"></path>
                        <path d="M0,0.115127491 L8.95341538,0.115127491 L8.95341538,5 L134.882223,5 L134.882223,0 L160,0" id="Path-2" stroke="#979797"></path>
                        <ellipse id="Oval-1" fill="#D0011B" cx="2" cy="2.5" rx="2" ry="2.5"></ellipse>
                    </g>
                </g>
                <g id="connect" transform="translate(691.000000, 249.000000)">
                    <path d="M0,10 L77,10" id="Path-19" stroke="#979797"></path>
                    <path d="M43,11 L43,1" id="Path-20" stroke="#979797"></path>
                    <path d="M31,11 L31,5" id="Path-20" stroke="#979797"></path>
                    <circle id="Oval-1" fill="#D0011B" cx="2" cy="2" r="2"></circle>
                    <circle id="Oval-1" fill="#303BA3" cx="2" cy="2" r="2"></circle>
                    <circle id="Oval-10" stroke="#979797" fill="#9B9B9B" cx="0.5" cy="0.5" r="0.5"></circle>
                    <circle id="Oval-10" stroke="#979797" fill="#9B9B9B" cx="0.5" cy="0.5" r="0.5"></circle>
                </g>
                <g id="connect" transform="translate(693.000000, 274.000000)">
                    <path d="M0,10 L77,10" id="Path-19" stroke="#979797"></path>
                    <path d="M43,11 L43,1" id="Path-20" stroke="#979797"></path>
                    <path d="M31,11 L31,5" id="Path-20" stroke="#979797"></path>
                    <circle id="Oval-1" fill="#D0011B" cx="2" cy="2" r="2"></circle>
                    <circle id="Oval-1" fill="#303BA3" cx="2" cy="2" r="2"></circle>
                    <circle id="Oval-10" stroke="#979797" fill="#9B9B9B" cx="0.5" cy="0.5" r="0.5"></circle>
                    <circle id="Oval-10" stroke="#979797" fill="#9B9B9B" cx="0.5" cy="0.5" r="0.5"></circle>
                </g>
                <g id="connect" transform="translate(693.000000, 294.000000)">
                    <path d="M0,10 L77,10" id="Path-19" stroke="#979797"></path>
                    <path d="M43,11 L43,1" id="Path-20" stroke="#979797"></path>
                    <path d="M31,11 L31,5" id="Path-20" stroke="#979797"></path>
                    <circle id="Oval-1" fill="#D0011B" cx="2" cy="2" r="2"></circle>
                    <circle id="Oval-1" fill="#303BA3" cx="2" cy="2" r="2"></circle>
                    <circle id="Oval-10" stroke="#979797" fill="#9B9B9B" cx="0.5" cy="0.5" r="0.5"></circle>
                    <circle id="Oval-10" stroke="#979797" fill="#9B9B9B" cx="0.5" cy="0.5" r="0.5"></circle>
                </g>
                <g id="connect" transform="translate(678.000000, 315.000000)">
                    <path d="M0,10 L77,10" id="Path-19" stroke="#979797"></path>
                    <path d="M43,11 L43,1" id="Path-20" stroke="#979797"></path>
                    <path d="M31,11 L31,5" id="Path-20" stroke="#979797"></path>
                    <circle id="Oval-1" fill="#D0011B" cx="2" cy="2" r="2"></circle>
                    <circle id="Oval-1" fill="#303BA3" cx="2" cy="2" r="2"></circle>
                    <circle id="Oval-10" stroke="#979797" fill="#9B9B9B" cx="0.5" cy="0.5" r="0.5"></circle>
                    <circle id="Oval-10" stroke="#979797" fill="#9B9B9B" cx="0.5" cy="0.5" r="0.5"></circle>
                </g>
                <g id="connect" transform="translate(678.000000, 336.000000)">
                    <path d="M0,10 L77,10" id="Path-19" stroke="#979797"></path>
                    <path d="M43,11 L43,1" id="Path-20" stroke="#979797"></path>
                    <path d="M31,11 L31,5" id="Path-20" stroke="#979797"></path>
                    <circle id="Oval-1" fill="#D0011B" cx="2" cy="2" r="2"></circle>
                    <circle id="Oval-1" fill="#303BA3" cx="2" cy="2" r="2"></circle>
                    <circle id="Oval-10" stroke="#979797" fill="#9B9B9B" cx="0.5" cy="0.5" r="0.5"></circle>
                    <circle id="Oval-10" stroke="#979797" fill="#9B9B9B" cx="0.5" cy="0.5" r="0.5"></circle>
                </g>
                <g id="connect" transform="translate(678.000000, 353.000000)">
                    <path d="M0,10 L77,10" id="Path-19" stroke="#979797"></path>
                    <path d="M43,11 L43,1" id="Path-20" stroke="#979797"></path>
                    <path d="M31,11 L31,5" id="Path-20" stroke="#979797"></path>
                    <circle id="Oval-1" fill="#D0011B" cx="2" cy="2" r="2"></circle>
                    <circle id="Oval-1" fill="#303BA3" cx="2" cy="2" r="2"></circle>
                    <circle id="Oval-10" stroke="#979797" fill="#9B9B9B" cx="0.5" cy="0.5" r="0.5"></circle>
                    <circle id="Oval-10" stroke="#979797" fill="#9B9B9B" cx="0.5" cy="0.5" r="0.5"></circle>
                </g>
                <g id="Group" transform="translate(261.000000, 46.000000)">
                    <path d="M0,7 L0,81 L362,81 L362,9.08926373" id="Path-51" stroke="#979797"></path>
                    <path d="M26,81 L26,7" id="Path-52" stroke="#979797" fill="#9B9B9B"></path>
                    <path d="M24.5,80 L22,71.0000002 C23.75,71.0000001 25.25,71.0000001 27,71 L24.5,80 L24.5,80 L24.5,80 Z" id="Path-52-decoration-1" stroke="#979797" fill="#9B9B9B"></path>
                    <path d="M50,81 L50,7" id="Path-52" stroke="#979797" fill="#9B9B9B"></path>
                    <path d="M50.5,80 L48,71.0000002 C49.75,71.0000001 51.25,71.0000001 53,71 L50.5,80 L50.5,80 L50.5,80 Z" id="Path-52-decoration-1" stroke="#979797" fill="#9B9B9B"></path>
                    <path d="M76,81 L76,7" id="Path-52" stroke="#979797" fill="#9B9B9B"></path>
                    <path d="M75.5,80 L73,71.0000002 C74.75,71.0000001 76.25,71.0000001 78,71 L75.5,80 L75.5,80 L75.5,80 Z" id="Path-52-decoration-1" stroke="#979797" fill="#9B9B9B"></path>
                    <path d="M102,81 L102,7" id="Path-52" stroke="#979797" fill="#9B9B9B"></path>
                    <path d="M101.5,80 L99,71.0000002 C100.75,71.0000001 102.25,71.0000001 104,71 L101.5,80 L101.5,80 L101.5,80 Z" id="Path-52-decoration-1" stroke="#979797" fill="#9B9B9B"></path>
                    <path d="M115,16.053421 L115,45 L126,45 L126,16" id="Path-56" stroke="#979797"></path>
                    <path d="M115,16 L126,16" id="Path-57" stroke="#979797"></path>
                    <path d="M121,16 L121,8.73145272 L126,8.73145272 L126,5" id="Path-58" stroke="#979797"></path>
                    <path d="M121,9 L115,9 L115,5" id="Path-59" stroke="#979797"></path>
                    <path d="M121,47 L121,63" id="Path-60" stroke="#979797"></path>
                    <path d="M149,0 L149,80" id="Path-61" stroke="#9B9B9B" fill="#9B9B9B"></path>
                    <path d="M149.5,80 L152,71.0000002 L147,71 L149.5,80 L149.5,80 L149.5,80 Z" id="Path-61-decoration-1" stroke="#9B9B9B" fill="#9B9B9B"></path>
                    <path d="M157,6 L157,81" id="Path-62" stroke="#9B9B9B" fill="#9B9B9B"></path>
                    <path d="M156.5,80 L159,71.0000002 L154,71 L156.5,80 L156.5,80 L156.5,80 Z" id="Path-62-decoration-1" stroke="#9B9B9B" fill="#9B9B9B"></path>
                    <path d="M127,31 L156,31" id="Path-63" stroke="#979797"></path>
                    <path d="M115,39 L149,39" id="Path-64" stroke="#979797"></path>
                    <path d="M225,5.17620437 L225,42.8982613 L196,42.8982613 L196,5 L196,80" id="Path-65" stroke="#979797"></path>
                    <path d="M204,5 L204,80" id="Path-66" stroke="#979797" fill="#9B9B9B"></path>
                    <path d="M204.5,79 L207,70.0000002 L202,70 L204.5,79 L204.5,79 L204.5,79 Z" id="Path-66-decoration-1" stroke="#979797" fill="#9B9B9B"></path>
                    <path d="M225,12 L215.563479,12 L215.563479,34 L204,34" id="Path-67" stroke="#979797"></path>
                    <path d="M262,78.6076586 L262,53.3976454 L310.36454,53.3976454 L310.36454,45 L314.237898,45 L314.237898,53.2684124 L323,53.2684124 L323,79" id="Path-68" stroke="#979797"></path>
                    <path d="M322.5,80 L325,71.0000002 L320,71 L322.5,80 L322.5,80 L322.5,80 Z" id="Path-68-decoration-1" stroke="#979797" fill="#9B9B9B"></path>
                </g>
                <g id="Group" transform="translate(451.000000, 40.500000) scale(-1, 1) translate(-451.000000, -40.500000) translate(270.000000, 0.000000)">
                    <path d="M0,7 L0,81 L362,81 L362,9.08926373" id="Path-51" stroke="#979797"></path>
                    <path d="M26,81 L26,7" id="Path-52" stroke="#979797" fill="#9B9B9B"></path>
                    <path d="M24.5,80 L22,71.0000002 C23.75,71.0000001 25.25,71.0000001 27,71 L24.5,80 L24.5,80 L24.5,80 Z" id="Path-52-decoration-1" stroke="#979797" fill="#9B9B9B"></path>
                    <path d="M50,81 L50,7" id="Path-52" stroke="#979797" fill="#9B9B9B"></path>
                    <path d="M50.5,80 L48,71.0000002 C49.75,71.0000001 51.25,71.0000001 53,71 L50.5,80 L50.5,80 L50.5,80 Z" id="Path-52-decoration-1" stroke="#979797" fill="#9B9B9B"></path>
                    <path d="M76,81 L76,7" id="Path-52" stroke="#979797" fill="#9B9B9B"></path>
                    <path d="M75.5,80 L73,71.0000002 C74.75,71.0000001 76.25,71.0000001 78,71 L75.5,80 L75.5,80 L75.5,80 Z" id="Path-52-decoration-1" stroke="#979797" fill="#9B9B9B"></path>
                    <path d="M102,81 L102,7" id="Path-52" stroke="#979797" fill="#9B9B9B"></path>
                    <path d="M101.5,80 L99,71.0000002 C100.75,71.0000001 102.25,71.0000001 104,71 L101.5,80 L101.5,80 L101.5,80 Z" id="Path-52-decoration-1" stroke="#979797" fill="#9B9B9B"></path>
                    <path d="M115,16.053421 L115,45 L126,45 L126,16" id="Path-56" stroke="#979797"></path>
                    <path d="M115,16 L126,16" id="Path-57" stroke="#979797"></path>
                    <path d="M121,16 L121,8.73145272 L126,8.73145272 L126,5" id="Path-58" stroke="#979797"></path>
                    <path d="M121,9 L115,9 L115,5" id="Path-59" stroke="#979797"></path>
                    <path d="M121,47 L121,63" id="Path-60" stroke="#979797"></path>
                    <path d="M149,0 L149,80" id="Path-61" stroke="#9B9B9B" fill="#9B9B9B"></path>
                    <path d="M149.5,80 L152,71.0000002 L147,71 L149.5,80 L149.5,80 L149.5,80 Z" id="Path-61-decoration-1" stroke="#9B9B9B" fill="#9B9B9B"></path>
                    <path d="M157,6 L157,81" id="Path-62" stroke="#9B9B9B" fill="#9B9B9B"></path>
                    <path d="M156.5,80 L159,71.0000002 L154,71 L156.5,80 L156.5,80 L156.5,80 Z" id="Path-62-decoration-1" stroke="#9B9B9B" fill="#9B9B9B"></path>
                    <path d="M127,31 L156,31" id="Path-63" stroke="#979797"></path>
                    <path d="M115,39 L149,39" id="Path-64" stroke="#979797"></path>
                    <path d="M225,5.17620437 L225,42.8982613 L196,42.8982613 L196,5 L196,80" id="Path-65" stroke="#979797"></path>
                    <path d="M204,5 L204,80" id="Path-66" stroke="#979797" fill="#9B9B9B"></path>
                    <path d="M204.5,79 L207,70.0000002 L202,70 L204.5,79 L204.5,79 L204.5,79 Z" id="Path-66-decoration-1" stroke="#979797" fill="#9B9B9B"></path>
                    <path d="M225,12 L215.563479,12 L215.563479,34 L204,34" id="Path-67" stroke="#979797"></path>
                    <path d="M262,78.6076586 L262,53.3976454 L310.36454,53.3976454 L310.36454,45 L314.237898,45 L314.237898,53.2684124 L323,53.2684124 L323,79" id="Path-68" stroke="#979797"></path>
                    <path d="M322.5,80 L325,71.0000002 L320,71 L322.5,80 L322.5,80 L322.5,80 Z" id="Path-68-decoration-1" stroke="#979797" fill="#9B9B9B"></path>
                </g>
                <g id="Group" transform="translate(261.000000, 330.000000)">
                    <path d="M0,7 L0,81 L362,81 L362,9.08926373" id="Path-51" stroke="#979797"></path>
                    <path d="M26,81 L26,7" id="Path-52" stroke="#979797" fill="#9B9B9B"></path>
                    <path d="M24.5,80 L22,71.0000002 C23.75,71.0000001 25.25,71.0000001 27,71 L24.5,80 L24.5,80 L24.5,80 Z" id="Path-52-decoration-1" stroke="#979797" fill="#9B9B9B"></path>
                    <path d="M50,81 L50,7" id="Path-52" stroke="#979797" fill="#9B9B9B"></path>
                    <path d="M50.5,80 L48,71.0000002 C49.75,71.0000001 51.25,71.0000001 53,71 L50.5,80 L50.5,80 L50.5,80 Z" id="Path-52-decoration-1" stroke="#979797" fill="#9B9B9B"></path>
                    <path d="M76,81 L76,7" id="Path-52" stroke="#979797" fill="#9B9B9B"></path>
                    <path d="M75.5,80 L73,71.0000002 C74.75,71.0000001 76.25,71.0000001 78,71 L75.5,80 L75.5,80 L75.5,80 Z" id="Path-52-decoration-1" stroke="#979797" fill="#9B9B9B"></path>
                    <path d="M102,81 L102,7" id="Path-52" stroke="#979797" fill="#9B9B9B"></path>
                    <path d="M101.5,80 L99,71.0000002 C100.75,71.0000001 102.25,71.0000001 104,71 L101.5,80 L101.5,80 L101.5,80 Z" id="Path-52-decoration-1" stroke="#979797" fill="#9B9B9B"></path>
                    <path d="M115,16.053421 L115,45 L126,45 L126,16" id="Path-56" stroke="#979797"></path>
                    <path d="M115,16 L126,16" id="Path-57" stroke="#979797"></path>
                    <path d="M121,16 L121,8.73145272 L126,8.73145272 L126,5" id="Path-58" stroke="#979797"></path>
                    <path d="M121,9 L115,9 L115,5" id="Path-59" stroke="#979797"></path>
                    <path d="M121,47 L121,63" id="Path-60" stroke="#979797"></path>
                    <path d="M149,0 L149,80" id="Path-61" stroke="#9B9B9B" fill="#9B9B9B"></path>
                    <path d="M149.5,80 L152,71.0000002 L147,71 L149.5,80 L149.5,80 L149.5,80 Z" id="Path-61-decoration-1" stroke="#9B9B9B" fill="#9B9B9B"></path>
                    <path d="M157,6 L157,81" id="Path-62" stroke="#9B9B9B" fill="#9B9B9B"></path>
                    <path d="M156.5,80 L159,71.0000002 L154,71 L156.5,80 L156.5,80 L156.5,80 Z" id="Path-62-decoration-1" stroke="#9B9B9B" fill="#9B9B9B"></path>
                    <path d="M127,31 L156,31" id="Path-63" stroke="#979797"></path>
                    <path d="M115,39 L149,39" id="Path-64" stroke="#979797"></path>
                    <path d="M225,5.17620437 L225,42.8982613 L196,42.8982613 L196,5 L196,80" id="Path-65" stroke="#979797"></path>
                    <path d="M204,5 L204,80" id="Path-66" stroke="#979797" fill="#9B9B9B"></path>
                    <path d="M204.5,79 L207,70.0000002 L202,70 L204.5,79 L204.5,79 L204.5,79 Z" id="Path-66-decoration-1" stroke="#979797" fill="#9B9B9B"></path>
                    <path d="M225,12 L215.563479,12 L215.563479,34 L204,34" id="Path-67" stroke="#979797"></path>
                    <path d="M262,78.6076586 L262,53.3976454 L310.36454,53.3976454 L310.36454,45 L314.237898,45 L314.237898,53.2684124 L323,53.2684124 L323,79" id="Path-68" stroke="#979797"></path>
                    <path d="M322.5,80 L325,71.0000002 L320,71 L322.5,80 L322.5,80 L322.5,80 Z" id="Path-68-decoration-1" stroke="#979797" fill="#9B9B9B"></path>
                </g>
                <g id="Group" transform="translate(451.000000, 323.500000) scale(-1, 1) translate(-451.000000, -323.500000) translate(270.000000, 283.000000)">
                    <path d="M0,7 L0,81 L362,81 L362,9.08926373" id="Path-51" stroke="#979797"></path>
                    <path d="M26,81 L26,7" id="Path-52" stroke="#979797" fill="#9B9B9B"></path>
                    <path d="M24.5,80 L22,71.0000002 C23.75,71.0000001 25.25,71.0000001 27,71 L24.5,80 L24.5,80 L24.5,80 Z" id="Path-52-decoration-1" stroke="#979797" fill="#9B9B9B"></path>
                    <path d="M50,81 L50,7" id="Path-52" stroke="#979797" fill="#9B9B9B"></path>
                    <path d="M50.5,80 L48,71.0000002 C49.75,71.0000001 51.25,71.0000001 53,71 L50.5,80 L50.5,80 L50.5,80 Z" id="Path-52-decoration-1" stroke="#979797" fill="#9B9B9B"></path>
                    <path d="M76,81 L76,7" id="Path-52" stroke="#979797" fill="#9B9B9B"></path>
                    <path d="M75.5,80 L73,71.0000002 C74.75,71.0000001 76.25,71.0000001 78,71 L75.5,80 L75.5,80 L75.5,80 Z" id="Path-52-decoration-1" stroke="#979797" fill="#9B9B9B"></path>
                    <path d="M102,81 L102,7" id="Path-52" stroke="#979797" fill="#9B9B9B"></path>
                    <path d="M101.5,80 L99,71.0000002 C100.75,71.0000001 102.25,71.0000001 104,71 L101.5,80 L101.5,80 L101.5,80 Z" id="Path-52-decoration-1" stroke="#979797" fill="#9B9B9B"></path>
                    <path d="M115,16.053421 L115,45 L126,45 L126,16" id="Path-56" stroke="#979797"></path>
                    <path d="M115,16 L126,16" id="Path-57" stroke="#979797"></path>
                    <path d="M121,16 L121,8.73145272 L126,8.73145272 L126,5" id="Path-58" stroke="#979797"></path>
                    <path d="M121,9 L115,9 L115,5" id="Path-59" stroke="#979797"></path>
                    <path d="M121,47 L121,63" id="Path-60" stroke="#979797"></path>
                    <path d="M149,0 L149,80" id="Path-61" stroke="#9B9B9B" fill="#9B9B9B"></path>
                    <path d="M149.5,80 L152,71.0000002 L147,71 L149.5,80 L149.5,80 L149.5,80 Z" id="Path-61-decoration-1" stroke="#9B9B9B" fill="#9B9B9B"></path>
                    <path d="M157,6 L157,81" id="Path-62" stroke="#9B9B9B" fill="#9B9B9B"></path>
                    <path d="M156.5,80 L159,71.0000002 L154,71 L156.5,80 L156.5,80 L156.5,80 Z" id="Path-62-decoration-1" stroke="#9B9B9B" fill="#9B9B9B"></path>
                    <path d="M127,31 L156,31" id="Path-63" stroke="#979797"></path>
                    <path d="M115,39 L149,39" id="Path-64" stroke="#979797"></path>
                    <path d="M225,5.17620437 L225,42.8982613 L196,42.8982613 L196,5 L196,80" id="Path-65" stroke="#979797"></path>
                    <path d="M204,5 L204,80" id="Path-66" stroke="#979797" fill="#9B9B9B"></path>
                    <path d="M204.5,79 L207,70.0000002 L202,70 L204.5,79 L204.5,79 L204.5,79 Z" id="Path-66-decoration-1" stroke="#979797" fill="#9B9B9B"></path>
                    <path d="M225,12 L215.563479,12 L215.563479,34 L204,34" id="Path-67" stroke="#979797"></path>
                    <path d="M262,78.6076586 L262,53.3976454 L310.36454,53.3976454 L310.36454,45 L314.237898,45 L314.237898,53.2684124 L323,53.2684124 L323,79" id="Path-68" stroke="#979797"></path>
                    <path d="M322.5,80 L325,71.0000002 L320,71 L322.5,80 L322.5,80 L322.5,80 Z" id="Path-68-decoration-1" stroke="#979797" fill="#9B9B9B"></path>
                </g>
                <g id="Path-88-+-Group" transform="translate(550.000000, 53.000000)">
                    <path d="M79,60 L186,60 L186,0" id="Path-88" stroke="#979797"></path>
                    <g id="Group" transform="translate(88.000000, 5.000000)">
                        <g id="Path-90-+-Oval-1-+-Rectangle-1">
                            <circle id="Oval-1" fill="#D0011B" cx="2" cy="2" r="2"></circle>
                            <rect id="Rectangle-1" fill="#000000" x="0" y="0" width="12" height="2"></rect>
                            <path d="M99.5652608,11 L87.5344637,11 L87.5344637,6.84077694 L0,6.84077694 L0,2 L100,2" id="Path-89" stroke="#979797"></path>
                        </g>
                        <g id="Path-90-+-Oval-1-+-Rectangle-1" transform="translate(0.000000, 14.000000)">
                            <circle id="Oval-1" fill="#D0011B" cx="2" cy="2" r="2"></circle>
                            <rect id="Rectangle-1" fill="#000000" x="0" y="0" width="12" height="2"></rect>
                            <path d="M99.5652608,11 L87.5344637,11 L87.5344637,6.84077694 L0,6.84077694 L0,2 L100,2" id="Path-89" stroke="#979797"></path>
                        </g>
                        <g id="Path-90-+-Oval-1-+-Rectangle-1" transform="translate(0.000000, 28.000000)">
                            <circle id="Oval-1" fill="#D0011B" cx="2" cy="2" r="2"></circle>
                            <rect id="Rectangle-1" fill="#000000" x="0" y="0" width="12" height="2"></rect>
                            <path d="M99.5652608,11 L87.5344637,11 L87.5344637,6.84077694 L0,6.84077694 L0,2 L100,2" id="Path-89" stroke="#979797"></path>
                        </g>
                        <g id="Path-90-+-Oval-1-+-Rectangle-1" transform="translate(0.000000, 42.000000)">
                            <circle id="Oval-1" fill="#D0011B" cx="2" cy="2" r="2"></circle>
                            <rect id="Rectangle-1" fill="#000000" x="0" y="0" width="12" height="2"></rect>
                            <path d="M99.5652608,11 L87.5344637,11 L87.5344637,6.84077694 L0,6.84077694 L0,2 L100,2" id="Path-89" stroke="#979797"></path>
                        </g>
                    </g>
                    <path d="M0,82 L0,28 L0,82 L0,82 Z M82,61 L75,61 L82,61 L82,61 Z" id="Path-87" stroke="#979797"></path>
                </g>
                <g id="Path-88-+-Group" transform="translate(799.500000, 83.000000) scale(-1, 1) translate(-799.500000, -83.000000) translate(745.000000, 53.000000)">
                    <path d="M0,60 L109,60 L109,0" id="Path-88" stroke="#979797"></path>
                    <g id="Group" transform="translate(7.000000, 5.000000)">
                        <g id="Path-90-+-Oval-1-+-Rectangle-1">
                            <circle id="Oval-1" fill="#D0011B" cx="2" cy="2" r="2"></circle>
                            <rect id="Rectangle-1" fill="#000000" x="0" y="0" width="12" height="2"></rect>
                            <path d="M101.556566,11 L89.285153,11 L89.285153,6.84077694 L0,6.84077694 L0,2 L102,2" id="Path-89" stroke="#979797"></path>
                        </g>
                        <g id="Path-90-+-Oval-1-+-Rectangle-1" transform="translate(0.000000, 14.000000)">
                            <circle id="Oval-1" fill="#D0011B" cx="2" cy="2" r="2"></circle>
                            <rect id="Rectangle-1" fill="#000000" x="0" y="0" width="12" height="2"></rect>
                            <path d="M101.556566,11 L89.285153,11 L89.285153,6.84077694 L0,6.84077694 L0,2 L102,2" id="Path-89" stroke="#979797"></path>
                        </g>
                        <g id="Path-90-+-Oval-1-+-Rectangle-1" transform="translate(0.000000, 28.000000)">
                            <circle id="Oval-1" fill="#D0011B" cx="2" cy="2" r="2"></circle>
                            <rect id="Rectangle-1" fill="#000000" x="0" y="0" width="12" height="2"></rect>
                            <path d="M101.556566,11 L89.285153,11 L89.285153,6.84077694 L0,6.84077694 L0,2 L102,2" id="Path-89" stroke="#979797"></path>
                        </g>
                        <g id="Path-90-+-Oval-1-+-Rectangle-1" transform="translate(0.000000, 42.000000)">
                            <circle id="Oval-1" fill="#D0011B" cx="2" cy="2" r="2"></circle>
                            <rect id="Rectangle-1" fill="#000000" x="0" y="0" width="12" height="2"></rect>
                            <path d="M101.556566,11 L89.285153,11 L89.285153,6.84077694 L0,6.84077694 L0,2 L102,2" id="Path-89" stroke="#979797"></path>
                        </g>
                    </g>
                </g>
                <path d="M606,126.934901 L606,148 L709.632406,148 L709.632406,135.845542 L778,135.845542 L778,114" id="Path-99" stroke="#979797"></path>
                <g id="Path-88-+-Group" transform="translate(453.000000, 438.000000) scale(-1, -1) translate(-453.000000, -438.000000) translate(359.000000, 397.000000)">
                    <path d="M79,60 L186,60 L186,0" id="Path-88" stroke="#979797"></path>
                    <g id="Group" transform="translate(88.000000, 5.000000)">
                        <g id="Path-90-+-Oval-1-+-Rectangle-1">
                            <circle id="Oval-1" fill="#D0011B" cx="2" cy="2" r="2"></circle>
                            <rect id="Rectangle-1" fill="#000000" x="0" y="0" width="12" height="2"></rect>
                            <path d="M99.5652608,11 L87.5344637,11 L87.5344637,6.84077694 L0,6.84077694 L0,2 L100,2" id="Path-89" stroke="#979797"></path>
                        </g>
                        <g id="Path-90-+-Oval-1-+-Rectangle-1" transform="translate(0.000000, 14.000000)">
                            <circle id="Oval-1" fill="#D0011B" cx="2" cy="2" r="2"></circle>
                            <rect id="Rectangle-1" fill="#000000" x="0" y="0" width="12" height="2"></rect>
                            <path d="M99.5652608,11 L87.5344637,11 L87.5344637,6.84077694 L0,6.84077694 L0,2 L100,2" id="Path-89" stroke="#979797"></path>
                        </g>
                        <g id="Path-90-+-Oval-1-+-Rectangle-1" transform="translate(0.000000, 28.000000)">
                            <circle id="Oval-1" fill="#D0011B" cx="2" cy="2" r="2"></circle>
                            <rect id="Rectangle-1" fill="#000000" x="0" y="0" width="12" height="2"></rect>
                            <path d="M99.5652608,11 L87.5344637,11 L87.5344637,6.84077694 L0,6.84077694 L0,2 L100,2" id="Path-89" stroke="#979797"></path>
                        </g>
                        <g id="Path-90-+-Oval-1-+-Rectangle-1" transform="translate(0.000000, 42.000000)">
                            <circle id="Oval-1" fill="#D0011B" cx="2" cy="2" r="2"></circle>
                            <rect id="Rectangle-1" fill="#000000" x="0" y="0" width="12" height="2"></rect>
                            <path d="M99.5652608,11 L87.5344637,11 L87.5344637,6.84077694 L0,6.84077694 L0,2 L100,2" id="Path-89" stroke="#979797"></path>
                        </g>
                    </g>
                    <path d="M0,82 L0,28 L0,82 L0,82 Z M82,61 L75,61 L82,61 L82,61 Z" id="Path-87" stroke="#979797"></path>
                </g>
                <g id="Path-88-+-Group" transform="translate(611.500000, 427.000000) scale(1, -1) translate(-611.500000, -427.000000) translate(557.000000, 397.000000)">
                    <path d="M0,60 L109,60 L109,0" id="Path-88" stroke="#979797"></path>
                    <g id="Group" transform="translate(7.000000, 5.000000)">
                        <g id="Path-90-+-Oval-1-+-Rectangle-1">
                            <circle id="Oval-1" fill="#D0011B" cx="2" cy="2" r="2"></circle>
                            <rect id="Rectangle-1" fill="#000000" x="0" y="0" width="12" height="2"></rect>
                            <path d="M101.556566,11 L89.285153,11 L89.285153,6.84077694 L0,6.84077694 L0,2 L102,2" id="Path-89" stroke="#979797"></path>
                        </g>
                        <g id="Path-90-+-Oval-1-+-Rectangle-1" transform="translate(0.000000, 14.000000)">
                            <circle id="Oval-1" fill="#D0011B" cx="2" cy="2" r="2"></circle>
                            <rect id="Rectangle-1" fill="#000000" x="0" y="0" width="12" height="2"></rect>
                            <path d="M101.556566,11 L89.285153,11 L89.285153,6.84077694 L0,6.84077694 L0,2 L102,2" id="Path-89" stroke="#979797"></path>
                        </g>
                        <g id="Path-90-+-Oval-1-+-Rectangle-1" transform="translate(0.000000, 28.000000)">
                            <circle id="Oval-1" fill="#D0011B" cx="2" cy="2" r="2"></circle>
                            <rect id="Rectangle-1" fill="#000000" x="0" y="0" width="12" height="2"></rect>
                            <path d="M101.556566,11 L89.285153,11 L89.285153,6.84077694 L0,6.84077694 L0,2 L102,2" id="Path-89" stroke="#979797"></path>
                        </g>
                        <g id="Path-90-+-Oval-1-+-Rectangle-1" transform="translate(0.000000, 42.000000)">
                            <circle id="Oval-1" fill="#D0011B" cx="2" cy="2" r="2"></circle>
                            <rect id="Rectangle-1" fill="#000000" x="0" y="0" width="12" height="2"></rect>
                            <path d="M101.556566,11 L89.285153,11 L89.285153,6.84077694 L0,6.84077694 L0,2 L102,2" id="Path-89" stroke="#979797"></path>
                        </g>
                    </g>
                </g>
                <g id="Group" transform="translate(32.000000, 53.000000)">
                    <path d="M343,404.934901 L343,426 L446.632406,426 L446.632406,413.845542 L515,413.845542 L515,392" id="Path-99" stroke="#979797"></path>
                    <path d="M459,73 L459,92.4666653 L319,92.4666653 L319,168.982803 L323.281772,168.982803 L323.281772,188" id="Path-100" stroke="#979797"></path>
                    <path d="M319,168 L310,168 L310,192" id="Path-101" stroke="#979797"></path>
                    <path d="M466.999996,74 L467,99.9564711 L336,99.9564711 L336,171.045509 L340.368059,171.045509 L340.368059,188" id="Path-102" stroke="#979797"></path>
                    <path d="M339.5,187 L342,178 L337,178 L339.5,187 L339.5,187 L339.5,187 Z" id="Path-102-decoration-1" stroke="#979797"></path>
                    <path d="M336,170 L332,170 L332,187" id="Path-103" stroke="#979797"></path>
                    <path d="M427,115 L427,164.398381 L401,164.398381 L401,187" id="Path-104" stroke="#979797"></path>
                    <path d="M426.5,116 L429,125 C427.25,125 425.75,125 424,124.999999 C424.875,121.849999 425.625,119.15 426.5,116 L426.5,116 L426.5,116 Z" id="Path-104-decoration-1" stroke="#979797" fill="#D8D8D8"></path>
                    <path d="M369.454223,115 L369.454223,133.692945 L388,133.692945 L388,146.855462 L367.905489,146.855462 L367.905489,139.819679 L360,139.819679 L360,153.378073 L383.4254,153.378073 L383.4254,166.44409 L368.038998,166.44409 L368.038998,188" id="Path-105" stroke="#979797"></path>
                    <path d="M368.5,115 L371,124 C369.25,124 367.75,123.999999 366,123.999999 C366.875,120.849999 367.625,118.15 368.5,115 L368.5,115 L368.5,115 Z" id="Path-105-decoration-1" stroke="#979797" fill="#D8D8D8"></path>
                    <path d="M388.136827,133 L408,133 L408,146 L388,146" id="Path-106" stroke="#979797"></path>
                    <path d="M408,138.5 L426,138.5" id="Path-107" stroke="#979797"></path>
                    <path d="M299,268.866514 L387.978202,268.866514 L387.978202,151 L851,151 L851,458.31308 L791.196617,458.31308 L791.196617,468" id="Path-108" stroke="#979797"></path>
                    <path d="M299,269.5 C302.15,268.625 304.85,267.875 308,267 L308,272 L299,269.5 L299,269.5 L299,269.5 Z" id="Path-108-decoration-1" stroke="#979797"></path>
                    <path d="M298,306.866514 L408.567365,306.866514 L408.567365,189 L872,189 L872,496.31308 L812.143553,496.31308 L812.143553,506" id="Path-108" stroke="#979797"></path>
                    <path d="M299,306.5 C302.15,305.625 304.85,304.875 308,304 L308,309 L299,306.5 L299,306.5 L299,306.5 Z" id="Path-108-decoration-1" stroke="#979797"></path>
                    <path d="M298,290.866514 L401.080944,290.866514 L401.080944,173 L865,173 L865,480.31308 L805.080728,480.31308 L805.080728,490" id="Path-108" stroke="#979797"></path>
                    <path d="M299,290.5 C302.15,289.625 304.85,288.875 308,288 L308,293 L299,290.5 L299,290.5 L299,290.5 Z" id="Path-108-decoration-1" stroke="#979797"></path>
                    <path d="M297,277.992931 L394.822569,277.992931 L394.822569,160 L858,160 L858,467.642686 L798.176515,467.642686 L798.176515,477.339996 L769.078041,477.339996 L769.078041,514 L803.280311,514" id="Path-108" stroke="#979797"></path>
                    <path d="M298,278.5 C301.15,277.625 303.85,276.875 307,276 L307,281 L298,278.5 L298,278.5 L298,278.5 Z" id="Path-108-decoration-1" stroke="#979797"></path>
                    <path d="M803,513.5 L794,511 L794,516 C797.15,515.125 799.85,514.375 803,513.5 L803,513.5 L803,513.5 Z" id="Path-108-decoration-2" stroke="#979797"></path>
                    <path d="M881,501.696042 L812.374644,501.696042 L812.374644,436 L763,436 L763,531 L799.944439,531 L799.944439,490.044131 L833.905374,490.044131 L833.905374,477.019558" id="Path-112" stroke="#979797"></path>
                    <path d="M835.5,477 C834.625,480.15 833.875,482.85 833,486 L838,486 C837.125,482.85 836.375,480.15 835.5,477 L835.5,477 L835.5,477 Z" id="Path-112-decoration-1" stroke="#979797"></path>
                    <path d="M793,466 L762,466" id="Path-113" stroke="#979797"></path>
                    <path d="M762.000001,469 C762,467.249999 762,465.75 762,464" id="Path-113-decoration-1" stroke="#979797"></path>
                    <circle id="Oval-41" fill="#D0011B" cx="2" cy="2" r="2"></circle>
                    <circle id="Oval-41" fill="#D0011B" cx="2" cy="2" r="2"></circle>
                    <circle id="Oval-41" fill="#D0011B" cx="2" cy="2" r="2"></circle>
                    <rect id="Rectangle-9" fill="#303BA3" x="0" y="0" width="4" height="4"></rect>
                    <rect id="Rectangle-9" fill="#303BA3" x="0" y="0" width="4" height="4"></rect>
                </g>
                <g id="Group" transform="translate(182.000000, 290.500000) scale(1, -1) translate(-182.000000, -290.500000) translate(1.000000, 250.000000)">
                    <path d="M0,7 L0,81 L362,81 L362,9.08926373" id="Path-51" stroke="#979797"></path>
                    <path d="M26,81 L26,7" id="Path-52" stroke="#979797" fill="#9B9B9B"></path>
                    <path d="M24.5,80 L22,71.0000002 C23.75,71.0000001 25.25,71.0000001 27,71 L24.5,80 L24.5,80 L24.5,80 Z" id="Path-52-decoration-1" stroke="#979797" fill="#9B9B9B"></path>
                    <path d="M50,81 L50,7" id="Path-52" stroke="#979797" fill="#9B9B9B"></path>
                    <path d="M50.5,80 L48,71.0000002 C49.75,71.0000001 51.25,71.0000001 53,71 L50.5,80 L50.5,80 L50.5,80 Z" id="Path-52-decoration-1" stroke="#979797" fill="#9B9B9B"></path>
                    <path d="M76,81 L76,7" id="Path-52" stroke="#979797" fill="#9B9B9B"></path>
                    <path d="M75.5,80 L73,71.0000002 C74.75,71.0000001 76.25,71.0000001 78,71 L75.5,80 L75.5,80 L75.5,80 Z" id="Path-52-decoration-1" stroke="#979797" fill="#9B9B9B"></path>
                    <path d="M102,81 L102,7" id="Path-52" stroke="#979797" fill="#9B9B9B"></path>
                    <path d="M101.5,80 L99,71.0000002 C100.75,71.0000001 102.25,71.0000001 104,71 L101.5,80 L101.5,80 L101.5,80 Z" id="Path-52-decoration-1" stroke="#979797" fill="#9B9B9B"></path>
                    <path d="M115,16.053421 L115,45 L126,45 L126,16" id="Path-56" stroke="#979797"></path>
                    <path d="M115,16 L126,16" id="Path-57" stroke="#979797"></path>
                    <path d="M121,16 L121,8.73145272 L126,8.73145272 L126,5" id="Path-58" stroke="#979797"></path>
                    <path d="M121,9 L115,9 L115,5" id="Path-59" stroke="#979797"></path>
                    <path d="M121,47 L121,63" id="Path-60" stroke="#979797"></path>
                    <path d="M149,0 L149,80" id="Path-61" stroke="#9B9B9B" fill="#9B9B9B"></path>
                    <path d="M149.5,80 L152,71.0000002 L147,71 L149.5,80 L149.5,80 L149.5,80 Z" id="Path-61-decoration-1" stroke="#9B9B9B" fill="#9B9B9B"></path>
                    <path d="M157,6 L157,81" id="Path-62" stroke="#9B9B9B" fill="#9B9B9B"></path>
                    <path d="M156.5,80 L159,71.0000002 L154,71 L156.5,80 L156.5,80 L156.5,80 Z" id="Path-62-decoration-1" stroke="#9B9B9B" fill="#9B9B9B"></path>
                    <path d="M127,31 L156,31" id="Path-63" stroke="#979797"></path>
                    <path d="M115,39 L149,39" id="Path-64" stroke="#979797"></path>
                    <path d="M225,5.17620437 L225,42.8982613 L196,42.8982613 L196,5 L196,80" id="Path-65" stroke="#979797"></path>
                    <path d="M204,5 L204,80" id="Path-66" stroke="#979797" fill="#9B9B9B"></path>
                    <path d="M204.5,79 L207,70.0000002 L202,70 L204.5,79 L204.5,79 L204.5,79 Z" id="Path-66-decoration-1" stroke="#979797" fill="#9B9B9B"></path>
                    <path d="M225,12 L215.563479,12 L215.563479,34 L204,34" id="Path-67" stroke="#979797"></path>
                    <path d="M262,78.6076586 L262,53.3976454 L310.36454,53.3976454 L310.36454,45 L314.237898,45 L314.237898,53.2684124 L323,53.2684124 L323,79" id="Path-68" stroke="#979797"></path>
                    <path d="M322.5,80 L325,71.0000002 L320,71 L322.5,80 L322.5,80 L322.5,80 Z" id="Path-68-decoration-1" stroke="#979797" fill="#9B9B9B"></path>
                </g>
                <g id="Group" transform="translate(190.000000, 244.500000) scale(-1, -1) translate(-190.000000, -244.500000) translate(9.000000, 204.000000)">
                    <path d="M0,7 L0,81 L362,81 L362,9.08926373" id="Path-51" stroke="#979797"></path>
                    <path d="M26,81 L26,7" id="Path-52" stroke="#979797" fill="#9B9B9B"></path>
                    <path d="M24.5,80 L22,71.0000002 C23.75,71.0000001 25.25,71.0000001 27,71 L24.5,80 L24.5,80 L24.5,80 Z" id="Path-52-decoration-1" stroke="#979797" fill="#9B9B9B"></path>
                    <path d="M50,81 L50,7" id="Path-52" stroke="#979797" fill="#9B9B9B"></path>
                    <path d="M50.5,80 L48,71.0000002 C49.75,71.0000001 51.25,71.0000001 53,71 L50.5,80 L50.5,80 L50.5,80 Z" id="Path-52-decoration-1" stroke="#979797" fill="#9B9B9B"></path>
                    <path d="M76,81 L76,7" id="Path-52" stroke="#979797" fill="#9B9B9B"></path>
                    <path d="M75.5,80 L73,71.0000002 C74.75,71.0000001 76.25,71.0000001 78,71 L75.5,80 L75.5,80 L75.5,80 Z" id="Path-52-decoration-1" stroke="#979797" fill="#9B9B9B"></path>
                    <path d="M102,81 L102,7" id="Path-52" stroke="#979797" fill="#9B9B9B"></path>
                    <path d="M101.5,80 L99,71.0000002 C100.75,71.0000001 102.25,71.0000001 104,71 L101.5,80 L101.5,80 L101.5,80 Z" id="Path-52-decoration-1" stroke="#979797" fill="#9B9B9B"></path>
                    <path d="M115,16.053421 L115,45 L126,45 L126,16" id="Path-56" stroke="#979797"></path>
                    <path d="M115,16 L126,16" id="Path-57" stroke="#979797"></path>
                    <path d="M121,16 L121,8.73145272 L126,8.73145272 L126,5" id="Path-58" stroke="#979797"></path>
                    <path d="M121,9 L115,9 L115,5" id="Path-59" stroke="#979797"></path>
                    <path d="M121,47 L121,63" id="Path-60" stroke="#979797"></path>
                    <path d="M149,0 L149,80" id="Path-61" stroke="#9B9B9B" fill="#9B9B9B"></path>
                    <path d="M149.5,80 L152,71.0000002 L147,71 L149.5,80 L149.5,80 L149.5,80 Z" id="Path-61-decoration-1" stroke="#9B9B9B" fill="#9B9B9B"></path>
                    <path d="M157,6 L157,81" id="Path-62" stroke="#9B9B9B" fill="#9B9B9B"></path>
                    <path d="M156.5,80 L159,71.0000002 L154,71 L156.5,80 L156.5,80 L156.5,80 Z" id="Path-62-decoration-1" stroke="#9B9B9B" fill="#9B9B9B"></path>
                    <path d="M127,31 L156,31" id="Path-63" stroke="#979797"></path>
                    <path d="M115,39 L149,39" id="Path-64" stroke="#979797"></path>
                    <path d="M225,5.17620437 L225,42.8982613 L196,42.8982613 L196,5 L196,80" id="Path-65" stroke="#979797"></path>
                    <path d="M204,5 L204,80" id="Path-66" stroke="#979797" fill="#9B9B9B"></path>
                    <path d="M204.5,79 L207,70.0000002 L202,70 L204.5,79 L204.5,79 L204.5,79 Z" id="Path-66-decoration-1" stroke="#979797" fill="#9B9B9B"></path>
                    <path d="M225,12 L215.563479,12 L215.563479,34 L204,34" id="Path-67" stroke="#979797"></path>
                    <path d="M262,78.6076586 L262,53.3976454 L310.36454,53.3976454 L310.36454,45 L314.237898,45 L314.237898,53.2684124 L323,53.2684124 L323,79" id="Path-68" stroke="#979797"></path>
                    <path d="M322.5,80 L325,71.0000002 L320,71 L322.5,80 L322.5,80 L322.5,80 Z" id="Path-68-decoration-1" stroke="#979797" fill="#9B9B9B"></path>
                </g>
                <path d="M373,277 L346.58815,277 L346.58815,294 L247.481289,294 L247.481289,278.772514 L215,278.772514" id="Path-199" stroke="#979797"></path>
                <path d="M0,324 L226,324" id="Path-200" stroke="#979797"></path>
            </g>
        </g>
    </g>
</svg>